<?xml version="1.0" encoding="utf-8"?>
<!-- Generator: Adobe Illustrator 16.0.0, SVG Export Plug-In . SVG Version: 6.00 Build 0)  -->
<!DOCTYPE svg PUBLIC "-//W3C//DTD SVG 1.1//EN" "http://www.w3.org/Graphics/SVG/1.1/DTD/svg11.dtd">
<svg version="1.1" id="Calque_1" xmlns="http://www.w3.org/2000/svg" xmlns:xlink="http://www.w3.org/1999/xlink" x="0px" y="0px"
	 width="2606.656px" height="5391.751px" viewBox="0 0 2606.656 5391.751" enable-background="new 0 0 2606.656 5391.751"
	 xml:space="preserve">
<g>
	<g>
		<g>
			<linearGradient id="SVGID_1_" gradientUnits="userSpaceOnUse" x1="3202.7129" y1="4594.4316" x2="-596.0559" y2="795.6628">
				<stop  offset="0" style="stop-color:#000000"/>
				<stop  offset="0.2618" style="stop-color:#01030D"/>
				<stop  offset="0.7419" style="stop-color:#050C2E"/>
				<stop  offset="1" style="stop-color:#071243"/>
			</linearGradient>
			<rect y="199.606" fill="url(#SVGID_1_)" width="2606.656" height="4990.881"/>
			<linearGradient id="SVGID_2_" gradientUnits="userSpaceOnUse" x1="259.2568" y1="2695.875" x2="2346.8389" y2="2695.875">
				<stop  offset="0" style="stop-color:#352640"/>
				<stop  offset="0.3568" style="stop-color:#2A2032"/>
				<stop  offset="1" style="stop-color:#0E110E"/>
			</linearGradient>
			<path fill="url(#SVGID_2_)" d="M2346.839,5347.351c0,24.521-5.373,44.4-12,44.4H271.257c-6.627,0-12-19.88-12-44.4V44.4
				c0-24.521,5.373-44.4,12-44.4h2063.582c6.627,0,12,19.879,12,44.4V5347.351z"/>
		</g>
		<g>
			<defs>
				<path id="SVGID_3_" d="M2347.119,1337.76c0,6.135-5.373,11.108-12,11.108H271.537c-6.627,0-12-4.973-12-11.108V11.108
					c0-6.135,5.373-11.108,12-11.108h2063.582c6.627,0,12,4.973,12,11.108V1337.76z"/>
			</defs>
			<clipPath id="SVGID_4_">
				<use xlink:href="#SVGID_3_"  overflow="visible"/>
			</clipPath>
			<g clip-path="url(#SVGID_4_)">
				
					<linearGradient id="SVGID_5_" gradientUnits="userSpaceOnUse" x1="4222.5879" y1="10397.2451" x2="4594.8198" y2="9559.0889" gradientTransform="matrix(-0.0288 0.9996 -0.9996 -0.0288 10628.751 -3654.3125)">
					<stop  offset="0" style="stop-color:#000000"/>
					<stop  offset="0.2618" style="stop-color:#01030D"/>
					<stop  offset="0.7419" style="stop-color:#050C2E"/>
					<stop  offset="1" style="stop-color:#071243"/>
				</linearGradient>
				<path fill="url(#SVGID_5_)" d="M665.82,1054.795c149.984-91.717,225.014-244.468,189.824-386.456
					c-12.289-49.592-37.006-98.172-36.734-148.445c0.491-91.587,82.83-170.672,169.953-235.602
					c87.118-64.932,185.692-126.279,233.921-210.325c13.864-24.162,22.962-49.765,27.319-75.847L255.65-28.429l-3.094,1175.173
					C438.012,1196.836,515.842,1146.514,665.82,1054.795z"/>
			</g>
			<g opacity="0.8" clip-path="url(#SVGID_4_)">
				
					<linearGradient id="SVGID_6_" gradientUnits="userSpaceOnUse" x1="1133.2251" y1="28.6353" x2="2792.0332" y2="28.6353" gradientTransform="matrix(1.026 -0.1608 0.1679 0.987 -447.1655 710.2913)">
					<stop  offset="0" style="stop-color:#FBB56D"/>
					<stop  offset="0.1024" style="stop-color:#F19D6B"/>
					<stop  offset="0.273" style="stop-color:#E47B69"/>
					<stop  offset="0.4472" style="stop-color:#D96067"/>
					<stop  offset="0.6244" style="stop-color:#D24D66"/>
					<stop  offset="0.8063" style="stop-color:#CD4265"/>
					<stop  offset="1" style="stop-color:#CC3E65"/>
				</linearGradient>
				<path fill="url(#SVGID_6_)" d="M738.605-38.991c-93.441,137.404-114.297,386.225,52.337,528.58
					c259.332,221.547,455.62-97.147,699.968,6.141c207.973,87.912,65.554,380.312,347.516,455.32
					c127.328,33.87,421.518-39.223,635.756-356.279L2366.268-39.256L738.605-38.991z"/>
			</g>
		</g>
	</g>
	
		<linearGradient id="SVGID_7_" gradientUnits="userSpaceOnUse" x1="2064.3154" y1="782.0596" x2="4667.7197" y2="782.0596" gradientTransform="matrix(-0.7872 -0.6167 -0.6167 0.7872 4521.4844 2309.3665)">
		<stop  offset="0" style="stop-color:#FBB56D"/>
		<stop  offset="0.1024" style="stop-color:#F19D6B"/>
		<stop  offset="0.273" style="stop-color:#E47B69"/>
		<stop  offset="0.4472" style="stop-color:#D96067"/>
		<stop  offset="0.6244" style="stop-color:#D24D66"/>
		<stop  offset="0.8063" style="stop-color:#CD4265"/>
		<stop  offset="1" style="stop-color:#CC3E65"/>
	</linearGradient>
	<path opacity="0.6" fill="none" stroke="url(#SVGID_7_)" stroke-width="3" stroke-miterlimit="10" d="M2601.241,1411.151
		c0,0,57.362-1196.028-878.871-599.722C786.139,1407.738,118.765,676.008-78.357,612.892"/>
	
		<linearGradient id="SVGID_8_" gradientUnits="userSpaceOnUse" x1="-1137.644" y1="-1016.4209" x2="1193.7344" y2="-1016.4209" gradientTransform="matrix(0.7872 -0.6167 0.6167 0.7872 1560.4767 2309.3665)">
		<stop  offset="0" style="stop-color:#FBB56D"/>
		<stop  offset="0.1024" style="stop-color:#F19D6B"/>
		<stop  offset="0.273" style="stop-color:#E47B69"/>
		<stop  offset="0.4472" style="stop-color:#D96067"/>
		<stop  offset="0.6244" style="stop-color:#D24D66"/>
		<stop  offset="0.8063" style="stop-color:#CD4265"/>
		<stop  offset="1" style="stop-color:#CC3E65"/>
	</linearGradient>
	<path opacity="0.3" fill="none" stroke="url(#SVGID_8_)" stroke-width="3" stroke-miterlimit="10" d="M-77.763,2060.959
		c0,0-49.967-1196.028,765.559-599.722c815.523,596.31,1396.854-135.421,1568.561-198.538"/>
	
		<linearGradient id="SVGID_9_" gradientUnits="userSpaceOnUse" x1="1907.2588" y1="432.728" x2="4493.1035" y2="432.728" gradientTransform="matrix(-0.7518 -0.6594 -0.6594 0.7518 4129.1807 2358.354)">
		<stop  offset="0" style="stop-color:#FBB56D"/>
		<stop  offset="0.1024" style="stop-color:#F19D6B"/>
		<stop  offset="0.273" style="stop-color:#E47B69"/>
		<stop  offset="0.4472" style="stop-color:#D96067"/>
		<stop  offset="0.6244" style="stop-color:#D24D66"/>
		<stop  offset="0.8063" style="stop-color:#CD4265"/>
		<stop  offset="1" style="stop-color:#CC3E65"/>
	</linearGradient>
	<path fill="none" stroke="url(#SVGID_9_)" stroke-width="3" stroke-miterlimit="10" d="M2612.579,1193.158
		c0,0,133.385-1191.42-839.355-641.237C800.483,1102.105,180.701,339.277-12.102,266.738"/>
</g>
</svg>
