<?xml version="1.0" encoding="utf-8"?>
<!-- Generator: Adobe Illustrator 16.0.0, SVG Export Plug-In . SVG Version: 6.00 Build 0)  -->
<!DOCTYPE svg PUBLIC "-//W3C//DTD SVG 1.1//EN" "http://www.w3.org/Graphics/SVG/1.1/DTD/svg11.dtd">
<svg version="1.1" id="Calque_1" xmlns="http://www.w3.org/2000/svg" xmlns:xlink="http://www.w3.org/1999/xlink" x="0px" y="0px"
	 width="1024px" height="768px" viewBox="0 0 1024 768" enable-background="new 0 0 1024 768" xml:space="preserve">
<g>
	<defs>
		<path id="SVGID_1_" d="M1024,708.904c0,3.25-2.635,5.885-5.887,5.885H5.887c-3.251,0-5.887-2.635-5.887-5.885V5.886
			C0,2.635,2.636,0,5.887,0h1012.227c3.252,0,5.887,2.635,5.887,5.886V708.904z"/>
	</defs>
	<clipPath id="SVGID_2_">
		<use xlink:href="#SVGID_1_"  overflow="visible"/>
	</clipPath>
	<g clip-path="url(#SVGID_2_)">
		
			<linearGradient id="SVGID_3_" gradientUnits="userSpaceOnUse" x1="5589.3271" y1="7437.4355" x2="5776.9512" y2="7014.9624" gradientTransform="matrix(-0.0288 0.9996 -0.9996 -0.0288 7514.8486 -5223.7202)">
			<stop  offset="0" style="stop-color:#000000"/>
			<stop  offset="0.2618" style="stop-color:#01030D"/>
			<stop  offset="0.7419" style="stop-color:#050C2E"/>
			<stop  offset="1" style="stop-color:#071243"/>
		</linearGradient>
		<path fill="url(#SVGID_3_)" d="M199.29,558.955c73.571-48.603,110.374-129.549,93.113-204.79
			c-6.028-26.28-18.152-52.023-18.02-78.663c0.241-48.534,40.63-90.443,83.366-124.85c42.733-34.409,91.085-66.917,114.742-111.455
			c6.801-12.804,11.264-26.371,13.401-40.193L-1.906-15.064l-1.518,622.745C87.545,634.226,125.723,607.56,199.29,558.955z"/>
	</g>
	<g opacity="0.8" clip-path="url(#SVGID_2_)">
		
			<linearGradient id="SVGID_4_" gradientUnits="userSpaceOnUse" x1="296.6875" y1="-217.0508" x2="1112.3672" y2="-217.0508" gradientTransform="matrix(1.026 -0.1608 0.1679 0.987 -40.7695 552.668)">
			<stop  offset="0" style="stop-color:#FBB56D"/>
			<stop  offset="0.1024" style="stop-color:#F19D6B"/>
			<stop  offset="0.273" style="stop-color:#E47B69"/>
			<stop  offset="0.4472" style="stop-color:#D96067"/>
			<stop  offset="0.6244" style="stop-color:#D24D66"/>
			<stop  offset="0.8063" style="stop-color:#CD4265"/>
			<stop  offset="1" style="stop-color:#CC3E65"/>
		</linearGradient>
		<path fill="url(#SVGID_4_)" d="M234.992-20.662c-45.834,72.813-56.064,204.667,25.673,280.104
			c127.207,117.402,223.49-51.48,343.348,3.254c102.015,46.586,32.155,201.535,170.464,241.283
			c62.456,17.948,206.762-20.785,311.85-188.799l-52.934-335.982L234.992-20.662z"/>
	</g>
</g>
</svg>
