<?xml version="1.0" encoding="utf-8"?>
<!-- Generator: Adobe Illustrator 16.0.0, SVG Export Plug-In . SVG Version: 6.00 Build 0)  -->
<!DOCTYPE svg PUBLIC "-//W3C//DTD SVG 1.1//EN" "http://www.w3.org/Graphics/SVG/1.1/DTD/svg11.dtd">
<svg version="1.1" id="Calque_1" xmlns="http://www.w3.org/2000/svg" xmlns:xlink="http://www.w3.org/1999/xlink" x="0px" y="0px"
	 width="2606.656px" height="5391.751px" viewBox="0 0 2606.656 5391.751" enable-background="new 0 0 2606.656 5391.751"
	 xml:space="preserve">
<g>
	<path fill-rule="evenodd" clip-rule="evenodd" fill="#5D67AF" d="M1603.116,2868.656c10.549,7.282,18.336,16.9,23.943,28.355
		c-0.271,0.201-0.543,0.402-0.813,0.605c-6.762-4.535-11.561-11.028-16.954-16.938c-11.063-12.021-18.371-12.771-33.025-6.266
		c-17.017,7.555-33.395,16.461-50.739,23.293c-4.203,1.658-8.568,2.602-12.859,3.896c-7.572,2.305-14.893,5.43-22.773,6.666
		c-2.998,0.47-5.967,1.229-8.883-0.288c-2.125-2.404,0.053-3.646,1.493-4.843c1.895-1.581,4.138-2.704,6.191-4.087
		c5.192-2.195,10.444-4.252,15.717-6.261c5.984-2.281,11.836-4.987,16.347-9.55c6.498-6.576,14.096-11.656,21.353-17.254
		c12.515-9.657,25.694-13.281,40.818-7.157c1.728,0.7,3.52,1.341,5.401,1.611
		C1594.048,2861.756,1597.932,2866.375,1603.116,2868.656z"/>
	<path fill-rule="evenodd" clip-rule="evenodd" fill="#4D54A5" d="M1636.917,2931.28c2.061,8.28,0.678,16.366-1.373,24.413
		c-0.313-0.255-0.623-0.512-0.939-0.766c-2.198-4.523-0.838-9.377-1.324-14.053c0.586-4-1.027-5.463-5.115-5.064
		c-4.746,0.463-9.199,1.621-13.504,3.641c-8.302,3.893-17.092,6.448-25.796,9.275c-7.085,0.814-13.575,3.768-20.374,5.603
		c-11.273,3.045-22.734,3.397-34.294,3.157c-4.922-0.102-9.902-0.535-14.749,0.906c-1.223,0.196-2.444,0.192-3.668,0.042
		c-8.982-1.745-18.142-0.912-27.189-1.827c-5.535-0.558-11.176-0.412-15.555-4.669c1.307-4.262,4.766-3.835,7.97-3.407
		c2.542,0.338,5.019,0.973,7.553,0.123c1.493-0.318,2.997-0.326,4.494-0.065c3.239,1.062,6.449,0.804,9.649-0.228
		c15.512,0.583,30.828-3.207,46.504-1.299c7.292,0.887,14.78-2.434,22.059-4.369c15.457-4.109,31.172-7.304,46.005-13.635
		c4.735-2.022,9.935-2.998,15.231-2.25c0.767,0.123,1.492,0.382,2.176,0.754C1636.243,2928.302,1635.491,2930.444,1636.917,2931.28z
		"/>
	<path fill-rule="evenodd" clip-rule="evenodd" fill="#686DB2" d="M1450.452,2948.654c-3.843-26.348,4.504-49.105,21.473-68.744
		c26.562-30.746,73.105-40.64,110.287-24.09c0.835,0.373,1.559,0.996,2.338,1.504c-0.705,1.005-1.717,1.398-2.891,1.478
		c-3.697,0.054-6.787-2.433-10.449-2.508c-2.743-1.681-5.917-1.146-8.887-1.691c-0.688-0.101-1.367-0.261-2.04-0.437
		c-28.293-2.242-53.297,5.346-74.093,25.086c-8.732,8.287-17.191,16.881-23.199,27.502c-5.969,11.592-10.414,23.609-10.551,36.871
		C1452.417,2945.504,1452.206,2947.41,1450.452,2948.654z"/>
	<path fill-rule="evenodd" clip-rule="evenodd" fill="#6366AE" d="M1450.452,2948.654c-0.047-15.34,2.936-29.863,11.551-42.87
		c4.156-6.714,9.213-12.573,15.921-16.891c7.604-0.13,8.027,6.828,11.063,11.212c-1.572,3.891-6.95,3.209-8.52,7.102
		c-2.311,3.459-5.895,5.309-9.475,6.914c-9.104,4.083-13.848,11.365-15.976,20.747c-1.456,4.51-0.818,9.161-1.032,13.752
		c-0.133,2.923,0.591,6.091-2.041,8.421C1450.21,2954.469,1450.499,2951.531,1450.452,2948.654z"/>
	<path fill-rule="evenodd" clip-rule="evenodd" fill="#5C5FAA" d="M1451.944,2957.041c0.704-8.076-1.125-16.315,1.541-24.268
		c5.53-10.273,16.108-10.747,25.656-13.241c5.455,0.713,10.984,0.409,16.441,1.185c2.066,3.324-1.205,3.896-2.822,4.869
		c-3.333,2-6.749,3.887-10.213,5.664c-5.813,1.99-11.892,2.964-17.815,4.549c-6.224,1.67-9.903,5.248-9.362,12.121
		c0,2.652,0.045,5.298,0.039,7.949c-0.135,2.429,0.133,4.975-2.034,6.785C1451.84,2961.053,1451.908,2959.043,1451.944,2957.041z"/>
	<path fill-rule="evenodd" clip-rule="evenodd" fill="#474987" d="M1587.403,3018.197c-31.473,15.652-62.438,14.486-92.904-2.828
		c-0.414-2.246,1.235-2.55,2.776-2.961c2.457-0.223,4.626,0.783,6.845,1.59c22.725,10.439,46.108,11.632,70.047,4.992
		c2.939,0.18,5.637-0.73,8.272-1.908c0.7-0.229,1.418-0.332,2.155-0.334C1585.735,3016.837,1586.737,3017.196,1587.403,3018.197z"/>
	<path fill-rule="evenodd" clip-rule="evenodd" fill="#464887" d="M1587.403,3018.197c-1.096-0.074-2.185-0.146-3.28-0.221
		c0.54-4.451,4.55-5.584,7.56-7.244c6.401-3.525,11.996-7.928,16.941-13.239c2.224-1.953,3.875-4.45,6.057-6.444
		c3.826-1.544,4.158-7.996,9.795-6.999C1615.913,2999.554,1603.401,3010.766,1587.403,3018.197z"/>
	<path fill-rule="evenodd" clip-rule="evenodd" fill="#3B4191" d="M1628.369,2976.92c-0.487,0.518-0.971,1.035-1.458,1.553
		c-2.466-2.602-3.336-8.146-8.986-4.85c-4.418,0.602-8.432,2.438-12.522,4.061c-1.103,0.156-2.117-0.028-2.986-0.773
		c1.647-6.855,8.417-7.256,13.143-9.996c3.544-2.057,7.648-3.328,11.448-5.096c2.222-0.252,3.417,0.921,4.027,2.903
		C1632.37,2969.27,1629.337,2972.868,1628.369,2976.92z"/>
	<path fill-rule="evenodd" clip-rule="evenodd" fill="#494C93" d="M1497.515,3013.719c-1.281,0.049-2.393,0.404-3.016,1.65
		c-3.775-1.628-7.146-3.841-9.98-6.836c-5.668-6.364-12.76-11.406-17.373-18.757c-0.865-1.378-2.081-2.548-1.314-4.374
		c0.496-0.489,1.095-0.766,1.783-0.863c5.062,1.434,5.771,7.076,9.498,9.807c4.756,5.572,10.77,9.691,16.383,14.277
		C1495.171,3009.992,1497.954,3010.63,1497.515,3013.719z"/>
	<path fill-rule="evenodd" clip-rule="evenodd" fill="#3B408C" d="M1618.241,2972.543c1.098-2.324,2.551-2.883,5.095-1.766
		c3.663,1.607,3.415,4.661,3.575,7.695c0.118,0.451,0.014,0.844-0.307,1.186c-5.084,5.444-9.422,0.325-14.032-0.992
		c-0.395-0.55-0.523-1.164-0.423-1.832C1613.313,2974.179,1616.004,2973.686,1618.241,2972.543z"/>
	<path fill-rule="evenodd" clip-rule="evenodd" fill="#3C408A" d="M1612.568,2978.226c4.838-1.053,8.981,4.656,14.036,1.433
		c0.315,1.963-0.909,3.176-2.129,4.393c-4.264,1.445-4.84,6.894-9.076,8.366c-1.29-3.77-0.393-8.22-3.563-11.409
		C1611.626,2979.96,1611.784,2979.009,1612.568,2978.226z"/>
	<path fill-rule="evenodd" clip-rule="evenodd" fill="#565699" d="M1466.253,2985.333c1.824,6.679,7.387,10.485,11.678,15.282
		c2.287,2.555,5.634,4.253,6.588,7.918c-10.648-7.295-18.559-16.91-24.129-28.505c-0.465-1.013-0.566-2.048-0.189-3.114
		C1465.598,2977.289,1465.411,2981.682,1466.253,2985.333z"/>
	<path fill-rule="evenodd" clip-rule="evenodd" fill="#5A5AA0" d="M1460.581,2976.795c-0.062,1.078-0.127,2.156-0.191,3.233
		c-3.59-5.284-6.01-11.041-7.015-17.372c0.036-2.391,0.07-4.783,0.106-7.173c0.603-0.443,1.214-0.452,1.83-0.026
		c1.135,1.345,1.596,2.998,2.133,4.618c0.633,2.259,0.621,4.671,1.687,6.827C1459.925,2970.155,1462.805,2973.107,1460.581,2976.795
		z"/>
	<path fill-rule="evenodd" clip-rule="evenodd" fill="#666CB2" d="M1581.306,2857.504c1.079-0.06,2.158-0.121,3.241-0.18
		c6.97,2.498,13.27,6.096,18.564,11.332c-5.876-0.218-8.88-6.554-14.698-6.902
		C1586.37,2859.793,1582.208,2861.371,1581.306,2857.504z"/>
	<path fill-rule="evenodd" clip-rule="evenodd" fill="#4A51A3" d="M1628.369,2976.92c-0.911-3.967,3.376-7.363,1.261-11.462
		c0.412-0.394,0.77-0.832,1.07-1.313c0.386-1.1,0.463-2.277,0.884-3.368c0.618-1.712,0.72-3.603,1.786-5.159
		c0.505-0.456,1.075-0.532,1.695-0.277l0.479,0.354C1634.726,2963.303,1632.494,2970.432,1628.369,2976.92z"/>
	<path fill-rule="evenodd" clip-rule="evenodd" fill="#565FAB" d="M1636.917,2931.28c-1.307-0.472-1.575-1.559-1.633-2.766
		c-2.569-2.951-2.492-6.85-3.71-10.284c-0.509-2.209-1.382-4.344-1.468-6.648c0.076-0.657,0.314-1.25,0.709-1.781
		c0.62-0.348,1.183-0.272,1.697,0.219C1635.741,2916.742,1637.181,2923.834,1636.917,2931.28z"/>
	<path fill-rule="evenodd" clip-rule="evenodd" fill="#5D67AF" d="M1632.513,2910.02c-0.497,0.009-0.988,0.017-1.484,0.025
		c-3.111-2.547-4.352-6.115-5.388-9.805c-0.05-1.097,0.203-2.088,1.003-2.889l0.416-0.34
		C1629.734,2900.987,1631.937,2905.164,1632.513,2910.02z"/>
	<path fill-rule="evenodd" clip-rule="evenodd" fill="#6068B0" d="M1581.306,2857.504c1.877,2.241,5.51,1.546,7.107,4.25
		c-2.982-0.581-6.18-0.66-8.91-1.832c-12.479-5.355-23.469-1.733-33.615,5.589c-8.531,6.162-16.977,12.379-24.717,19.726
		c-8.776,8.33-20.67,11.574-32.184,14.869c-3.565-0.326-3.836-3.607-4.992-5.891c-1.395-2.763-3.143-4.428-6.367-4.053
		c0.92-6.12,5.525-9.066,10.51-10.989c4.29-1.654,7.949-3.854,11.383-6.848c17.783-15.505,38.495-21.726,61.902-19.091h0.004
		c3.102,1.92,6.82-0.434,9.933,1.432C1574.4,2856.564,1577.806,2857.205,1581.306,2857.504z"/>
	<path fill-rule="evenodd" clip-rule="evenodd" fill="#5862AD" d="M1626.644,2897.352c0.039,0.918,0.078,1.837,0.117,2.756
		c-2.875,0.727-4.283-1.482-5.916-3.076c-4.307-4.212-9.441-4.604-13.303-0.563c-10.778,11.279-24.779,11.598-38.686,12.646
		c-2.354,0.178-4.798-0.243-7.076,0.342c-18.31,4.69-37.509,4.963-55.516,11.222c-3.193,1.111-6.613,2.976-10.178,0.733
		c-5.68,1.396-11.361,0.051-17.043-0.002c-0.319-2.342,1.562-2.646,3.051-3.059c10.639-2.939,20.639-7.612,31.004-11.309
		c16.285-4.914,32.429-10.658,49.229-13.26c12.713-1.971,24.416-4.569,33.856-14.205c4.513-4.607,10.083-2.643,14.956,0.643
		C1616.308,2885.932,1621.476,2891.642,1626.644,2897.352z"/>
	<path fill-rule="evenodd" clip-rule="evenodd" fill="#5A65AE" d="M1611.14,2880.221c-7.666-2.621-13.551-0.897-19.271,5.398
		c-7.427,8.172-18.44,8.244-28.595,9.924c-15.028,2.492-29.424,7.463-43.998,11.707c-2.012,0.584-4.095,0.925-6.143,1.377
		c-0.902-2.84-0.909-5.68,0-8.521c10.034-3.867,20.535-6.846,29.973-11.839c10.832-5.729,22.76-9.427,32.928-15.856
		C1588.589,2864.469,1598.712,2867.068,1611.14,2880.221z"/>
	<path fill-rule="evenodd" clip-rule="evenodd" fill="#5D63AD" d="M1513.134,2900.105c1.779,2.842,1.779,5.682,0,8.521
		c-11.024,5.164-22.545,9.006-34.09,12.783c-9.35,1.913-18.555,4.166-25.559,11.363c3.387-14.439,15.066-20.127,26.982-25.566
		c8.83,0.229,17.016-2.484,25.198-5.357C1508.063,2901.006,1510.64,2900.673,1513.134,2900.105z"/>
	<path fill-rule="evenodd" clip-rule="evenodd" fill="#5159A7" d="M1632.444,2917.148c2.025,3.521,2.918,7.322,2.84,11.366
		c-0.472,0-0.943-0.003-1.418-0.003c-4.56-6.05-10.429-3.736-15.436-1.572c-11.34,4.904-23.303,7.451-35.034,10.949
		c-22.874,6.818-45.924,9.963-69.72,7.371c-6.428-0.697-13.078,2.79-19.405-0.895c-1.267-1.842-1.388-3.826-0.757-5.908
		c0.902-2.222,2.864-3.132,4.959-3.584c10.588-2.283,21.02-5.39,32.162-3.232c9.471,1.834,18.805-0.352,28.06-2.393
		c11.04-2.432,21.817-6.021,33.392-5.859c5.975,0.084,11.334-3.086,16.465-6.063c3.916-2.27,7.947-4.265,12.435-4.968
		C1625.702,2911.619,1630.005,2912.262,1632.444,2917.148z"/>
	<path fill-rule="evenodd" clip-rule="evenodd" fill="#484EA1" d="M1635.065,2955.34c-0.395,0.097-0.791,0.15-1.195,0.164
		c-0.957-0.791-1.582-1.858-1.631-3.034c-0.225-5.294-3.174-5.12-7.271-4.256c-8.399,1.772-16.165,5.151-23.925,8.58
		c-22.754,10.046-46.453,15.972-71.409,14.732c-18.767-0.929-37.663-1.327-56.028-6.316c-3.574-0.971-7.384-1.652-11.17-0.527
		c-2.162,0.202-3.955-0.427-5.188-2.305c-0.431-7.104,1.432-9.397,8.171-8.366c7.664,1.176,15.375,2.266,22.93,4.113
		c7.352,1.879,14.869,2.27,22.398,2.726c34.277,2.073,67.354-2.537,98.709-17.237c6.457-3.031,13.652-3.73,20.411-5.854
		c2.227-0.697,4.219-0.141,5.417,2.117C1635.212,2945.031,1635.136,2950.184,1635.065,2955.34z"/>
	<path fill-rule="evenodd" clip-rule="evenodd" fill="#4E57A6" d="M1494.668,2944.138c15.384-0.686,30.764-0.787,46.147-0.003
		c14.723,0.752,27.938-6.207,42.071-8.229c15.333-2.189,28.874-9.805,43.772-13.21c5.623-1.286,7.291,0.794,7.207,5.815
		c-7.482-0.521-14.451,1.459-21.285,4.244c-19.918,8.112-41.123,11.557-61.836,16.74c-3.844,0.963-8.326-0.827-12.529-1.066
		c-12.187-0.697-24.203,3.277-36.445,1.389c-2.843-0.02-5.684-0.02-8.521,0c-1.42,0-2.842,0-4.262,0
		c-2.351-0.273-5.236,0.725-6.293-2.64C1485.452,2941.316,1490.71,2945.29,1494.668,2944.138z"/>
	<path fill-rule="evenodd" clip-rule="evenodd" fill="#4A51A3" d="M1635.284,2939.877c-9.334-0.664-17.754,2.967-26.16,6.059
		c-24.051,8.849-47.717,18.605-74.303,16.838c-14.441-0.96-29.025,0.656-43.461-1.568c-1.414-0.218-2.836-0.142-3.794-1.443
		c6.259-3.685,13.216-2.45,19.946-2.841c2.821-0.165,5.641,0.402,8.463-0.001c0.946,0,1.891,0,2.841,0
		c24.318,1.302,48.11-1.146,71.017-9.943c9.049-4.305,19.113-6.006,27.905-10.988c4.216-2.387,9.103-1.773,13.655-2.453
		C1636.226,2932.812,1634.976,2937.11,1635.284,2939.877z"/>
	<path fill-rule="evenodd" clip-rule="evenodd" fill="#4C51A3" d="M1515.976,2956.92c-9.332,2.33-18.941,1.875-28.409,2.842
		c-7.937-1.415-15.851-2.994-23.822-4.189c-5.317-0.793-6.351,2.663-5.998,7.022c1.112,1.423,1.239,2.843-0.017,4.259
		c-2.352-1.986-1.065-4.705-1.423-7.095c-1.267-3.302-1.398-6.577,2.071-8.44c4.861-2.611,9.977-3.422,14.986-0.079
		c9.67,4.449,20.126,3.319,30.292,4.247C1507.774,2955.861,1512.079,2954.616,1515.976,2956.92z"/>
	<path fill-rule="evenodd" clip-rule="evenodd" fill="#5155A5" d="M1473.364,2951.239c-2.84,0.001-5.676-0.067-8.513,0.019
		c-5.462,0.166-9.226,2.123-8.545,8.501c-1.663-1.023-1.358-2.701-1.415-4.259c-1.352-8.8,0.424-11.437,9.05-11.471
		c6.524-0.029,13.68-2.928,19.365,2.947c1.212,2.309,4.468,0.537,5.681,2.842c-2.133,2.268-4.638,1.58-7.018,0.705
		C1478.935,2949.408,1476.124,2949.693,1473.364,2951.239z"/>
	<path fill-rule="evenodd" clip-rule="evenodd" fill="#4C51A3" d="M1589.833,2946.977c-11.539,5.376-23.658,8.398-36.288,10.098
		c-9.388,1.266-18.728,1.221-28.108,1.231c-2.256,0.002-4.783,0.786-6.62-1.386c2.765-1.738,5.864-1.545,8.904-1.401
		c19.135,0.903,37.896-0.585,55.849-8.034C1585.409,2946.721,1587.733,2947.12,1589.833,2946.977z"/>
	<path fill-rule="evenodd" clip-rule="evenodd" fill="#5155A5" d="M1493.249,2949.818c2.838-2.154,5.679-2.154,8.521,0
		C1498.928,2951.973,1496.087,2951.973,1493.249,2949.818z"/>
	<path fill-rule="evenodd" clip-rule="evenodd" fill="#666CB2" d="M1561.423,2853.234c-24.576-1.074-46.059,6.244-63.988,23.41
		c-1.482,1.42-3.47,2.955-5.373,3.18c-6.844,0.813-10.703,5.396-14.434,10.338c-6.16,4.256-10.421,10.414-15.625,15.622
		c1.338-8.174,8.728-12.021,13.245-17.818c14.029-18.001,32.819-29.282,55.122-33.898
		C1540.497,2851.973,1550.979,2849.662,1561.423,2853.234z"/>
	<path fill-rule="evenodd" clip-rule="evenodd" fill="#666CB2" d="M1571.359,2854.666c-3.296-0.573-6.946,1.297-9.933-1.432
		C1564.726,2853.793,1568.376,2851.908,1571.359,2854.666z"/>
	<path fill-rule="evenodd" clip-rule="evenodd" fill="#565FAB" d="M1496.087,2921.412c20.832-7.517,42.998-8.876,64.387-13.863
		c6.979-1.629,14.44-1.719,21.67-1.632c8.092,0.097,14.648-2.938,20.467-7.997c10.427-9.069,12.832-9.021,22.389,1.04
		c0.469,0.495,1.168,0.769,1.762,1.147c1.361,3.338,3.807,6.213,4.268,9.938l-0.01,0.006c-0.693,0.168-1.552,0.396-2.021-0.127
		c-6.456-7.199-13.211-4.534-19.59-0.242c-11.634,7.83-24.627,9.89-38.246,10.295c-12.531,0.374-24.487,4.871-37.071,5.461
		c-11.029,0.514-22.17,0.936-32.793,4.639c-4.56,1.341-9.229,2.186-13.952,2.369c-1.999,0.077-5.038,1.294-5.46-2.512
		C1486.622,2927.094,1491.355,2924.252,1496.087,2921.412z"/>
	<path fill-rule="evenodd" clip-rule="evenodd" fill="#575CA9" d="M1481.886,2929.934c6.359,2.189,12.348-0.465,18.465-1.42
		c1.625,2.298-0.098,3.529-1.68,4.436c-3.076,1.764-5.319,4.541-8.27,6.426c-5.354,2.37-11.121,0.957-16.684,1.653
		c-7.178,0.898-14.104,1.84-20.236,5.948c-0.172-6.759,3.128-10.879,9.607-12.496
		C1469.343,2932.92,1475.62,2931.447,1481.886,2929.934z"/>
	<path fill-rule="evenodd" clip-rule="evenodd" fill="#5459A7" d="M1453.481,2946.977c2.885-5.229,7.697-6.804,13.258-7.1
		c7.893-0.422,15.78-0.945,23.668-1.424c1.422-0.996,2.842-1.271,4.261,0.003c0,1.894,0,3.786,0,5.682
		c-1.053,2.259-2.546,2.853-5.014,1.917c-2.114-0.801-4.508-1.221-6.348,0.922c-7.239-2.846-14.78-1.052-22.143-1.102
		c-5.724-0.041-6.853,4.643-6.272,9.625c-0.472,0-0.943-0.006-1.41-0.017C1453.481,2952.648,1453.481,2949.813,1453.481,2946.977z"
		/>
	<path fill-rule="evenodd" clip-rule="evenodd" fill="#393D83" d="M1609.714,2998.11c-4.817,7.217-12.217,11.157-19.396,15.415
		c-2.179,1.293-4.138,2.959-6.195,4.451c-0.465,0.002-0.927,0.01-1.392,0.02c-2.271,1.189-4.875,1.544-7.104,2.837
		c-10.85,1.612-21.396,5.087-32.632,4.346c-13.928-0.918-27.381-3.304-39.807-10c-0.836-0.923-0.824-1.918-0.241-2.958
		c3.735-1.336,6.922,1.152,10.421,1.483c3.411,0.987,6.76,2.175,10.197,3.085c23.643,5.024,45.751,1.494,66.111-11.809
		c4.785-0.023,6.752-5.043,10.91-6.184C1603.647,2998.84,1606.496,2995.987,1609.714,2998.11z"/>
	<path fill-rule="evenodd" clip-rule="evenodd" fill="#3D418D" d="M1503.187,3012.312c0,0.956,0,1.911,0.002,2.867
		c-1.893-0.487-3.782-0.974-5.674-1.46c-7.17-6.08-15.758-10.514-21.31-18.459c-0.944-1.717-2.698-3.162-1.84-5.484
		c3.271-1.574,4.667,1.656,6.927,2.682c4.033,4.059,8.193,7.981,12.838,11.359
		C1497.378,3006.402,1500.639,3008.979,1503.187,3012.312z"/>
	<path fill-rule="evenodd" clip-rule="evenodd" fill="#464887" d="M1575.627,3020.833c1.85-2.248,4.327-2.92,7.104-2.837
		C1580.888,3020.256,1578.407,3020.928,1575.627,3020.833z"/>
	<path fill-rule="evenodd" clip-rule="evenodd" fill="#393D85" d="M1609.714,2998.11c-2.932-0.091-5.344,2.946-8.517,1.421
		c-0.474-7.416,4.649-11.936,8.765-16.985c0.707-0.779,1.537-1.335,2.602-1.479c5.688,2.599,4.148,7.003,2.836,11.35
		C1613.325,2994.138,1612.527,2997.129,1609.714,2998.11z"/>
	<path fill-rule="evenodd" clip-rule="evenodd" fill="#3A3F96" d="M1626.761,2962.604c-4.592,5.917-12.824,5.026-18.141,9.71
		c-1.85,1.63-4.864,1.807-6.005,4.483c-0.694,2.016-2.425,2.633-4.216,3.346c-25.828,10.251-52.624,13.353-80.174,10.969
		c-6.479-2.286-13.319-2.878-20.047-3.688c-8.613-1.038-16.35-4.064-23.715-8.393c-0.932-1.288-2.32-2.515-0.58-4.171
		c6.465-0.679,12.564,1.409,18.707,2.762c29.289,6.449,58.537,5.729,87.674-0.572c11.322-2.449,21.029-9.27,31.771-13.344
		C1616.659,2961.953,1621.567,2958.938,1626.761,2962.604z"/>
	<path fill-rule="evenodd" clip-rule="evenodd" fill="#3D439B" d="M1626.761,2962.604c-8.089-0.352-15.458,2.548-22.211,6.271
		c-28.479,15.693-59.045,16.371-90.307,13.937c-13.943-1.085-27.297-4.698-40.869-7.426c-2.277-0.222-4.379-0.549-2.113-3.507
		c10.479-0.699,20.582,1.897,30.685,3.919c5.12,1.024,10.134,1.987,15.339,1.828c13.882-0.427,27.744,0.214,41.661-0.835
		c18.134-1.369,34.23-8.298,50.397-15.503c4.713-2.101,9.223-4.636,14.717-4.521c7.735,0.162,8.318,0.688,6.959,8.643
		c-0.463,0.018-0.925,0.031-1.391,0.048C1629.558,2963.619,1628.626,2962.641,1626.761,2962.604z"/>
	<path fill-rule="evenodd" clip-rule="evenodd" fill="#353A8D" d="M1517.388,2989.586c17.933,0.273,35.954,0.8,53.557-3.043
		c10.754-2.348,21.128-6.438,31.671-9.745c0.947,0.003,1.897,0.005,2.845,0.007c-0.512,4.524-5.271,4.794-7.546,7.566
		c-16.283,7.959-33.659,11.746-51.599,12.774c-10.322,0.593-20.709,0.214-31.066,0.122c-2.818-0.024-5.689,0.047-8.119-1.791
		c-1.487-1.734-3.429-2.912-5.23-4.28c-1.1-0.833-2.967-1.882-0.884-3.661C1506.493,2988.06,1512.011,2988.249,1517.388,2989.586z"
		/>
	<path fill-rule="evenodd" clip-rule="evenodd" fill="#373C8C" d="M1598.354,2982.487c1.23-3.314,5.332-3.044,7.105-5.683
		c3.575-3.477,7.909-4.671,12.781-4.262c-1.81,1.531-2.94,3.977-5.683,4.262C1608.946,2981.512,1604.919,2985.173,1598.354,2982.487
		z"/>
	<path fill-rule="evenodd" clip-rule="evenodd" fill="#414494" d="M1470.53,2972.546c0.535,1.36,1.482,2.305,2.841,2.84
		c0.472,0.946,0.943,1.896,1.416,2.841c-0.965,3.787,0.302,7.574,0,11.359c0.47,1.893,0.943,3.782,1.418,5.674
		c-4.304-2.057-4.745-7.426-8.52-9.94c-2.457-4.823-7.584-9.345-1.712-15.119C1468.058,2969.881,1470.204,2969.445,1470.53,2972.546
		z"/>
	<path fill-rule="evenodd" clip-rule="evenodd" fill="#484A98" d="M1466.267,2971.123c-3.785,5.158,1.219,9.438,1.419,14.196
		c-0.479,0.005-0.954,0.009-1.433,0.014c-1.891-2.846-3.781-5.69-5.672-8.538c-0.949-3.314-1.898-6.629-2.852-9.941
		c0.006-1.42,0.011-2.84,0.017-4.259c1.419,0.476,2.835,0.951,4.251,1.424c3.207-0.385,3.72,2.368,4.984,4.255
		C1467.224,2969.343,1467.061,2970.312,1466.267,2971.123z"/>
	<path fill-rule="evenodd" clip-rule="evenodd" fill="#353988" d="M1598.354,2982.487c5.565,0.185,9.577-3.519,14.204-5.683
		c0.003,0.475,0.005,0.947,0.01,1.421c0,0.947-0.003,1.895-0.005,2.842c-0.477,0.475-0.952,0.948-1.43,1.423
		c-8.65,4.664-17.486,8.895-27.031,11.454c-9.754,1.358-18.995,5.036-29.035,5.53c-6.274,0.311-12.596,1.588-18.956,1.7
		c-10.423,0.185-17.585,5.591-22.976,13.978c-3.59,0.026-6.739-1.521-9.949-2.841c-4.727-0.394-6.098-5.481-9.944-7.107
		c-2.484-4.267,0.169-6.968,3.036-9.445c3.285-2.842,6.829-4.913,11.174-1.912c0.566,0.399,1.131,1.153,1.693,1.15
		c21.725-0.143,43.523,2.2,64.955-4.343C1582.284,2988.154,1590.464,2985.807,1598.354,2982.487z"/>
	<path fill-rule="evenodd" clip-rule="evenodd" fill="#444A9F" d="M1466.265,2968.283c-1.424-1.422-2.844-2.842-4.268-4.265
		c1.1-2.382,2.718-2.2,5.173-1.94c9.796,1.033,19.194,4.824,28.884,5.236c17.521,0.742,34.908,3.084,52.664,1.547
		c22.476-1.949,42.646-10.188,62.884-18.73c5.938-2.508,12.338-2.902,18.218-5.328c2.758-1.138,3.991,0.145,4.019,2.914
		c0.022,2.595,0.021,5.19,0.032,7.787c-0.203,1.962,0.623,4.18-1.416,5.683c-1.014-4.755-3.633-6.248-8.648-5.66
		c-7.734,0.907-14.628,3.837-21.203,7.499c-15.377,8.567-32.296,12.56-49.334,13.973c-23.41,1.941-46.955,1.206-70.049-4.848
		C1477.653,2970.689,1471.406,2971.932,1466.265,2968.283z"/>
	<path fill-rule="evenodd" clip-rule="evenodd" fill="#3F469C" d="M1466.265,2968.283c13.505,1.486,26.764,5.022,40.206,6.283
		c24.778,2.322,49.502,2.324,73.966-4.84c10.498-3.072,19.925-7.941,29.525-12.541c5.797-2.778,11.789-3.189,17.685-4.243
		c7.2-1.284,3.993,4.974,4.808,8.244c-0.074,1.545,0.225,3.218-1.436,4.224c-0.242-7.045-5.602-9.167-13.492-5.688
		c-15.264,6.73-29.995,15.171-46.83,17.406c-23.375,3.1-46.795,4.813-70.258,0.01c-9.867-2.022-19.934-3.092-29.908-4.593
		c-1.023-1.668-2.701-1.373-4.264-1.423C1466.265,2970.175,1466.265,2969.229,1466.265,2968.283z"/>
	<path fill-rule="evenodd" clip-rule="evenodd" fill="#535DA9" d="M1494.668,2938.456c-1.419-0.001-2.839-0.003-4.261-0.003
		c1.82-4.805,7.692-5.561,9.943-9.939c11.446-5.102,23.889-4.484,35.877-5.311c11.33-0.779,21.979-4.643,33.237-5.262
		c5.401-0.295,10.804-0.539,16.268-1.409c8.96-1.427,16.283-5.042,23.9-9.179c12.288-6.674,12.415-6.436,21.386,2.697
		c0.477,2.367,0.949,4.733,1.426,7.098c-7.186-5.916-14.4-3.15-20.914,0.773c-8.498,5.118-17.162,7.813-27.244,8.057
		c-7.807,0.188-15.553,3.119-23.32,4.844c-11.486,2.546-22.799,4.363-34.824,2.294
		C1515.426,2931.271,1504.893,2935.006,1494.668,2938.456z"/>
	<path fill-rule="evenodd" clip-rule="evenodd" fill="#313884" d="M1513.136,3015.152c-0.422-1.289-1.951-2.854-0.646-3.895
		c5.9-4.712,10.775-11.686,19.243-11.613c11.979,0.104,23.636-2.662,35.534-3.339c5.525-0.317,10.779-4.413,16.887-3.875
		c0.965,1.776,0.057,3.427-0.326,5.119c-1.014,4.259-3.961,5.919-8.076,6.73c-12.952,2.557-25.779,5.518-37.943,10.976
		c-4.527,2.032-9.802,1.864-14.724,2.741C1519.493,3018.014,1516.343,3016.48,1513.136,3015.152z"/>
	<path fill-rule="evenodd" clip-rule="evenodd" fill="#323882" d="M1523.084,3017.997c9.194-4.733,19.39-6.549,29.1-9.751
		c8.411-2.773,16.921-5.742,26.006-6.104c3.022-0.121,3.597-3.143,4.542-5.452c6.336-1.679,7.891-0.124,8.522,8.517
		C1570.674,3020.9,1547.754,3024.109,1523.084,3017.997z"/>
	<path fill-rule="evenodd" clip-rule="evenodd" fill="#343985" d="M1591.254,3005.207c-3.268-2.41-1.381-9.979-8.522-8.517
		c0.475-1.421,0.949-2.839,1.422-4.26c9.373-2.285,17.047-9.177,26.98-9.94c-2.959,5.885-7.747,10.703-9.937,17.041
		C1597.364,3000.518,1596.694,3007.039,1591.254,3005.207z"/>
	<path fill-rule="evenodd" clip-rule="evenodd" fill="#383C8D" d="M1507.452,2993.847c-8.755,0.161-12.821,3.413-14.21,11.357
		c-4.26-3.786-8.519-7.571-12.776-11.356c0.075-5.482,3.059-8.833,8.378-8.285c3.858,0.396,7.972,0.453,11.505,2.611
		C1501.753,2991.267,1506.976,2989.589,1507.452,2993.847z"/>
	<path fill-rule="evenodd" clip-rule="evenodd" fill="#3B3F90" d="M1500.349,2988.174c-2.762-0.017-5.43-0.433-8.169-0.978
		c-5.485-1.094-10.055,0.487-11.714,6.651c-1.895-1.42-3.789-2.842-5.679-4.262c-1.722-3.787-5.177-7.575,0-11.359
		c12.509,6.023,26.077,7.816,39.571,9.947c1.059,0.166,2.023,0.928,3.029,1.412
		C1511.644,2989.875,1505.956,2989.48,1500.349,2988.174z"/>
</g>
</svg>
