<svg xmlns="http://www.w3.org/2000/svg" width="464.163" height="446.708" viewBox="0 0 464.163 446.708">
  <g id="Groupe_29" data-name="Groupe 29" transform="translate(-1610.562 2522.915)">
    <path id="Tracé_51" data-name="Tracé 51" d="M1988.94-2471.711c25.993,17.943,45.175,41.634,58.994,69.857-.669.5-1.334,1-2.005,1.493-16.655-11.173-28.482-27.172-41.767-41.731-27.254-29.615-45.263-31.459-81.366-15.43-41.919,18.606-82.271,40.548-125,57.387-10.359,4.082-21.114,6.406-31.683,9.592-18.654,5.678-36.694,13.376-56.108,16.424-7.381,1.156-14.7,3.029-21.884-.707-5.233-5.924.136-8.988,3.677-11.935,4.672-3.893,10.2-6.661,15.257-10.066,12.793-5.407,25.731-10.48,38.716-15.427,14.747-5.619,29.162-12.288,40.273-23.527,16.016-16.2,34.732-28.717,52.609-42.51,30.829-23.79,63.306-32.715,100.565-17.631a57.382,57.382,0,0,0,13.3,3.971C1966.6-2488.71,1976.171-2477.329,1988.94-2471.711Z" fill="#5d67af" fill-rule="evenodd"/>
    <path id="Tracé_52" data-name="Tracé 52" d="M2072.217-2317.428c5.079,20.4,1.674,40.321-3.385,60.148-.767-.628-1.531-1.261-2.311-1.886-5.416-11.143-2.065-23.1-3.262-34.624,1.444-9.853-2.529-13.462-12.6-12.478a100.094,100.094,0,0,0-33.271,8.971c-20.449,9.59-42.108,15.887-63.554,22.853-17.452,2-33.443,9.28-50.187,13.8-27.784,7.5-56.01,8.372-84.5,7.782-12.123-.25-24.391-1.322-36.329,2.226a31.829,31.829,0,0,1-9.039.106c-22.132-4.3-44.7-2.244-66.986-4.5-13.641-1.379-27.531-1.021-38.324-11.506,3.221-10.5,11.744-9.446,19.639-8.4,6.261.834,12.361,2.4,18.607.309a28.821,28.821,0,0,1,11.07-.163c7.979,2.611,15.892,1.975,23.774-.56,38.211,1.435,75.948-7.9,114.562-3.2,17.976,2.185,36.418-6,54.35-10.763,38.083-10.126,76.8-17.993,113.337-33.59,11.67-4.982,24.477-7.388,37.53-5.546a16.666,16.666,0,0,1,5.359,1.858C2070.561-2324.764,2068.706-2319.486,2072.217-2317.428Z" fill="#4d54a5" fill-rule="evenodd"/>
    <path id="Tracé_53" data-name="Tracé 53" d="M1612.837-2274.621c-9.469-64.913,11.093-120.983,52.893-169.363,65.448-75.75,180.116-100.12,271.713-59.348a43.988,43.988,0,0,1,5.759,3.7,8.786,8.786,0,0,1-7.12,3.64c-9.107.138-16.721-5.99-25.745-6.178-6.753-4.137-14.575-2.818-21.888-4.164a46.648,46.648,0,0,1-5.029-1.074c-69.707-5.524-131.305,13.17-182.54,61.8-21.511,20.421-42.348,41.588-57.155,67.755-14.7,28.56-25.654,58.163-25.995,90.839C1617.68-2282.387,1617.151-2277.69,1612.837-2274.621Z" fill="#686db2" fill-rule="evenodd"/>
    <path id="Tracé_54" data-name="Tracé 54" d="M1612.837-2274.621c-.114-37.793,7.23-73.574,28.45-105.619,10.241-16.537,22.7-30.979,39.23-41.612,18.733-.322,19.775,16.823,27.255,27.621-3.867,9.585-17.125,7.907-20.992,17.494-5.689,8.526-14.514,13.081-23.339,17.04-22.427,10.056-34.117,28-39.359,51.107-3.588,11.112-2.019,22.572-2.54,33.883-.332,7.2,1.45,15.006-5.034,20.748C1612.235-2260.3,1612.95-2267.537,1612.837-2274.621Z" fill="#6366ae" fill-rule="evenodd"/>
    <path id="Tracé_55" data-name="Tracé 55" d="M1616.508-2253.959c1.74-19.9-2.765-40.2,3.8-59.791,13.621-25.31,39.679-26.477,63.205-32.621,13.436,1.757,27.062,1.01,40.5,2.917,5.1,8.193-2.963,9.6-6.953,12-8.206,4.928-16.624,9.574-25.156,13.952-14.321,4.905-29.294,7.3-43.89,11.21-15.335,4.109-24.4,12.93-23.07,29.861,0,6.537.116,13.051.1,19.582-.332,5.983.327,12.254-5.012,16.717C1616.253-2244.078,1616.422-2249.027,1616.508-2253.959Z" fill="#5c5faa" fill-rule="evenodd"/>
    <path id="Tracé_56" data-name="Tracé 56" d="M1950.235-2103.295c-77.54,38.565-153.82,35.692-228.885-6.967-1.02-5.533,3.039-6.282,6.838-7.295,6.056-.55,11.4,1.928,16.865,3.917,55.987,25.722,113.6,28.656,172.573,12.3,7.239.443,13.882-1.8,20.378-4.7a17.309,17.309,0,0,1,5.31-.824C1946.121-2106.647,1948.592-2105.761,1950.235-2103.295Z" fill="#474987" fill-rule="evenodd"/>
    <path id="Tracé_57" data-name="Tracé 57" d="M1950.235-2103.295q-4.047-.269-8.082-.541c1.331-10.968,11.2-13.763,18.623-17.852a165.556,165.556,0,0,0,41.736-32.617c5.481-4.808,9.548-10.96,14.929-15.874,9.422-3.8,10.243-19.7,24.128-17.242C2020.475-2149.227,1989.648-2121.6,1950.235-2103.295Z" fill="#464887" fill-rule="evenodd"/>
    <path id="Tracé_58" data-name="Tracé 58" d="M2051.16-2204.99c-1.2,1.275-2.392,2.552-3.59,3.829-6.075-6.411-8.22-20.069-22.14-11.952-10.885,1.486-20.78,6.009-30.852,10.008a8.852,8.852,0,0,1-7.363-1.907c4.069-16.886,20.742-17.877,32.386-24.629,8.727-5.063,18.842-8.195,28.2-12.554,5.475-.619,8.417,2.273,9.923,7.154C2061.021-2223.834,2053.547-2214.969,2051.16-2204.99Z" fill="#3b4191" fill-rule="evenodd"/>
    <path id="Tracé_59" data-name="Tracé 59" d="M1728.776-2114.33c-3.149.123-5.891,1-7.426,4.07a73.277,73.277,0,0,1-24.592-16.843c-13.959-15.677-31.426-28.1-42.8-46.211-2.133-3.393-5.125-6.274-3.241-10.773a7.611,7.611,0,0,1,4.4-2.13c12.467,3.532,14.217,17.434,23.4,24.16,11.711,13.728,26.526,23.879,40.358,35.176C1723.007-2123.51,1729.861-2121.938,1728.776-2114.33Z" fill="#494c93" fill-rule="evenodd"/>
    <path id="Tracé_60" data-name="Tracé 60" d="M2026.208-2215.77c2.708-5.726,6.282-7.1,12.554-4.349,9.021,3.957,8.412,11.485,8.808,18.958a2.949,2.949,0,0,1-.75,2.919c-12.531,13.416-23.219.8-34.577-2.445a5.945,5.945,0,0,1-1.047-4.508C2014.063-2211.74,2020.7-2212.955,2026.208-2215.77Z" fill="#3b408c" fill-rule="evenodd"/>
    <path id="Tracé_61" data-name="Tracé 61" d="M2012.23-2201.771c11.918-2.592,22.131,11.471,34.59,3.531.772,4.834-2.247,7.822-5.256,10.822-10.5,3.56-11.919,16.98-22.359,20.613-3.174-9.288-.965-20.253-8.775-28.109A7.073,7.073,0,0,1,2012.23-2201.771Z" fill="#3c408a" fill-rule="evenodd"/>
    <path id="Tracé_62" data-name="Tracé 62" d="M1651.762-2184.26c4.5,16.454,18.2,25.83,28.771,37.651,5.634,6.293,13.879,10.478,16.225,19.506-26.235-17.971-45.72-41.657-59.444-70.227a9.865,9.865,0,0,1-.466-7.668C1650.148-2204.076,1649.688-2193.257,1651.762-2184.26Z" fill="#565699" fill-rule="evenodd"/>
    <path id="Tracé_63" data-name="Tracé 63" d="M1637.794-2205.295q-.232,3.984-.474,7.965a104.716,104.716,0,0,1-17.286-42.8q.133-8.84.261-17.674a3.562,3.562,0,0,1,4.51-.06c2.792,3.31,3.931,7.382,5.258,11.374,1.551,5.564,1.529,11.509,4.156,16.821C1636.174-2221.654,1643.27-2214.381,1637.794-2205.295Z" fill="#5a5aa0" fill-rule="evenodd"/>
    <path id="Tracé_64" data-name="Tracé 64" d="M1935.212-2499.185l7.985-.447c17.172,6.159,32.686,15.02,45.739,27.921-14.477-.535-21.881-16.144-36.214-17C1947.688-2493.548,1937.438-2489.658,1935.212-2499.185Z" fill="#666cb2" fill-rule="evenodd"/>
    <path id="Tracé_65" data-name="Tracé 65" d="M2051.16-2204.99c-2.244-9.772,8.322-18.138,3.106-28.236a16.822,16.822,0,0,0,2.638-3.236c.949-2.708,1.14-5.612,2.177-8.3,1.523-4.216,1.776-8.874,4.4-12.71a3.7,3.7,0,0,1,4.173-.686l1.176.875C2066.822-2238.537,2061.326-2220.973,2051.16-2204.99Z" fill="#4a51a3" fill-rule="evenodd"/>
    <path id="Tracé_66" data-name="Tracé 66" d="M2072.217-2317.428c-3.217-1.164-3.879-3.836-4.021-6.812-6.333-7.272-6.143-16.875-9.137-25.34-1.254-5.443-3.408-10.695-3.621-16.375a8.974,8.974,0,0,1,1.75-4.391,3.231,3.231,0,0,1,4.18.541A110.169,110.169,0,0,1,2072.217-2317.428Z" fill="#565fab" fill-rule="evenodd"/>
    <path id="Tracé_67" data-name="Tracé 67" d="M2061.368-2369.8c-1.221.022-2.437.04-3.657.062-7.662-6.272-10.721-15.07-13.276-24.156a8.988,8.988,0,0,1,2.474-7.118l1.025-.837C2054.525-2392.058,2059.946-2381.77,2061.368-2369.8Z" fill="#5d67af" fill-rule="evenodd"/>
    <path id="Tracé_68" data-name="Tracé 68" d="M1935.212-2499.185c4.624,5.521,13.571,3.806,17.51,10.471-7.347-1.434-15.223-1.628-21.949-4.514-30.752-13.2-57.824-4.27-82.815,13.769-21.022,15.182-41.833,30.5-60.9,48.6-21.62,20.519-50.916,28.517-79.287,36.632-8.786-.806-9.45-8.886-12.3-14.514-3.44-6.8-7.74-10.9-15.686-9.982,2.268-15.076,13.612-22.336,25.894-27.074a91.927,91.927,0,0,0,28.038-16.871c43.815-38.2,94.839-53.522,152.51-47.035l.007,0c7.644,4.73,16.806-1.068,24.47,3.529C1918.2-2501.5,1926.586-2499.924,1935.212-2499.185Z" fill="#6068b0" fill-rule="evenodd"/>
    <path id="Tracé_69" data-name="Tracé 69" d="M2046.909-2401.017q.142,3.395.291,6.788c-7.089,1.792-10.552-3.646-14.574-7.576-10.619-10.375-23.266-11.342-32.778-1.386-26.551,27.787-61.043,28.574-95.308,31.156-5.8.438-11.815-.6-17.431.843-45.109,11.555-92.408,12.225-136.771,27.649-7.871,2.734-16.3,7.325-25.07,1.8-14,3.439-27.993.129-41.987,0-.793-5.77,3.837-6.52,7.505-7.535,26.214-7.242,50.856-18.751,76.386-27.859,40.123-12.106,79.892-26.259,121.288-32.672,31.314-4.85,60.153-11.255,83.405-34.995,11.121-11.35,24.838-6.505,36.849,1.586Q2027.81-2422.115,2046.909-2401.017Z" fill="#5862ad" fill-rule="evenodd"/>
    <path id="Tracé_70" data-name="Tracé 70" d="M2008.714-2443.219c-18.889-6.458-33.38-2.214-47.478,13.3-18.295,20.136-45.428,20.312-70.445,24.452-37.027,6.133-72.49,18.387-108.4,28.84-4.957,1.441-10.086,2.277-15.135,3.393a33.736,33.736,0,0,1,0-20.995c24.718-9.527,50.6-16.865,73.843-29.167,26.688-14.115,56.071-23.221,81.124-39.067C1953.154-2482.027,1978.09-2475.621,2008.714-2443.219Z" fill="#5a65ae" fill-rule="evenodd"/>
    <path id="Tracé_71" data-name="Tracé 71" d="M1767.258-2394.231q6.586,10.5,0,20.995c-27.155,12.723-55.539,22.185-83.977,31.492-23.042,4.715-45.717,10.264-62.972,27.994,8.343-35.572,37.12-49.584,66.471-62.987,21.755.565,41.927-6.12,62.082-13.2C1754.77-2392.009,1761.116-2392.832,1767.258-2394.231Z" fill="#5d63ad" fill-rule="evenodd"/>
    <path id="Tracé_72" data-name="Tracé 72" d="M2061.2-2352.24a52.991,52.991,0,0,1,7,28c-1.164,0-2.325-.006-3.493-.007-11.234-14.907-25.694-9.21-38.031-3.876-27.93,12.081-57.406,18.357-86.312,26.975-56.347,16.8-113.135,24.55-171.765,18.165-15.827-1.722-32.216,6.872-47.806-2.208-3.121-4.536-3.421-9.426-1.862-14.553,2.222-5.476,7.053-7.717,12.218-8.832,26.085-5.626,51.785-13.277,79.238-7.961,23.324,4.515,46.321-.871,69.127-5.9,27.195-5.991,53.75-14.832,82.264-14.435,14.722.2,27.919-7.6,40.56-14.934,9.648-5.6,19.577-10.507,30.639-12.241C2044.59-2365.866,2055.186-2364.281,2061.2-2352.24Z" fill="#5159a7" fill-rule="evenodd"/>
    <path id="Tracé_73" data-name="Tracé 73" d="M2067.656-2258.155a13.867,13.867,0,0,1-2.944.406,10.4,10.4,0,0,1-4.023-7.475c-.552-13.04-7.813-12.617-17.908-10.485-20.693,4.365-39.823,12.692-58.941,21.138-56.056,24.75-114.444,39.346-175.927,36.3-46.235-2.292-92.791-3.272-138.034-15.563-8.805-2.393-18.19-4.07-27.516-1.3-5.326.5-9.746-1.053-12.783-5.679-1.062-17.5,3.525-23.153,20.131-20.61,18.879,2.9,37.873,5.578,56.489,10.135,18.11,4.625,36.63,5.592,55.177,6.712,84.449,5.108,165.943-6.251,243.189-42.468,15.909-7.461,33.635-9.189,50.288-14.417,5.485-1.722,10.393-.347,13.342,5.214Q2067.926-2277.2,2067.656-2258.155Z" fill="#484ea1" fill-rule="evenodd"/>
    <path id="Tracé_74" data-name="Tracé 74" d="M1721.769-2285.752c37.9-1.688,75.789-1.938,113.688,0,36.269,1.85,68.833-15.295,103.652-20.273,37.772-5.4,71.138-24.155,107.84-32.545,13.853-3.17,17.964,1.955,17.754,14.327-18.433-1.284-35.609,3.6-52.44,10.452-49.073,19.989-101.316,28.476-152.339,41.248-9.473,2.369-20.517-2.04-30.871-2.632-30.024-1.718-59.629,8.076-89.785,3.422q-10.506-.069-21,0h-10.5c-5.793-.673-12.9,1.784-15.5-6.5C1699.065-2292.7,1712.02-2282.912,1721.769-2285.752Z" fill="#4e57a6" fill-rule="evenodd"/>
    <path id="Tracé_75" data-name="Tracé 75" d="M2068.2-2296.248c-23-1.636-43.737,7.309-64.45,14.926-59.249,21.8-117.558,45.838-183.058,41.483-35.576-2.366-71.5,1.614-107.074-3.864-3.475-.535-6.983-.35-9.343-3.557,15.42-9.078,32.56-6.034,49.139-7,6.95-.406,13.9.989,20.852,0h7c59.912,3.205,118.53-2.826,174.962-24.494,22.294-10.6,47.091-14.8,68.748-27.073,10.386-5.883,22.426-4.368,33.643-6.046C2070.518-2313.653,2067.437-2303.063,2068.2-2296.248Z" fill="#4a51a3" fill-rule="evenodd"/>
    <path id="Tracé_76" data-name="Tracé 76" d="M1774.262-2254.26c-22.991,5.74-46.666,4.619-69.991,7-19.553-3.484-39.046-7.376-58.687-10.317-13.1-1.96-15.65,6.558-14.778,17.3,2.741,3.506,3.051,7.006-.038,10.49-5.8-4.9-2.633-11.592-3.512-17.477-3.121-8.134-3.443-16.2,5.106-20.794,11.972-6.431,24.576-8.428,36.921-.2,23.822,10.965,49.584,8.177,74.629,10.461C1754.061-2256.87,1764.66-2259.934,1774.262-2254.26Z" fill="#4c51a3" fill-rule="evenodd"/>
    <path id="Tracé_77" data-name="Tracé 77" d="M1669.283-2268.256c-6.995.005-13.986-.166-20.97.048-13.456.41-22.729,5.229-21.057,20.942-4.1-2.521-3.348-6.657-3.485-10.493-3.329-21.679,1.042-28.173,22.3-28.263,16.076-.067,33.7-7.209,47.705,7.268,2.99,5.684,11.007,1.316,14,7-5.251,5.588-11.424,3.892-17.289,1.739A24.118,24.118,0,0,0,1669.283-2268.256Z" fill="#5155a5" fill-rule="evenodd"/>
    <path id="Tracé_78" data-name="Tracé 78" d="M1956.221-2278.754c-28.428,13.24-58.284,20.686-89.4,24.877-23.128,3.113-46.135,3-69.247,3.03-5.561,0-11.777,1.941-16.312-3.413,6.814-4.281,14.45-3.806,21.936-3.453,47.142,2.225,93.364-1.445,137.592-19.791C1945.324-2279.388,1951.048-2278.4,1956.221-2278.754Z" fill="#4c51a3" fill-rule="evenodd"/>
    <path id="Tracé_79" data-name="Tracé 79" d="M1718.27-2271.757q10.5-7.959,21,0Q1728.762-2263.791,1718.27-2271.757Z" fill="#5155a5" fill-rule="evenodd"/>
    <path id="Tracé_80" data-name="Tracé 80" d="M1886.23-2509.707c-60.548-2.645-113.477,15.385-157.645,57.678-3.653,3.5-8.547,7.28-13.235,7.834-16.863,2-26.374,13.3-35.562,25.468-15.18,10.485-25.673,25.656-38.5,38.487,3.3-20.139,21.5-29.615,32.635-43.9,34.563-44.35,80.857-72.14,135.8-83.513C1834.678-2512.816,1860.5-2518.507,1886.23-2509.707Z" fill="#666cb2" fill-rule="evenodd"/>
    <path id="Tracé_81" data-name="Tracé 81" d="M1910.707-2506.176c-8.124-1.416-17.11,3.2-24.47-3.529C1894.363-2508.329,1903.357-2512.972,1910.707-2506.176Z" fill="#666cb2" fill-rule="evenodd"/>
    <path id="Tracé_82" data-name="Tracé 82" d="M1725.268-2341.741c51.316-18.516,105.924-21.863,158.618-34.155,17.2-4.012,35.575-4.232,53.393-4.018,19.932.239,36.09-7.239,50.423-19.7,25.689-22.34,31.611-22.221,55.157,2.566,1.151,1.219,2.878,1.9,4.341,2.824,3.347,8.227,9.371,15.309,10.511,24.486l-.025.016c-1.707.412-3.825.972-4.979-.315-15.9-17.737-32.546-11.17-48.263-.595-28.661,19.289-60.669,24.361-94.223,25.36-30.873.921-60.331,12-91.326,13.453-27.181,1.268-54.626,2.308-80.789,11.431a141.268,141.268,0,0,1-34.38,5.836c-4.921.192-12.413,3.188-13.451-6.19Q1707.777-2331.242,1725.268-2341.741Z" fill="#565fab" fill-rule="evenodd"/>
    <path id="Tracé_83" data-name="Tracé 83" d="M1690.275-2320.747c15.668,5.393,30.42-1.14,45.495-3.495,4,5.658-.243,8.693-4.143,10.927-7.574,4.342-13.1,11.188-20.377,15.831-13.184,5.837-27.4,2.357-41.094,4.072-17.684,2.215-34.75,4.535-49.861,14.656-.419-16.65,7.713-26.807,23.671-30.787C1659.374-2313.389,1674.836-2317.02,1690.275-2320.747Z" fill="#575ca9" fill-rule="evenodd"/>
    <path id="Tracé_84" data-name="Tracé 84" d="M1620.3-2278.756c7.11-12.882,18.967-16.764,32.664-17.494,19.443-1.039,38.875-2.324,58.312-3.5,3.5-2.455,7-3.134,10.5.006v14c-2.6,5.567-6.272,7.028-12.355,4.725-5.207-1.975-11.1-3.006-15.64,2.273-17.832-7.016-36.415-2.594-54.545-2.717-14.1-.1-16.886,11.44-15.458,23.712-1.159,0-2.32-.014-3.476-.042Z" fill="#5459a7" fill-rule="evenodd"/>
    <path id="Tracé_85" data-name="Tracé 85" d="M2005.2-2152.781c-11.866,17.78-30.1,27.49-47.788,37.977-5.368,3.184-10.191,7.287-15.263,10.968-1.145.006-2.287.023-3.425.045-5.6,2.93-12.015,3.807-17.509,6.989-26.729,3.975-52.7,12.534-80.39,10.708-34.313-2.261-67.457-8.138-98.068-24.637-2.063-2.275-2.03-4.724-.6-7.289,9.2-3.29,17.054,2.84,25.672,3.656,8.406,2.432,16.654,5.36,25.122,7.6,58.248,12.381,112.717,3.683,162.879-29.09,11.783-.058,16.638-12.423,26.879-15.232C1990.252-2150.98,1997.277-2158.012,2005.2-2152.781Z" fill="#393d83" fill-rule="evenodd"/>
    <path id="Tracé_86" data-name="Tracé 86" d="M1742.758-2117.794q0,3.532,0,7.063-6.992-1.8-13.985-3.6c-17.657-14.975-38.819-25.9-52.495-45.477-2.323-4.226-6.651-7.787-4.533-13.509,8.054-3.879,11.495,4.08,17.062,6.607,9.938,10,20.188,19.666,31.632,27.986C1728.446-2132.355,1736.479-2126,1742.758-2117.794Z" fill="#3d418d" fill-rule="evenodd"/>
    <path id="Tracé_87" data-name="Tracé 87" d="M1921.219-2096.8c4.557-5.538,10.66-7.194,17.509-6.989C1934.18-2098.224,1928.075-2096.566,1921.219-2096.8Z" fill="#464887" fill-rule="evenodd"/>
    <path id="Tracé_88" data-name="Tracé 88" d="M2005.2-2152.781c-7.228-.223-13.169,7.259-20.987,3.5-1.17-18.27,11.453-29.4,21.595-41.846a10.431,10.431,0,0,1,6.41-3.643c14.01,6.405,10.217,17.254,6.983,27.965C2014.1-2162.57,2012.129-2155.2,2005.2-2152.781Z" fill="#393d85" fill-rule="evenodd"/>
    <path id="Tracé_89" data-name="Tracé 89" d="M2047.2-2240.255c-11.316,14.58-31.6,12.382-44.7,23.922-4.556,4.016-11.983,4.452-14.794,11.046-1.707,4.965-5.966,6.486-10.386,8.24-63.63,25.256-129.643,32.9-197.515,27.024-15.966-5.63-32.815-7.086-49.388-9.084-21.226-2.557-40.284-10.014-58.432-20.677-2.293-3.169-5.715-6.2-1.43-10.276,15.93-1.669,30.957,3.474,46.086,6.806,72.163,15.889,144.224,14.111,216-1.411,27.888-6.033,51.812-22.834,78.277-32.872C2022.315-2241.859,2034.406-2249.287,2047.2-2240.255Z" fill="#3a3f96" fill-rule="evenodd"/>
    <path id="Tracé_90" data-name="Tracé 90" d="M2047.2-2240.255c-19.93-.868-38.087,6.276-54.724,15.445-70.162,38.665-145.464,40.335-222.484,34.338-34.351-2.675-67.248-11.575-100.687-18.3-5.608-.545-10.785-1.348-5.2-8.639,25.815-1.72,50.708,4.677,75.6,9.658,12.615,2.521,24.963,4.9,37.788,4.5,34.2-1.049,68.351.527,102.641-2.058,44.675-3.37,84.331-20.442,124.158-38.192,11.613-5.177,22.725-11.423,36.26-11.138,19.057.4,20.488,1.7,17.142,21.292-1.136.043-2.282.081-3.423.118C2054.086-2237.758,2051.792-2240.165,2047.2-2240.255Z" fill="#3d439b" fill-rule="evenodd"/>
    <path id="Tracé_91" data-name="Tracé 91" d="M1777.741-2173.781c44.178.674,88.578,1.968,131.945-7.5,26.49-5.787,52.048-15.862,78.024-24.009q3.506.006,7.009.015c-1.259,11.146-12.987,11.811-18.592,18.64-40.114,19.612-82.926,28.941-127.116,31.474-25.434,1.457-51.024.527-76.54.3-6.943-.062-14.015.113-20-4.417-3.669-4.269-8.449-7.171-12.888-10.541-2.707-2.056-7.311-4.636-2.177-9.021C1750.9-2177.543,1764.5-2177.076,1777.741-2173.781Z" fill="#353a8d" fill-rule="evenodd"/>
    <path id="Tracé_92" data-name="Tracé 92" d="M1977.215-2191.27c3.035-8.167,13.138-7.5,17.5-14,8.81-8.564,19.487-11.505,31.489-10.5-4.462,3.775-7.236,9.8-14,10.5C2003.313-2193.673,1993.391-2184.655,1977.215-2191.27Z" fill="#373c8c" fill-rule="evenodd"/>
    <path id="Tracé_93" data-name="Tracé 93" d="M1662.3-2215.764a11.9,11.9,0,0,0,7,6.995q1.742,3.5,3.49,7c-2.379,9.328.735,18.66-.008,27.986q1.746,6.99,3.5,13.974c-10.607-5.067-11.694-18.291-20.99-24.485-6.051-11.884-18.686-23.024-4.217-37.249C1656.209-2222.328,1661.5-2223.4,1662.3-2215.764Z" fill="#414494" fill-rule="evenodd"/>
    <path id="Tracé_94" data-name="Tracé 94" d="M1651.8-2219.268c-9.329,12.706,3,23.251,3.493,34.976-1.178.011-2.353.019-3.529.032q-6.987-10.518-13.968-21.035-3.514-12.245-7.026-24.494.014-5.244.038-10.49l10.475,3.509c7.9-.949,9.158,5.836,12.274,10.483A7.122,7.122,0,0,1,1651.8-2219.268Z" fill="#484a98" fill-rule="evenodd"/>
    <path id="Tracé_95" data-name="Tracé 95" d="M1977.215-2191.27c13.711.452,23.6-8.67,34.992-14q.012,1.748.023,3.5,0,3.5-.008,7l-3.521,3.505c-21.312,11.492-43.081,21.915-66.6,28.218-24.033,3.351-46.8,12.408-71.533,13.627-15.462.765-31.031,3.912-46.7,4.19-25.676.454-43.326,13.77-56.6,34.433-8.849.065-16.6-3.746-24.508-7-11.645-.97-15.027-13.506-24.5-17.511-6.121-10.511.415-17.164,7.477-23.27,8.095-7,16.829-12.1,27.53-4.71,1.4.985,2.789,2.842,4.177,2.833,53.516-.349,107.218,5.423,160.017-10.7C1937.621-2177.31,1957.779-2183.095,1977.215-2191.27Z" fill="#353988" fill-rule="evenodd"/>
    <path id="Tracé_96" data-name="Tracé 96" d="M1651.79-2226.266l-10.509-10.5c2.706-5.868,6.691-5.421,12.742-4.781,24.135,2.543,47.282,11.885,71.164,12.9,43.164,1.832,86,7.6,129.744,3.809,55.365-4.8,105.063-25.1,154.917-46.145,14.632-6.176,30.4-7.147,44.882-13.124,6.793-2.8,9.836.356,9.9,7.18.057,6.393.053,12.785.081,19.183-.5,4.834,1.535,10.3-3.487,14-2.5-11.717-8.954-15.4-21.305-13.949-19.051,2.234-36.041,9.451-52.237,18.476-37.889,21.11-79.567,30.943-121.546,34.425-57.674,4.784-115.68,2.971-172.573-11.945C1679.851-2220.335,1664.453-2217.275,1651.79-2226.266Z" fill="#444a9f" fill-rule="evenodd"/>
    <path id="Tracé_97" data-name="Tracé 97" d="M1651.79-2226.266c33.274,3.662,65.939,12.374,99.05,15.479,61.051,5.722,121.961,5.727,182.233-11.922,25.86-7.572,49.089-19.564,72.739-30.9,14.28-6.844,29.043-7.86,43.571-10.453,17.74-3.165,9.837,12.251,11.842,20.312-.184,3.805.552,7.926-3.539,10.4-.6-17.353-13.793-22.584-33.242-14.01-37.6,16.581-73.9,37.375-115.372,42.88-57.582,7.636-115.285,11.861-173.085.025-24.319-4.982-49.11-7.614-73.687-11.315-2.52-4.109-6.655-3.384-10.5-3.5Q1651.79-2222.769,1651.79-2226.266Z" fill="#3f469c" fill-rule="evenodd"/>
    <path id="Tracé_98" data-name="Tracé 98" d="M1721.769-2299.748q-5.249,0-10.5-.006c4.489-11.838,18.954-13.7,24.5-24.488,28.195-12.573,58.855-11.046,88.388-13.081,27.906-1.921,54.142-11.442,81.881-12.965,13.309-.73,26.618-1.331,40.079-3.474,22.071-3.514,40.112-12.423,58.878-22.612,30.277-16.441,30.591-15.855,52.69,6.647q1.763,8.745,3.513,17.487c-17.7-14.578-35.47-7.766-51.525,1.9-20.939,12.608-42.282,19.247-67.115,19.85-19.238.463-38.318,7.683-57.456,11.929-28.3,6.276-56.172,10.755-85.8,5.656C1772.908-2317.447,1746.958-2308.25,1721.769-2299.748Z" fill="#535da9" fill-rule="evenodd"/>
    <path id="Tracé_99" data-name="Tracé 99" d="M1767.266-2110.8c-1.037-3.176-4.809-7.027-1.594-9.592,14.541-11.611,26.551-28.791,47.411-28.61,29.51.252,58.224-6.561,87.54-8.23,13.611-.779,26.559-10.871,41.6-9.544,2.379,4.375.139,8.442-.8,12.611-2.495,10.492-9.761,14.58-19.9,16.58-31.907,6.3-63.505,13.6-93.477,27.042-11.156,5.007-24.144,4.593-36.276,6.752C1782.925-2103.748,1775.168-2107.523,1767.266-2110.8Z" fill="#313884" fill-rule="evenodd"/>
    <path id="Tracé_100" data-name="Tracé 100" d="M1791.771-2103.788c22.655-11.657,47.778-16.134,71.7-24.021,20.715-6.834,41.685-14.15,64.068-15.04,7.447-.3,8.86-7.74,11.193-13.43,15.6-4.137,19.433-.309,20.992,20.984C1909.02-2096.635,1852.552-2088.727,1791.771-2103.788Z" fill="#323882" fill-rule="evenodd"/>
    <path id="Tracé_101" data-name="Tracé 101" d="M1959.72-2135.295c-8.054-5.941-3.4-24.588-20.992-20.984q1.75-5.249,3.5-10.494c23.094-5.631,42-22.608,66.475-24.492-7.3,14.5-19.094,26.37-24.484,41.984C1974.777-2146.851,1973.125-2130.785,1959.72-2135.295Z" fill="#343985" fill-rule="evenodd"/>
    <path id="Tracé_102" data-name="Tracé 102" d="M1753.263-2163.285c-21.567.394-31.589,8.4-35.007,27.98q-15.745-13.987-31.479-27.978c.186-13.506,7.536-21.762,20.637-20.412,9.513.976,19.641,1.118,28.346,6.432C1739.226-2169.641,1752.087-2173.777,1753.263-2163.285Z" fill="#383c8d" fill-rule="evenodd"/>
    <path id="Tracé_103" data-name="Tracé 103" d="M1735.76-2177.263a105.594,105.594,0,0,1-20.121-2.407c-13.519-2.693-24.776,1.2-28.862,16.387q-7-5.25-13.995-10.5c-4.239-9.33-12.748-18.662.008-27.986,30.819,14.837,64.246,19.257,97.484,24.5,2.606.409,4.986,2.284,7.467,3.482A150.8,150.8,0,0,1,1735.76-2177.263Z" fill="#3b3f90" fill-rule="evenodd"/>
  </g>
</svg>
