<?xml version="1.0" encoding="utf-8"?>
<!-- Generator: Adobe Illustrator 16.0.0, SVG Export Plug-In . SVG Version: 6.00 Build 0)  -->
<!DOCTYPE svg PUBLIC "-//W3C//DTD SVG 1.1//EN" "http://www.w3.org/Graphics/SVG/1.1/DTD/svg11.dtd">
<svg version="1.1" id="Calque_1" xmlns="http://www.w3.org/2000/svg" xmlns:xlink="http://www.w3.org/1999/xlink" x="0px" y="0px"
	 width="290.985px" height="271.486px" viewBox="184.607 184.101 290.985 271.486"
	 enable-background="new 184.607 184.101 290.985 271.486" xml:space="preserve">
<g>
	<g>
		
			<linearGradient id="SVGID_1_" gradientUnits="userSpaceOnUse" x1="137.9419" y1="561.4561" x2="263.2861" y2="561.4561" gradientTransform="matrix(1 0 0 -1 91.04 855.3398)">
			<stop  offset="0" style="stop-color:#FAB46D"/>
			<stop  offset="0.0988" style="stop-color:#F19D6B"/>
			<stop  offset="0.27" style="stop-color:#E37B69"/>
			<stop  offset="0.445" style="stop-color:#D96067"/>
			<stop  offset="0.6229" style="stop-color:#D14D66"/>
			<stop  offset="0.8055" style="stop-color:#CC4265"/>
			<stop  offset="1" style="stop-color:#CB3E65"/>
		</linearGradient>
		<path fill="url(#SVGID_1_)" d="M256.125,376.547c-9.117,0-18.27-1.182-27.143-3.559l4.141-15.456
			c37.129,9.953,74.816-4.434,93.777-35.793c18.959-31.359,14.186-71.414-11.879-99.668l11.76-10.85
			c14.623,15.853,24.127,36.139,26.763,57.123c2.737,21.803-1.741,43.128-12.952,61.673c-11.211,18.544-28.013,32.42-48.592,40.126
			C280.63,374.401,268.411,376.547,256.125,376.547z"/>
		<path fill="#74CBD1" d="M255.254,350.998l-15.407-4.318c5.817-20.767,18.097-39.503,34.575-52.76
			c17.122-13.774,37.625-21.155,59.293-21.346c21.684-0.17,42.299,6.831,59.659,20.302c16.709,12.966,29.314,31.484,35.498,52.146
			l-15.33,4.586c-11.018-36.827-43.028-61.32-79.687-61.033C297.211,288.896,265.624,313.982,255.254,350.998z"/>
		
			<linearGradient id="SVGID_2_" gradientUnits="userSpaceOnUse" x1="218.8657" y1="561.4551" x2="344.21" y2="561.4551" gradientTransform="matrix(1 0 0 -1 91.04 855.3398)">
			<stop  offset="0" style="stop-color:#7781BF"/>
			<stop  offset="0.6818" style="stop-color:#3D3D7B"/>
			<stop  offset="1" style="stop-color:#262261"/>
		</linearGradient>
		<path fill="url(#SVGID_2_)" d="M408.107,376.547c-12.287,0-24.503-2.145-35.874-6.404c-20.578-7.707-37.382-21.581-48.594-40.126
			c-11.211-18.542-15.689-39.869-12.951-61.671c2.635-20.984,12.141-41.271,26.763-57.123l11.761,10.85
			c-26.064,28.254-30.839,68.309-11.879,99.669c18.959,31.358,56.645,45.744,93.775,35.793l4.142,15.454
			C426.377,375.366,417.224,376.547,408.107,376.547z"/>
	</g>
	<g>
		<g>
			<path fill="#EFEFEF" stroke="#EFEFEF" stroke-width="3" stroke-miterlimit="10" d="M238.583,389.504
				c-1.727-0.895-3.66-1.342-5.8-1.342c-2.142,0-3.965,0.568-5.473,1.703c-1.507,1.137-2.261,2.689-2.261,4.664v0.277
				c0,2.346,1.528,4.486,4.587,6.424c1.313,0.816,2.786,1.629,4.424,2.428c1.639,0.801,3.277,1.658,4.915,2.568
				c1.639,0.912,3.124,1.881,4.457,2.904c1.332,1.023,2.425,2.279,3.276,3.77c0.853,1.488,1.278,3.127,1.278,4.914v0.559
				c0,3.537-1.409,6.348-4.228,8.432c-2.817,2.086-6.303,3.127-10.452,3.127c-5.463,0-9.7-1.916-12.715-5.752v-3.016
				c1.136,2.123,2.808,3.846,5.014,5.166c2.206,1.322,4.948,1.98,8.225,1.98c3.277,0,6.117-0.893,8.521-2.68
				c2.402-1.787,3.604-4.168,3.604-7.146v-0.336c0-1.859-0.568-3.563-1.704-5.109c-1.137-1.543-2.557-2.811-4.26-3.797
				c-1.704-0.986-3.562-2.02-5.571-3.1c-2.01-1.08-3.866-2.084-5.57-3.016c-1.704-0.93-3.124-2.104-4.26-3.518
				c-1.137-1.414-1.704-2.959-1.704-4.637v-0.391c0-2.605,0.983-4.598,2.949-5.975s4.391-2.066,7.274-2.066
				c4.02,0,7.209,1.266,9.568,3.797v2.848C241.672,391.625,240.308,390.396,238.583,389.504z"/>
			<path fill="#EFEFEF" stroke="#EFEFEF" stroke-width="3" stroke-miterlimit="10" d="M276.953,387.27v1.619h-11.206v40.262h-2.163
				v-40.262h-11.338v-1.619H276.953L276.953,387.27z"/>
			<path fill="#EFEFEF" stroke="#EFEFEF" stroke-width="3" stroke-miterlimit="10" d="M288.094,387.27h17.63v1.619h-15.467v22.783
				h12.91v1.619h-12.91v14.24h15.467v1.619h-17.63V387.27z"/>
			<path fill="#EFEFEF" stroke="#EFEFEF" stroke-width="3" stroke-miterlimit="10" d="M319.354,387.27v40.262h15.204v1.619h-17.367
				V387.27H319.354z"/>
			<path fill="#EFEFEF" stroke="#EFEFEF" stroke-width="3" stroke-miterlimit="10" d="M347.862,387.27v40.262h15.204v1.619h-17.367
				V387.27H347.862z"/>
			<path fill="#EFEFEF" stroke="#EFEFEF" stroke-width="3" stroke-miterlimit="10" d="M395.767,386.264l24.576,42.887h-2.295
				l-9.304-15.971h-26.281l-9.175,15.971h-2.032L395.767,386.264z M395.571,390.117l-12.256,21.441h24.642L395.571,390.117z"/>
			<path fill="#EFEFEF" stroke="#EFEFEF" stroke-width="3" stroke-miterlimit="10" d="M432.139,387.27h2.818
				c4.236,0,7.963,1.332,11.173,3.992c3.211,2.662,4.816,5.789,4.816,9.381c0,3.594-1.639,6.713-4.914,9.355
				c-3.277,2.643-6.794,3.965-10.552,3.965h-0.459l16.907,15.188h-2.816l-14.876-13.289v13.289h-2.1V387.27H432.139z
				 M434.236,412.342h1.18c3.539,0,6.664-1.152,9.373-3.463c2.709-2.307,4.063-5.043,4.063-8.207s-1.398-5.92-4.193-8.266
				c-2.796-2.346-5.988-3.518-9.57-3.518h-0.852V412.342z"/>
		</g>
	</g>
</g>
</svg>
