<svg xmlns="http://www.w3.org/2000/svg" xmlns:xlink="http://www.w3.org/1999/xlink" width="414" height="1011" viewBox="0 0 414 1011">
  <defs>
    <linearGradient id="linear-gradient" x1="16.229" y1="16.062" x2="16.613" y2="15.394" gradientUnits="objectBoundingBox">
      <stop offset="0" stop-color="#010101"/>
      <stop offset="0.183" stop-color="#08090f"/>
      <stop offset="0.52" stop-color="#121426"/>
      <stop offset="0.97" stop-color="#141741"/>
      <stop offset="1" stop-color="#141643"/>
    </linearGradient>
    <linearGradient id="linear-gradient-2" x1="0.12" y1="-0.758" x2="1.04" y2="-0.758" gradientUnits="objectBoundingBox">
      <stop offset="0" stop-color="#fbb66e"/>
      <stop offset="0.032" stop-color="#f6ad6e"/>
      <stop offset="0.185" stop-color="#e78d6d"/>
      <stop offset="0.341" stop-color="#dd736c"/>
      <stop offset="0.499" stop-color="#d55e69"/>
      <stop offset="0.66" stop-color="#d04d67"/>
      <stop offset="0.824" stop-color="#cd4266"/>
      <stop offset="1" stop-color="#cc3e66"/>
    </linearGradient>
    <clipPath id="clip-Page_erreur_mobile_1">
      <rect width="414" height="1011"/>
    </clipPath>
  </defs>
  <g id="Page_erreur_mobile_1" data-name="Page erreur mobile – 1" clip-path="url(#clip-Page_erreur_mobile_1)">
    <rect width="414" height="1011" fill="#0b0c23"/>
    <g id="waves_header" transform="translate(-25.11 -63.518)">
      <g id="Groupe_18" data-name="Groupe 18" transform="translate(25.11 57.422)">
        <path id="Tracé_26" data-name="Tracé 26" d="M136.753,374.683c40.517-26.767,60.787-71.346,51.28-112.785-3.32-14.474-10-28.652-9.923-43.322.132-26.729,22.376-49.811,45.912-68.759s50.164-36.853,63.193-61.382a69.9,69.9,0,0,0,7.38-22.136L25.945,58.55,25.11,401.518C75.211,416.136,96.236,401.451,136.753,374.683Z" transform="translate(-25.11 -58.55)" fill="url(#linear-gradient)"/>
      </g>
      <g id="Groupe_19" data-name="Groupe 19" transform="translate(88.534 54.518)" opacity="0.8">
        <path id="Tracé_27" data-name="Tracé 27" d="M187.3,54.595c-25.238,40.094-30.872,112.7,14.137,154.238,70.045,64.646,123.063-28.348,189.062,1.792,56.174,25.652,17.707,110.974,93.865,132.861,34.391,9.883,113.852-11.444,171.719-103.96L626.935,54.518Z" transform="translate(-167.929 -54.518)" fill="url(#linear-gradient-2)"/>
      </g>
    </g>
    <g id="Groupe_36" data-name="Groupe 36" transform="translate(824.247 7415.162)">
      <path id="Tracé_108" data-name="Tracé 108" d="M-417.68-7310.7a72.181,72.181,0,0,1,23.943,28.355c-.271.2-.543.4-.812.606-6.762-4.535-11.561-11.029-16.954-16.938-11.063-12.022-18.371-12.77-33.026-6.265-17.016,7.553-33.394,16.46-50.739,23.293-4.2,1.658-8.568,2.6-12.859,3.894-7.573,2.306-14.893,5.43-22.774,6.667-3,.469-5.967,1.23-8.883-.288-2.125-2.4.053-3.646,1.493-4.843a72.915,72.915,0,0,1,6.192-4.087c5.192-2.194,10.444-4.252,15.717-6.261,5.984-2.281,11.836-4.987,16.346-9.549,6.5-6.577,14.1-11.657,21.353-17.255,12.515-9.656,25.694-13.28,40.818-7.157a23.327,23.327,0,0,0,5.4,1.612C-426.749-7317.6-422.865-7312.979-417.68-7310.7Z" fill="#5d67af" fill-rule="evenodd"/>
      <path id="Tracé_109" data-name="Tracé 109" d="M-383.879-7248.073c2.06,8.28.677,16.366-1.373,24.413-.313-.255-.623-.512-.94-.765-2.2-4.524-.838-9.378-1.324-14.054.586-4-1.027-5.463-5.115-5.065a40.614,40.614,0,0,0-13.5,3.641c-8.3,3.893-17.092,6.449-25.8,9.276-7.085.814-13.575,3.768-20.374,5.6-11.274,3.045-22.735,3.4-34.294,3.158-4.922-.1-9.9-.536-14.749.905a13,13,0,0,1-3.668.043c-8.983-1.745-18.142-.912-27.19-1.827-5.535-.558-11.175-.413-15.554-4.669,1.306-4.261,4.765-3.835,7.969-3.408,2.542.338,5.019.973,7.553.124a11.746,11.746,0,0,1,4.494-.067,15.234,15.234,0,0,0,9.65-.226c15.512.583,30.828-3.208,46.5-1.3,7.292.886,14.78-2.434,22.058-4.369,15.457-4.11,31.172-7.3,46.005-13.635a28.528,28.528,0,0,1,15.232-2.25,6.8,6.8,0,0,1,2.175.753C-384.553-7251.052-385.3-7248.909-383.879-7248.073Z" fill="#4d54a5" fill-rule="evenodd"/>
      <path id="Tracé_110" data-name="Tracé 110" d="M-570.344-7230.7c-3.843-26.348,4.5-49.106,21.472-68.744,26.562-30.747,73.106-40.64,110.288-24.09a17.893,17.893,0,0,1,2.337,1.5,3.574,3.574,0,0,1-2.89,1.478c-3.7.054-6.787-2.432-10.449-2.508-2.744-1.68-5.917-1.145-8.887-1.691a19.241,19.241,0,0,1-2.04-.436c-28.293-2.242-53.3,5.345-74.093,25.085-8.732,8.288-17.191,16.881-23.2,27.5-5.969,11.592-10.414,23.609-10.551,36.871C-568.379-7233.851-568.59-7231.944-570.344-7230.7Z" fill="#686db2" fill-rule="evenodd"/>
      <path id="Tracé_111" data-name="Tracé 111" d="M-570.344-7230.7c-.047-15.34,2.935-29.864,11.551-42.87,4.156-6.714,9.212-12.574,15.92-16.891,7.6-.129,8.028,6.828,11.064,11.212-1.572,3.891-6.95,3.209-8.52,7.1-2.31,3.46-5.894,5.31-9.474,6.916-9.1,4.083-13.848,11.364-15.976,20.747-1.456,4.509-.818,9.161-1.032,13.752-.133,2.923.591,6.09-2.041,8.421C-570.586-7224.886-570.3-7227.823-570.344-7230.7Z" fill="#6366ae" fill-rule="evenodd"/>
      <path id="Tracé_112" data-name="Tracé 112" d="M-568.852-7222.312c.7-8.077-1.125-16.316,1.541-24.269,5.53-10.273,16.108-10.746,25.656-13.241,5.455.713,10.985.409,16.442,1.184,2.066,3.325-1.205,3.9-2.823,4.87-3.333,2-6.749,3.887-10.213,5.664-5.812,1.991-11.891,2.964-17.815,4.549-6.224,1.669-9.9,5.248-9.362,12.122,0,2.653.045,5.3.039,7.948-.135,2.429.133,4.974-2.034,6.785C-568.957-7218.3-568.888-7220.31-568.852-7222.312Z" fill="#5c5faa" fill-rule="evenodd"/>
      <path id="Tracé_113" data-name="Tracé 113" d="M-433.393-7161.156c-31.473,15.652-62.438,14.486-92.9-2.828-.414-2.247,1.235-2.551,2.776-2.961,2.457-.223,4.626.782,6.845,1.589,22.724,10.44,46.108,11.632,70.047,4.993a17.517,17.517,0,0,0,8.272-1.909,6.934,6.934,0,0,1,2.155-.334A3.426,3.426,0,0,1-433.393-7161.156Z" fill="#474987" fill-rule="evenodd"/>
      <path id="Tracé_114" data-name="Tracé 114" d="M-433.393-7161.156l-3.28-.221c.54-4.451,4.549-5.585,7.559-7.245a67.318,67.318,0,0,0,16.942-13.239c2.223-1.953,3.875-4.45,6.056-6.444,3.826-1.544,4.159-8,9.795-7C-404.883-7179.8-417.395-7168.589-433.393-7161.156Z" fill="#464887" fill-rule="evenodd"/>
      <path id="Tracé_115" data-name="Tracé 115" d="M-392.427-7202.434c-.488.517-.971,1.036-1.458,1.553-2.466-2.6-3.336-8.146-8.987-4.85-4.418.6-8.431,2.438-12.522,4.061a3.587,3.587,0,0,1-2.986-.773c1.647-6.855,8.417-7.256,13.142-10,3.544-2.057,7.649-3.328,11.448-5.1,2.222-.252,3.417.922,4.028,2.9C-388.426-7210.084-391.459-7206.485-392.427-7202.434Z" fill="#3b4191" fill-rule="evenodd"/>
      <path id="Tracé_116" data-name="Tracé 116" d="M-523.282-7165.635a3.137,3.137,0,0,0-3.015,1.651,29.711,29.711,0,0,1-9.981-6.836c-5.668-6.365-12.76-11.407-17.373-18.757-.865-1.378-2.081-2.548-1.314-4.374a3.085,3.085,0,0,1,1.783-.864c5.061,1.434,5.771,7.076,9.5,9.806,4.756,5.573,10.769,9.693,16.383,14.279C-525.625-7169.361-522.842-7168.724-523.282-7165.635Z" fill="#494c93" fill-rule="evenodd"/>
      <path id="Tracé_117" data-name="Tracé 117" d="M-402.555-7206.81c1.1-2.325,2.551-2.884,5.094-1.766,3.664,1.606,3.416,4.661,3.576,7.7a1.191,1.191,0,0,1-.307,1.185c-5.084,5.445-9.422.326-14.032-.992a2.406,2.406,0,0,1-.423-1.831C-407.484-7205.175-404.792-7205.668-402.555-7206.81Z" fill="#3b408c" fill-rule="evenodd"/>
      <path id="Tracé_118" data-name="Tracé 118" d="M-408.228-7201.128c4.838-1.053,8.981,4.656,14.036,1.432.316,1.964-.909,3.176-2.129,4.394-4.263,1.444-4.84,6.893-9.076,8.365-1.29-3.769-.393-8.219-3.562-11.409A2.871,2.871,0,0,1-408.228-7201.128Z" fill="#3c408a" fill-rule="evenodd"/>
      <path id="Tracé_119" data-name="Tracé 119" d="M-554.543-7194.021c1.824,6.679,7.386,10.486,11.677,15.283,2.287,2.554,5.634,4.253,6.588,7.918a71.127,71.127,0,0,1-24.129-28.505,4,4,0,0,1-.189-3.114C-555.2-7202.064-555.385-7197.673-554.543-7194.021Z" fill="#565699" fill-rule="evenodd"/>
      <path id="Tracé_120" data-name="Tracé 120" d="M-560.215-7202.559q-.093,1.617-.192,3.234a42.481,42.481,0,0,1-7.014-17.372q.054-3.588.106-7.174a1.447,1.447,0,0,1,1.83-.025,13.213,13.213,0,0,1,2.133,4.618c.633,2.258.621,4.671,1.686,6.827C-560.872-7209.2-557.992-7206.246-560.215-7202.559Z" fill="#5a5aa0" fill-rule="evenodd"/>
      <path id="Tracé_121" data-name="Tracé 121" d="M-439.491-7321.85q1.619-.09,3.242-.18a49.734,49.734,0,0,1,18.564,11.333c-5.876-.218-8.88-6.554-14.7-6.9C-434.426-7319.561-438.588-7317.982-439.491-7321.85Z" fill="#666cb2" fill-rule="evenodd"/>
      <path id="Tracé_122" data-name="Tracé 122" d="M-392.427-7202.434c-.911-3.966,3.376-7.363,1.261-11.462a6.758,6.758,0,0,0,1.07-1.314c.385-1.1.463-2.277.884-3.367.618-1.712.719-3.6,1.786-5.16a1.5,1.5,0,0,1,1.7-.278l.479.355A48.585,48.585,0,0,1-392.427-7202.434Z" fill="#4a51a3" fill-rule="evenodd"/>
      <path id="Tracé_123" data-name="Tracé 123" d="M-383.879-7248.073c-1.307-.473-1.576-1.559-1.633-2.766-2.57-2.951-2.492-6.85-3.71-10.285-.509-2.209-1.382-4.342-1.468-6.647a3.646,3.646,0,0,1,.709-1.782,1.314,1.314,0,0,1,1.7.219A44.73,44.73,0,0,1-383.879-7248.073Z" fill="#565fab" fill-rule="evenodd"/>
      <path id="Tracé_124" data-name="Tracé 124" d="M-388.284-7269.334l-1.484.025c-3.111-2.546-4.352-6.116-5.388-9.8a3.631,3.631,0,0,1,1-2.888l.416-.34C-391.062-7278.366-388.86-7274.19-388.284-7269.334Z" fill="#5d67af" fill-rule="evenodd"/>
      <path id="Tracé_125" data-name="Tracé 125" d="M-439.491-7321.85c1.877,2.242,5.51,1.546,7.108,4.251-2.983-.582-6.18-.661-8.91-1.833-12.479-5.356-23.469-1.733-33.616,5.589-8.531,6.162-16.976,12.379-24.716,19.726-8.777,8.329-20.67,11.574-32.184,14.869-3.565-.327-3.836-3.607-4.992-5.891-1.395-2.763-3.143-4.427-6.367-4.053.919-6.12,5.525-9.066,10.509-10.99a37.273,37.273,0,0,0,11.383-6.847c17.783-15.5,38.495-21.724,61.9-19.091h0c3.1,1.919,6.821-.435,9.933,1.432A21.745,21.745,0,0,0-439.491-7321.85Z" fill="#6068b0" fill-rule="evenodd"/>
      <path id="Tracé_126" data-name="Tracé 126" d="M-394.153-7282c.039.917.078,1.837.117,2.755-2.875.727-4.283-1.481-5.916-3.076-4.306-4.211-9.441-4.6-13.3-.563-10.779,11.28-24.78,11.6-38.686,12.647-2.353.178-4.8-.242-7.076.342-18.31,4.691-37.509,4.962-55.516,11.222-3.193,1.111-6.613,2.975-10.177.733-5.68,1.4-11.362.052-17.043,0-.32-2.342,1.561-2.647,3.05-3.059,10.639-2.94,20.639-7.612,31-11.308,16.285-4.915,32.429-10.659,49.229-13.261,12.713-1.97,24.416-4.569,33.856-14.205,4.513-4.607,10.083-2.642,14.956.643Z" fill="#5862ad" fill-rule="evenodd"/>
      <path id="Tracé_127" data-name="Tracé 127" d="M-409.657-7299.133c-7.666-2.621-13.55-.9-19.27,5.4-7.427,8.172-18.441,8.244-28.6,9.924-15.028,2.491-29.424,7.463-44,11.706-2.012.585-4.1.925-6.143,1.377a13.7,13.7,0,0,1,0-8.521c10.035-3.868,20.536-6.846,29.973-11.839,10.832-5.729,22.76-9.427,32.928-15.857C-432.207-7314.885-422.084-7312.285-409.657-7299.133Z" fill="#5a65ae" fill-rule="evenodd"/>
      <path id="Tracé_128" data-name="Tracé 128" d="M-507.663-7279.248a7.466,7.466,0,0,1,0,8.521c-11.024,5.165-22.544,9.006-34.089,12.784-9.35,1.913-18.555,4.166-25.559,11.362,3.387-14.439,15.066-20.127,26.982-25.567,8.83.23,17.016-2.483,25.2-5.356A67.309,67.309,0,0,1-507.663-7279.248Z" fill="#5d63ad" fill-rule="evenodd"/>
      <path id="Tracé_129" data-name="Tracé 129" d="M-388.352-7262.205a21.519,21.519,0,0,1,2.84,11.366l-1.418,0c-4.56-6.051-10.429-3.738-15.436-1.573-11.34,4.9-23.3,7.451-35.034,10.949-22.874,6.819-45.924,9.963-69.72,7.371-6.427-.7-13.078,2.79-19.405-.895a6.543,6.543,0,0,1-.757-5.908c.9-2.222,2.865-3.131,4.959-3.584,10.588-2.283,21.02-5.389,32.162-3.232,9.471,1.834,18.805-.352,28.06-2.393,11.04-2.431,21.817-6.02,33.392-5.859,5.974.083,11.334-3.086,16.464-6.062,3.916-2.271,7.948-4.265,12.435-4.968C-395.094-7267.735-390.791-7267.092-388.352-7262.205Z" fill="#5159a7" fill-rule="evenodd"/>
      <path id="Tracé_130" data-name="Tracé 130" d="M-385.731-7224.015a5.656,5.656,0,0,1-1.2.165,4.212,4.212,0,0,1-1.631-3.034c-.225-5.293-3.174-5.121-7.271-4.256-8.4,1.772-16.165,5.151-23.924,8.58-22.754,10.046-46.454,15.971-71.41,14.733-18.766-.929-37.663-1.327-56.028-6.317-3.574-.97-7.384-1.652-11.17-.527a5.144,5.144,0,0,1-5.188-2.305c-.431-7.1,1.431-9.4,8.171-8.366,7.664,1.176,15.375,2.265,22.929,4.113,7.352,1.878,14.869,2.27,22.4,2.726,34.277,2.072,67.354-2.537,98.709-17.238,6.457-3.03,13.652-3.73,20.411-5.852a4.192,4.192,0,0,1,5.417,2.116Q-385.62-7231.746-385.731-7224.015Z" fill="#484ea1" fill-rule="evenodd"/>
      <path id="Tracé_131" data-name="Tracé 131" d="M-526.128-7235.217c15.383-.684,30.763-.786,46.147,0,14.723.751,27.938-6.208,42.071-8.23,15.333-2.19,28.874-9.8,43.773-13.21,5.623-1.285,7.291.8,7.207,5.817-7.483-.522-14.451,1.458-21.285,4.243-19.918,8.113-41.123,11.557-61.836,16.741-3.844.963-8.326-.828-12.53-1.068-12.186-.7-24.2,3.279-36.445,1.389q-4.265-.029-8.521,0h-4.262c-2.351-.273-5.236.725-6.293-2.639C-535.344-7238.038-530.086-7234.064-526.128-7235.217Z" fill="#4e57a6" fill-rule="evenodd"/>
      <path id="Tracé_132" data-name="Tracé 132" d="M-385.512-7239.477c-9.334-.664-17.754,2.967-26.16,6.059-24.051,8.848-47.717,18.6-74.3,16.838-14.441-.96-29.025.655-43.461-1.569-1.414-.217-2.836-.141-3.794-1.443,6.259-3.685,13.216-2.45,19.946-2.841,2.822-.164,5.641.4,8.463,0h2.841c24.318,1.3,48.11-1.147,71.017-9.943,9.048-4.3,19.113-6.006,27.9-10.988,4.216-2.388,9.1-1.773,13.655-2.453C-384.571-7246.542-385.821-7242.243-385.512-7239.477Z" fill="#4a51a3" fill-rule="evenodd"/>
      <path id="Tracé_133" data-name="Tracé 133" d="M-504.821-7222.434c-9.332,2.33-18.941,1.875-28.409,2.842-7.936-1.415-15.851-2.994-23.822-4.189-5.318-.794-6.351,2.663-6,7.022a3,3,0,0,1-.017,4.258c-2.351-1.986-1.065-4.705-1.423-7.094-1.266-3.3-1.4-6.578,2.072-8.44,4.861-2.611,9.976-3.422,14.986-.079,9.67,4.449,20.126,3.319,30.292,4.246C-513.022-7223.492-508.717-7224.737-504.821-7222.434Z" fill="#4c51a3" fill-rule="evenodd"/>
      <path id="Tracé_134" data-name="Tracé 134" d="M-547.432-7228.114c-2.84,0-5.676-.069-8.513.018-5.462.166-9.225,2.123-8.545,8.5-1.663-1.023-1.358-2.7-1.415-4.259-1.351-8.8.424-11.436,9.05-11.471,6.524-.029,13.68-2.927,19.365,2.948,1.212,2.308,4.468.536,5.681,2.841-2.133,2.268-4.638,1.58-7.018.706A9.79,9.79,0,0,0-547.432-7228.114Z" fill="#5155a5" fill-rule="evenodd"/>
      <path id="Tracé_135" data-name="Tracé 135" d="M-430.963-7232.377c-11.539,5.376-23.659,8.4-36.288,10.1-9.388,1.265-18.728,1.22-28.109,1.231-2.256,0-4.783.786-6.62-1.386,2.765-1.738,5.864-1.545,8.9-1.4,19.135.9,37.9-.586,55.849-8.034C-435.387-7232.633-433.063-7232.234-430.963-7232.377Z" fill="#4c51a3" fill-rule="evenodd"/>
      <path id="Tracé_136" data-name="Tracé 136" d="M-527.547-7229.536a6.426,6.426,0,0,1,8.521,0A6.421,6.421,0,0,1-527.547-7229.536Z" fill="#5155a5" fill-rule="evenodd"/>
      <path id="Tracé_137" data-name="Tracé 137" d="M-459.374-7326.12c-24.576-1.073-46.058,6.245-63.988,23.411-1.482,1.42-3.47,2.955-5.373,3.18-6.844.812-10.7,5.4-14.433,10.337-6.161,4.257-10.421,10.414-15.625,15.623,1.337-8.174,8.727-12.022,13.245-17.819,14.029-18,32.819-29.282,55.122-33.9C-480.3-7327.382-469.817-7329.692-459.374-7326.12Z" fill="#666cb2" fill-rule="evenodd"/>
      <path id="Tracé_138" data-name="Tracé 138" d="M-449.437-7324.687c-3.3-.574-6.946,1.3-9.933-1.432C-456.071-7325.561-452.42-7327.445-449.437-7324.687Z" fill="#666cb2" fill-rule="evenodd"/>
      <path id="Tracé_139" data-name="Tracé 139" d="M-524.709-7257.942c20.832-7.516,43-8.875,64.386-13.863,6.98-1.63,14.441-1.718,21.67-1.632,8.092.1,14.649-2.938,20.467-8,10.427-9.068,12.832-9.019,22.389,1.041a8.876,8.876,0,0,0,1.761,1.147c1.362,3.339,3.807,6.214,4.268,9.938l-.01.007c-.693.167-1.552.395-2.02-.128-6.456-7.2-13.211-4.534-19.59-.242-11.634,7.83-24.627,9.889-38.246,10.294-12.532.375-24.488,4.873-37.072,5.461-11.029.515-22.169.936-32.793,4.64a57.394,57.394,0,0,1-13.952,2.369c-2,.077-5.038,1.293-5.46-2.513Q-531.806-7253.679-524.709-7257.942Z" fill="#565fab" fill-rule="evenodd"/>
      <path id="Tracé_140" data-name="Tracé 140" d="M-538.911-7249.421c6.36,2.19,12.348-.463,18.465-1.419,1.625,2.3-.1,3.529-1.679,4.435-3.077,1.763-5.32,4.542-8.27,6.426-5.354,2.371-11.121.957-16.684,1.654-7.177.9-14.1,1.84-20.236,5.948-.172-6.759,3.128-10.88,9.608-12.5C-551.454-7246.435-545.176-7247.907-538.911-7249.421Z" fill="#575ca9" fill-rule="evenodd"/>
      <path id="Tracé_141" data-name="Tracé 141" d="M-567.315-7232.377c2.885-5.228,7.7-6.8,13.258-7.1,7.892-.422,15.78-.945,23.668-1.423,1.422-1,2.842-1.271,4.261,0v5.681c-1.053,2.26-2.546,2.853-5.014,1.918-2.114-.8-4.508-1.22-6.348.922-7.239-2.846-14.78-1.052-22.142-1.1-5.724-.04-6.853,4.643-6.273,9.625-.471,0-.943,0-1.41-.017Z" fill="#5459a7" fill-rule="evenodd"/>
      <path id="Tracé_142" data-name="Tracé 142" d="M-411.082-7181.243c-4.818,7.217-12.217,11.158-19.4,15.415-2.179,1.292-4.138,2.958-6.2,4.451-.465,0-.927.009-1.392.019-2.271,1.189-4.875,1.544-7.105,2.837-10.849,1.613-21.395,5.087-32.631,4.346-13.928-.918-27.381-3.3-39.807-10a2.33,2.33,0,0,1-.241-2.959c3.735-1.335,6.922,1.153,10.421,1.485,3.411.986,6.76,2.174,10.2,3.084,23.643,5.025,45.751,1.494,66.111-11.809,4.786-.023,6.752-5.042,10.911-6.183C-417.149-7180.513-414.3-7183.367-411.082-7181.243Z" fill="#393d83" fill-rule="evenodd"/>
      <path id="Tracé_143" data-name="Tracé 143" d="M-517.61-7167.042q0,1.434,0,2.867-2.838-.732-5.674-1.46c-7.17-6.079-15.758-10.514-21.309-18.46-.945-1.716-2.7-3.161-1.84-5.483,3.27-1.574,4.667,1.656,6.927,2.682a107.228,107.228,0,0,0,12.838,11.359C-523.418-7172.952-520.158-7170.374-517.61-7167.042Z" fill="#3d418d" fill-rule="evenodd"/>
      <path id="Tracé_144" data-name="Tracé 144" d="M-445.17-7158.521c1.85-2.248,4.328-2.92,7.105-2.837C-439.909-7159.1-442.389-7158.425-445.17-7158.521Z" fill="#464887" fill-rule="evenodd"/>
      <path id="Tracé_145" data-name="Tracé 145" d="M-411.082-7181.243c-2.932-.091-5.344,2.945-8.517,1.421-.474-7.417,4.649-11.936,8.765-16.986a4.234,4.234,0,0,1,2.6-1.479c5.688,2.6,4.149,7,2.836,11.35C-407.471-7185.217-408.269-7182.225-411.082-7181.243Z" fill="#393d85" fill-rule="evenodd"/>
      <path id="Tracé_146" data-name="Tracé 146" d="M-394.036-7216.749c-4.591,5.917-12.824,5.026-18.14,9.71-1.85,1.63-4.865,1.806-6.005,4.483-.694,2.016-2.425,2.633-4.216,3.346-25.828,10.251-52.624,13.352-80.174,10.968-6.479-2.286-13.319-2.877-20.047-3.687a60.618,60.618,0,0,1-23.714-8.393c-.932-1.287-2.321-2.514-.581-4.171,6.465-.678,12.565,1.41,18.707,2.762,29.29,6.45,58.538,5.729,87.674-.571,11.323-2.45,21.03-9.27,31.771-13.344C-404.137-7217.4-399.229-7220.415-394.036-7216.749Z" fill="#3a3f96" fill-rule="evenodd"/>
      <path id="Tracé_147" data-name="Tracé 147" d="M-394.036-7216.749c-8.088-.352-15.458,2.547-22.211,6.27-28.478,15.694-59.044,16.371-90.306,13.937-13.944-1.085-27.3-4.7-40.869-7.426-2.278-.222-4.379-.549-2.114-3.507,10.479-.7,20.582,1.9,30.685,3.919,5.12,1.025,10.134,1.988,15.339,1.828,13.882-.426,27.744.214,41.661-.835,18.134-1.368,34.23-8.3,50.4-15.5,4.713-2.1,9.223-4.635,14.717-4.52,7.736.161,8.319.688,6.959,8.641-.463.019-.925.033-1.39.049A2.621,2.621,0,0,0-394.036-7216.749Z" fill="#3d439b" fill-rule="evenodd"/>
      <path id="Tracé_148" data-name="Tracé 148" d="M-503.409-7189.768c17.933.274,35.954.8,53.557-3.043,10.754-2.348,21.128-6.438,31.671-9.745.947,0,1.9.005,2.845.006-.512,4.525-5.271,4.795-7.546,7.567-16.284,7.96-33.659,11.746-51.6,12.775-10.322.592-20.709.214-31.066.122-2.819-.024-5.69.047-8.119-1.791a31.69,31.69,0,0,0-5.231-4.28c-1.1-.834-2.967-1.882-.884-3.661C-514.3-7191.294-508.786-7191.1-503.409-7189.768Z" fill="#353a8d" fill-rule="evenodd"/>
      <path id="Tracé_149" data-name="Tracé 149" d="M-422.442-7196.866c1.231-3.315,5.332-3.045,7.106-5.684,3.575-3.476,7.909-4.67,12.781-4.26-1.81,1.531-2.941,3.976-5.683,4.261C-411.85-7197.841-415.877-7194.181-422.442-7196.866Z" fill="#373c8c" fill-rule="evenodd"/>
      <path id="Tracé_150" data-name="Tracé 150" d="M-550.266-7206.808a4.829,4.829,0,0,0,2.841,2.84q.707,1.419,1.416,2.841c-.965,3.786.3,7.574,0,11.359q.7,2.838,1.418,5.673c-4.3-2.056-4.745-7.424-8.52-9.939-2.457-4.824-7.584-9.345-1.712-15.119C-552.739-7209.473-550.592-7209.908-550.266-7206.808Z" fill="#414494" fill-rule="evenodd"/>
      <path id="Tracé_151" data-name="Tracé 151" d="M-554.53-7208.231c-3.785,5.159,1.219,9.439,1.419,14.2l-1.432.013q-2.836-4.268-5.672-8.538-1.425-4.971-2.852-9.942.009-2.128.017-4.258,2.129.712,4.251,1.424c3.207-.385,3.719,2.368,4.984,4.255A2.894,2.894,0,0,1-554.53-7208.231Z" fill="#484a98" fill-rule="evenodd"/>
      <path id="Tracé_152" data-name="Tracé 152" d="M-422.442-7196.866c5.566.184,9.577-3.519,14.2-5.683,0,.474.005.947.01,1.421q0,1.42-.005,2.841-.714.713-1.43,1.424c-8.65,4.663-17.486,8.894-27.031,11.453-9.754,1.36-18.995,5.037-29.035,5.531-6.274.31-12.6,1.588-18.956,1.7-10.423.185-17.585,5.591-22.976,13.978-3.589.026-6.739-1.522-9.949-2.841-4.726-.394-6.1-5.481-9.944-7.107-2.485-4.267.169-6.968,3.036-9.446,3.285-2.842,6.829-4.913,11.174-1.912.566.4,1.131,1.153,1.693,1.15,21.725-.142,43.524,2.2,64.955-4.342C-438.512-7191.2-430.332-7193.547-422.442-7196.866Z" fill="#353988" fill-rule="evenodd"/>
      <path id="Tracé_153" data-name="Tracé 153" d="M-554.532-7211.071q-2.136-2.132-4.267-4.264c1.1-2.381,2.717-2.2,5.173-1.94,9.795,1.033,19.194,4.824,28.883,5.235,17.522.743,34.909,3.085,52.664,1.548,22.476-1.95,42.646-10.189,62.884-18.731,5.939-2.508,12.338-2.9,18.218-5.328,2.758-1.138,3.991.145,4.019,2.914.022,2.6.02,5.191.032,7.787-.2,1.962.623,4.181-1.416,5.683-1.014-4.755-3.633-6.248-8.649-5.66-7.734.906-14.628,3.836-21.2,7.5-15.377,8.567-32.3,12.559-49.334,13.972-23.41,1.942-46.955,1.207-70.049-4.848C-543.143-7208.664-549.39-7207.422-554.532-7211.071Z" fill="#444a9f" fill-rule="evenodd"/>
      <path id="Tracé_154" data-name="Tracé 154" d="M-554.532-7211.071c13.505,1.487,26.764,5.023,40.206,6.284,24.779,2.322,49.5,2.324,73.966-4.84,10.5-3.073,19.925-7.941,29.526-12.541,5.8-2.778,11.789-3.19,17.684-4.243,7.2-1.285,3.993,4.973,4.808,8.244-.074,1.545.224,3.218-1.436,4.222-.242-7.043-5.6-9.165-13.492-5.685-15.264,6.729-30,15.17-46.83,17.4-23.375,3.1-46.795,4.815-70.258.011-9.867-2.022-19.933-3.091-29.908-4.593-1.024-1.668-2.7-1.373-4.264-1.423Q-554.533-7209.653-554.532-7211.071Z" fill="#3f469c" fill-rule="evenodd"/>
      <path id="Tracé_155" data-name="Tracé 155" d="M-526.128-7240.9l-4.261,0c1.82-4.806,7.692-5.56,9.943-9.94,11.447-5.1,23.889-4.484,35.877-5.31,11.33-.78,21.979-4.644,33.237-5.262a157.066,157.066,0,0,0,16.268-1.41c8.96-1.426,16.283-5.042,23.9-9.179,12.289-6.673,12.415-6.435,21.386,2.7q.716,3.549,1.426,7.1c-7.186-5.916-14.4-3.151-20.914.773a53.5,53.5,0,0,1-27.244,8.057c-7.807.187-15.553,3.118-23.321,4.843-11.486,2.546-22.8,4.364-34.824,2.3C-505.371-7248.082-515.9-7244.348-526.128-7240.9Z" fill="#535da9" fill-rule="evenodd"/>
      <path id="Tracé_156" data-name="Tracé 156" d="M-507.661-7164.2c-.421-1.29-1.951-2.853-.646-3.9,5.9-4.712,10.775-11.686,19.243-11.613,11.978.1,23.636-2.663,35.534-3.339,5.526-.318,10.78-4.413,16.887-3.875.965,1.775.057,3.427-.326,5.119-1.014,4.259-3.961,5.918-8.076,6.73-12.953,2.556-25.78,5.518-37.944,10.977-4.527,2.032-9.8,1.863-14.723,2.741C-501.3-7161.34-504.454-7162.874-507.661-7164.2Z" fill="#313884" fill-rule="evenodd"/>
      <path id="Tracé_157" data-name="Tracé 157" d="M-497.712-7161.356c9.194-4.733,19.389-6.55,29.1-9.751,8.411-2.773,16.921-5.744,26.006-6.1,3.023-.122,3.6-3.142,4.542-5.452,6.336-1.679,7.891-.125,8.523,8.517C-450.123-7158.453-473.042-7155.244-497.712-7161.356Z" fill="#323882" fill-rule="evenodd"/>
      <path id="Tracé_158" data-name="Tracé 158" d="M-429.542-7174.146c-3.268-2.411-1.381-9.98-8.523-8.517q.713-2.131,1.422-4.26c9.373-2.285,17.047-9.177,26.98-9.94-2.959,5.885-7.747,10.7-9.936,17.041C-423.432-7178.836-424.1-7172.315-429.542-7174.146Z" fill="#343985" fill-rule="evenodd"/>
      <path id="Tracé_159" data-name="Tracé 159" d="M-513.344-7185.507c-8.755.161-12.822,3.412-14.21,11.358l-12.777-11.357c.076-5.482,3.059-8.833,8.378-8.285,3.859.4,7.972.453,11.505,2.611C-519.043-7188.087-513.821-7189.766-513.344-7185.507Z" fill="#383c8d" fill-rule="evenodd"/>
      <path id="Tracé_160" data-name="Tracé 160" d="M-520.448-7191.18a42.866,42.866,0,0,1-8.169-.977c-5.485-1.094-10.054.487-11.714,6.651q-2.841-2.131-5.678-4.262c-1.722-3.786-5.177-7.575,0-11.359,12.509,6.023,26.077,7.817,39.571,9.947a12.011,12.011,0,0,1,3.029,1.412A61.126,61.126,0,0,1-520.448-7191.18Z" fill="#3b3f90" fill-rule="evenodd"/>
    </g>
  </g>
</svg>
