<svg xmlns="http://www.w3.org/2000/svg" xmlns:xlink="http://www.w3.org/1999/xlink" width="285.891" height="68.1" viewBox="0 0 285.891 68.1">
  <defs>
    <linearGradient id="linear-gradient" x1="0.5" x2="0.5" y2="1" gradientUnits="objectBoundingBox">
      <stop offset="0" stop-color="#7f195a"/>
      <stop offset="1" stop-color="#270d40"/>
    </linearGradient>
  </defs>
  <g id="Groupe_78" data-name="Groupe 78" transform="translate(40.621 -57.506)">
    <g id="account" transform="translate(67.743 266.684) rotate(-90)">
      <g id="Rectangle_121_17_" transform="translate(230.256 193.174) rotate(180)">
        <path id="Tracé_45" data-name="Tracé 45" d="M21.078,267.488V49.7a34.05,34.05,0,0,1,34.05-34.051h0A34.05,34.05,0,0,1,89.178,49.7v217.79a34.05,34.05,0,0,1-34.05,34.05h0A34.049,34.049,0,0,1,21.078,267.488Z" fill="url(#linear-gradient)"/>
        <path id="Tracé_46" data-name="Tracé 46" d="M21.492,267.581V49.791A33.728,33.728,0,0,1,55.221,16.062h0A33.728,33.728,0,0,1,88.95,49.791v217.79A33.729,33.729,0,0,1,55.221,301.31h0A33.729,33.729,0,0,1,21.492,267.581Z" transform="translate(-0.093 -0.093)" fill="url(#linear-gradient)"/>
      </g>
    </g>
    <g id="burger" transform="translate(44.952 67.59)">
      <line id="Ligne_2" data-name="Ligne 2" x1="35.959" transform="translate(10.815 23.967)" fill="none" stroke="#fff" stroke-linecap="round" stroke-linejoin="round" stroke-width="4"/>
      <line id="Ligne_3" data-name="Ligne 3" x1="46.233" transform="translate(10.815 12.41)" fill="none" stroke="#fff" stroke-linecap="round" stroke-linejoin="round" stroke-width="4"/>
      <line id="Ligne_4" data-name="Ligne 4" x1="46.233" transform="translate(10.815 35.523)" fill="none" stroke="#fff" stroke-linecap="round" stroke-linejoin="round" stroke-width="4"/>
    </g>
  </g>
</svg>
