<?xml version="1.0" encoding="utf-8"?>
<!-- Generator: Adobe Illustrator 16.0.0, SVG Export Plug-In . SVG Version: 6.00 Build 0)  -->
<!DOCTYPE svg PUBLIC "-//W3C//DTD SVG 1.1//EN" "http://www.w3.org/Graphics/SVG/1.1/DTD/svg11.dtd">
<svg version="1.1" id="Calque_1" xmlns="http://www.w3.org/2000/svg" xmlns:xlink="http://www.w3.org/1999/xlink" x="0px" y="0px"
	 width="92px" height="88px" viewBox="0 0 92 88" enable-background="new 0 0 92 88" xml:space="preserve">
<g>
	<path fill="#FFFFFF" d="M67.381,69.072c-1.381,0-2.5-1.119-2.5-2.5v-5.691C64.881,55.984,60.896,52,56,52H33.234
		c-4.896,0-8.881,3.984-8.881,8.881v5.691c0,1.381-1.119,2.5-2.5,2.5s-2.5-1.119-2.5-2.5v-5.691C19.354,53.227,25.58,47,33.234,47
		H56c7.654,0,13.881,6.227,13.881,13.881v5.691C69.881,67.953,68.762,69.072,67.381,69.072z"/>
	<path fill="#FFFFFF" d="M44.617,46.309c-7.655,0-13.883-6.228-13.883-13.882s6.228-13.882,13.883-13.882S58.5,24.772,58.5,32.426
		S52.272,46.309,44.617,46.309z M44.617,23.544c-4.898,0-8.883,3.985-8.883,8.882c0,4.897,3.984,8.882,8.883,8.882
		s8.883-3.984,8.883-8.882C53.5,27.529,49.516,23.544,44.617,23.544z"/>
</g>
</svg>
