<?xml version="1.0" encoding="utf-8"?>
<!-- Generator: Adobe Illustrator 16.0.0, SVG Export Plug-In . SVG Version: 6.00 Build 0)  -->
<!DOCTYPE svg PUBLIC "-//W3C//DTD SVG 1.1//EN" "http://www.w3.org/Graphics/SVG/1.1/DTD/svg11.dtd">
<svg version="1.1" id="Calque_1" xmlns="http://www.w3.org/2000/svg" xmlns:xlink="http://www.w3.org/1999/xlink" x="0px" y="0px"
	 width="74px" height="56px" viewBox="0 0 74 56" enable-background="new 0 0 74 56" xml:space="preserve">
<g>
	<path fill="#FFFFFF" d="M54.584,31.012H6.182c-1.933,0-3.5-1.567-3.5-3.5s1.567-3.5,3.5-3.5h48.403c1.933,0,3.5,1.567,3.5,3.5
		S56.518,31.012,54.584,31.012z"/>
	<path fill="#FFFFFF" d="M68.415,15.456H6.182c-1.933,0-3.5-1.567-3.5-3.5s1.567-3.5,3.5-3.5h62.233c1.933,0,3.5,1.567,3.5,3.5
		S70.348,15.456,68.415,15.456z"/>
	<path fill="#FFFFFF" d="M68.415,46.567H6.182c-1.933,0-3.5-1.567-3.5-3.5s1.567-3.5,3.5-3.5h62.233c1.933,0,3.5,1.567,3.5,3.5
		S70.348,46.567,68.415,46.567z"/>
</g>
</svg>
