<?xml version="1.0" encoding="utf-8"?>
<!-- Generator: Adobe Illustrator 16.0.0, SVG Export Plug-In . SVG Version: 6.00 Build 0)  -->
<!DOCTYPE svg PUBLIC "-//W3C//DTD SVG 1.1//EN" "http://www.w3.org/Graphics/SVG/1.1/DTD/svg11.dtd">
<svg version="1.1" id="Calque_1" xmlns="http://www.w3.org/2000/svg" xmlns:xlink="http://www.w3.org/1999/xlink" x="0px" y="0px"
	 width="55.333px" height="59.535px" viewBox="40.5 0 55.333 59.535" enable-background="new 40.5 0 55.333 59.535"
	 xml:space="preserve">
<g>
	<path fill="#FFFFFF" d="M85.944,54.947H51.727c-3.798,0-6.888-3.09-6.888-6.888V21.176c0-0.617,0.285-1.2,0.772-1.578l21.997-17.11
		c0.724-0.562,1.733-0.562,2.456,0l21.996,17.11c0.486,0.378,0.771,0.961,0.771,1.578v26.883
		C92.831,51.857,89.741,54.947,85.944,54.947z M48.839,22.154v25.905c0,1.592,1.295,2.888,2.888,2.888h34.216
		c1.593,0,2.888-1.296,2.888-2.888V22.154L68.835,6.6L48.839,22.154z"/>
	<path fill="#FFFFFF" d="M76.167,54.947c-1.104,0-2-0.896-2-2V30.507H63.503v22.439c0,1.104-0.896,2-2,2s-2-0.896-2-2V28.507
		c0-1.104,0.896-2,2-2h14.665c1.104,0,2,0.896,2,2v24.439C78.167,54.051,77.272,54.947,76.167,54.947z"/>
</g>
</svg>
