<?xml version="1.0" encoding="utf-8"?>
<!-- Generator: Adobe Illustrator 16.0.0, SVG Export Plug-In . SVG Version: 6.00 Build 0)  -->
<!DOCTYPE svg PUBLIC "-//W3C//DTD SVG 1.1//EN" "http://www.w3.org/Graphics/SVG/1.1/DTD/svg11.dtd">
<svg version="1.1" id="Calque_1" xmlns="http://www.w3.org/2000/svg" xmlns:xlink="http://www.w3.org/1999/xlink" x="0px" y="0px"
	 width="86px" height="88px" viewBox="0 0 86 88" enable-background="new 0 0 86 88" xml:space="preserve">
<g>
	<path fill="#EAEAEA" d="M40.331,71.321c-17.43,0-31.611-14.182-31.611-31.613c0-17.432,14.182-31.613,31.611-31.613
		c17.432,0,31.613,14.181,31.613,31.613C71.944,57.139,57.762,71.321,40.331,71.321z M40.331,15.719
		c-13.227,0-23.986,10.761-23.986,23.989c0,13.227,10.76,23.988,23.986,23.988c13.229,0,23.988-10.761,23.988-23.988
		C64.319,26.48,53.559,15.719,40.331,15.719z"/>
	
		<rect x="56.837" y="63.089" transform="matrix(0.7071 0.7071 -0.7071 0.7071 67.0868 -28.1521)" fill="#EAEAEA" width="21.375" height="7.624"/>
</g>
</svg>
