<?xml version="1.0" encoding="utf-8"?>
<!-- Generator: Adobe Illustrator 16.0.0, SVG Export Plug-In . SVG Version: 6.00 Build 0)  -->
<!DOCTYPE svg PUBLIC "-//W3C//DTD SVG 1.1//EN" "http://www.w3.org/Graphics/SVG/1.1/DTD/svg11.dtd">
<svg version="1.1" id="Calque_1" xmlns="http://www.w3.org/2000/svg" xmlns:xlink="http://www.w3.org/1999/xlink" x="0px" y="0px"
	 width="61px" height="56px" viewBox="0 0 61 56" enable-background="new 0 0 61 56" xml:space="preserve">
<g>
	<g>
		<path fill="#C4C0E0" d="M47.692,51.844H14.163c-3.956,0-7.174-3.217-7.174-7.171V11.144c0-3.956,3.218-7.172,7.174-7.172h33.529
			c3.953,0,7.17,3.217,7.17,7.172v33.529C54.862,48.626,51.646,51.844,47.692,51.844z M14.163,8.971
			c-1.198,0-2.174,0.974-2.174,2.172v33.529c0,1.197,0.976,2.171,2.174,2.171h33.529c1.196,0,2.17-0.974,2.17-2.171V11.144
			c0-1.198-0.974-2.172-2.17-2.172H14.163z"/>
		<path fill="#C4C0E0" d="M20.208,51.844c-1.381,0-2.5-1.118-2.5-2.5V6.471c0-1.381,1.119-2.5,2.5-2.5s2.5,1.119,2.5,2.5v42.873
			C22.708,50.726,21.589,51.844,20.208,51.844z"/>
		<path fill="#C4C0E0" d="M41.646,51.844c-1.381,0-2.5-1.118-2.5-2.5V6.471c0-1.381,1.119-2.5,2.5-2.5s2.5,1.119,2.5,2.5v42.873
			C44.146,50.726,43.026,51.844,41.646,51.844z"/>
		<path fill="#C4C0E0" d="M52.362,30.407H9.489c-1.381,0-2.5-1.119-2.5-2.5s1.119-2.5,2.5-2.5h42.873c1.381,0,2.5,1.119,2.5,2.5
			S53.743,30.407,52.362,30.407z"/>
		<path fill="#C4C0E0" d="M20.208,19.688H9.489c-1.381,0-2.5-1.119-2.5-2.5s1.119-2.5,2.5-2.5h10.719c1.381,0,2.5,1.119,2.5,2.5
			S21.589,19.688,20.208,19.688z"/>
		<path fill="#C4C0E0" d="M20.208,41.126H9.489c-1.381,0-2.5-1.119-2.5-2.5c0-1.38,1.119-2.5,2.5-2.5h10.719
			c1.381,0,2.5,1.12,2.5,2.5C22.708,40.007,21.589,41.126,20.208,41.126z"/>
		<path fill="#C4C0E0" d="M52.362,41.126H41.646c-1.381,0-2.5-1.119-2.5-2.5c0-1.38,1.119-2.5,2.5-2.5h10.717
			c1.381,0,2.5,1.12,2.5,2.5C54.862,40.007,53.743,41.126,52.362,41.126z"/>
		<path fill="#C4C0E0" d="M52.362,19.688H41.646c-1.381,0-2.5-1.119-2.5-2.5s1.119-2.5,2.5-2.5h10.717c1.381,0,2.5,1.119,2.5,2.5
			S53.743,19.688,52.362,19.688z"/>
	</g>
</g>
</svg>
