<?xml version="1.0" encoding="utf-8"?>
<!-- Generator: Adobe Illustrator 16.0.0, SVG Export Plug-In . SVG Version: 6.00 Build 0)  -->
<!DOCTYPE svg PUBLIC "-//W3C//DTD SVG 1.1//EN" "http://www.w3.org/Graphics/SVG/1.1/DTD/svg11.dtd">
<svg version="1.1" id="Calque_1" xmlns="http://www.w3.org/2000/svg" xmlns:xlink="http://www.w3.org/1999/xlink" x="0px" y="0px"
	 width="66px" height="63.5px" viewBox="0 -11.5 66 63.5" enable-background="new 0 -11.5 66 63.5" xml:space="preserve">
<g>
	<path fill="#C4C0E0" d="M53.869,46.899H11.847c-4.483,0-8.131-3.646-8.131-8.128V9.879c0-4.483,3.647-8.13,8.131-8.13h42.022
		C58.353,1.75,62,5.396,62,9.879v28.892C62,43.253,58.353,46.899,53.869,46.899z M11.847,7.503c-1.311,0-2.377,1.066-2.377,2.376
		v28.892c0,1.309,1.066,2.375,2.377,2.375h42.022c1.312,0,2.378-1.066,2.378-2.375V9.879c0-1.311-1.066-2.376-2.378-2.376H11.847z"
		/>
	<polygon fill="#C4C0E0" points="32.857,7.735 17.691,-7.432 21.759,-11.5 32.857,-0.401 43.957,-11.5 48.025,-7.431 	"/>
</g>
</svg>
