<?xml version="1.0" encoding="utf-8"?>
<!-- Generator: Adobe Illustrator 16.0.0, SVG Export Plug-In . SVG Version: 6.00 Build 0)  -->
<!DOCTYPE svg PUBLIC "-//W3C//DTD SVG 1.1//EN" "http://www.w3.org/Graphics/SVG/1.1/DTD/svg11.dtd">
<svg version="1.1" id="Calque_1" xmlns="http://www.w3.org/2000/svg" xmlns:xlink="http://www.w3.org/1999/xlink" x="0px" y="0px"
	 width="55.333px" height="59.535px" viewBox="40.5 0 55.333 59.535" enable-background="new 40.5 0 55.333 59.535"
	 xml:space="preserve">
<path fill="#FFFFFF" d="M83.598,55.514c-0.319,0-0.638-0.076-0.931-0.23l-14.501-7.626l-14.504,7.626
	c-0.673,0.354-1.49,0.296-2.106-0.152c-0.616-0.447-0.924-1.206-0.795-1.956l2.771-16.141L41.8,25.607
	c-0.545-0.531-0.742-1.326-0.507-2.049c0.235-0.725,0.86-1.252,1.613-1.362l16.216-2.37l7.251-14.691
	c0.337-0.683,1.032-1.115,1.793-1.115s1.457,0.432,1.793,1.115l7.251,14.691l16.216,2.37c0.753,0.11,1.378,0.638,1.613,1.362
	c0.235,0.724,0.039,1.518-0.507,2.049L82.802,37.035l2.768,16.141c0.129,0.75-0.18,1.509-0.796,1.957
	C84.426,55.385,84.013,55.514,83.598,55.514z M68.167,43.399c0.32,0,0.64,0.077,0.931,0.23l11.845,6.229l-2.261-13.183
	c-0.111-0.649,0.104-1.312,0.576-1.771l9.584-9.336l-13.248-1.936c-0.651-0.095-1.213-0.504-1.504-1.094l-5.922-12l-5.922,12
	c-0.291,0.59-0.854,0.999-1.504,1.094l-13.248,1.936l9.584,9.336c0.472,0.459,0.687,1.122,0.576,1.771l-2.263,13.183l11.847-6.229
	C67.527,43.476,67.847,43.399,68.167,43.399z"/>
</svg>
