<svg xmlns="http://www.w3.org/2000/svg" xmlns:xlink="http://www.w3.org/1999/xlink" width="414" height="858" viewBox="0 0 414 858">
  <defs>
    <clipPath id="clip-path">
      <rect id="Rectangle_161" data-name="Rectangle 161" width="414" height="858"/>
    </clipPath>
    <linearGradient id="linear-gradient" x1="16.229" y1="16.062" x2="16.613" y2="15.394" gradientUnits="objectBoundingBox">
      <stop offset="0" stop-color="#010101"/>
      <stop offset="0.183" stop-color="#08090f"/>
      <stop offset="0.52" stop-color="#121426"/>
      <stop offset="0.97" stop-color="#141741"/>
      <stop offset="1" stop-color="#141643"/>
    </linearGradient>
    <linearGradient id="linear-gradient-2" x1="0.12" y1="-0.758" x2="1.04" y2="-0.758" gradientUnits="objectBoundingBox">
      <stop offset="0" stop-color="#fbb66e"/>
      <stop offset="0.032" stop-color="#f6ad6e"/>
      <stop offset="0.185" stop-color="#e78d6d"/>
      <stop offset="0.341" stop-color="#dd736c"/>
      <stop offset="0.499" stop-color="#d55e69"/>
      <stop offset="0.66" stop-color="#d04d67"/>
      <stop offset="0.824" stop-color="#cd4266"/>
      <stop offset="1" stop-color="#cc3e66"/>
    </linearGradient>
  </defs>
  <g id="Page_erreur_mobile_1" data-name="Page erreur mobile – 1" clip-path="url(#clip-path)">
    <rect id="Rectangle_160" data-name="Rectangle 160" width="414" height="858" fill="#0b0c23"/>
    <g id="waves_header" transform="translate(0 -7.638)">
      <g id="Groupe_18" data-name="Groupe 18" transform="translate(0 2.465)">
        <path id="Tracé_26" data-name="Tracé 26" d="M136.753,326.841c40.517-22.716,60.787-60.549,51.28-95.717-3.32-12.284-10-24.316-9.923-36.766.132-22.684,22.376-42.273,45.912-58.353s50.164-31.276,63.193-52.093a53.409,53.409,0,0,0,7.38-18.786L25.945,58.55,25.11,349.615C75.211,362.021,96.236,349.558,136.753,326.841Z" transform="translate(-25.11 -58.55)" fill="url(#linear-gradient)"/>
      </g>
      <g id="Groupe_19" data-name="Groupe 19" transform="translate(63.424 0)" opacity="0.8">
        <path id="Tracé_27" data-name="Tracé 27" d="M187.3,54.583c-25.238,34.026-30.872,95.645,14.137,130.9C271.482,240.342,324.5,161.422,390.5,187c56.174,21.77,17.707,94.18,93.865,112.754,34.391,8.387,113.852-9.712,171.719-88.227L626.935,54.518Z" transform="translate(-167.929 -54.518)" fill="url(#linear-gradient-2)"/>
      </g>
    </g>
    <g id="Groupe_36" data-name="Groupe 36" transform="translate(252.98 71.015)">
      <path id="Tracé_108" data-name="Tracé 108" d="M-417.68-7312.643a65.1,65.1,0,0,1,23.943,24.063c-.271.17-.543.339-.812.515-6.762-3.849-11.561-9.36-16.954-14.375-11.063-10.2-18.371-10.837-33.026-5.317-17.016,6.41-33.394,13.969-50.739,19.768-4.2,1.407-8.568,2.207-12.859,3.3-7.573,1.957-14.893,4.608-22.774,5.658-3,.4-5.967,1.043-8.883-.245-2.125-2.037.053-3.094,1.493-4.11q2.99-1.868,6.192-3.469c5.192-1.862,10.444-3.608,15.717-5.313,5.984-1.936,11.836-4.232,16.346-8.1,6.5-5.582,14.1-9.893,21.353-14.644,12.515-8.194,25.694-11.27,40.818-6.074a26.508,26.508,0,0,0,5.4,1.368C-426.749-7318.5-422.865-7314.578-417.68-7312.643Z" transform="translate(571.267 7330.281)" fill="#5d67af" fill-rule="evenodd"/>
      <path id="Tracé_109" data-name="Tracé 109" d="M-383.879-7248.782c2.06,7.027.677,13.89-1.373,20.719-.313-.216-.623-.435-.94-.649-2.2-3.839-.838-7.958-1.324-11.927.586-3.395-1.027-4.636-5.115-4.3a46.4,46.4,0,0,0-13.5,3.089c-8.3,3.3-17.092,5.474-25.8,7.873-7.085.691-13.575,3.2-20.374,4.753-11.274,2.584-22.735,2.885-34.294,2.68-4.922-.085-9.9-.455-14.749.768a15.312,15.312,0,0,1-3.668.036c-8.983-1.48-18.142-.773-27.19-1.55-5.535-.474-11.175-.351-15.554-3.962,1.306-3.616,4.765-3.254,7.969-2.892,2.542.287,5.019.826,7.553.1a13.81,13.81,0,0,1,4.494-.056,17.814,17.814,0,0,0,9.65-.193c15.512.495,30.828-2.723,46.5-1.1,7.292.752,14.78-2.066,22.058-3.708,15.457-3.488,31.172-6.195,46.005-11.571a33.146,33.146,0,0,1,15.232-1.91,7.637,7.637,0,0,1,2.175.64C-384.553-7251.311-385.3-7249.495-383.879-7248.782Z" transform="translate(571.267 7319.572)" fill="#4d54a5" fill-rule="evenodd"/>
      <path id="Tracé_110" data-name="Tracé 110" d="M-570.344-7245.952c-3.843-22.361,4.5-41.675,21.472-58.341,26.562-26.094,73.106-34.49,110.288-20.444a18.507,18.507,0,0,1,2.337,1.273,3.808,3.808,0,0,1-2.89,1.255c-3.7.045-6.787-2.065-10.449-2.129-2.744-1.426-5.917-.972-8.887-1.435q-1.031-.138-2.04-.37c-28.293-1.9-53.3,4.536-74.093,21.288-8.732,7.034-17.191,14.326-23.2,23.338-5.969,9.837-10.414,20.036-10.551,31.291C-568.379-7248.625-568.59-7247-570.344-7245.952Z" transform="translate(571.267 7331.483)" fill="#686db2" fill-rule="evenodd"/>
      <path id="Tracé_111" data-name="Tracé 111" d="M-570.344-7239.745c-.047-13.019,2.935-25.344,11.551-36.382a48.106,48.106,0,0,1,15.92-14.335c7.6-.109,8.028,5.795,11.064,9.515-1.572,3.3-6.95,2.723-8.52,6.025-2.31,2.937-5.894,4.507-9.474,5.87-9.1,3.465-13.848,9.644-15.976,17.607-1.456,3.826-.818,7.774-1.032,11.67-.133,2.481.591,5.168-2.041,7.147C-570.586-7234.814-570.3-7237.3-570.344-7239.745Z" transform="translate(571.267 7325.275)" fill="#6366ae" fill-rule="evenodd"/>
      <path id="Tracé_112" data-name="Tracé 112" d="M-568.852-7227.987c.7-6.854-1.125-13.847,1.541-20.6,5.53-8.718,16.108-9.12,25.656-11.237,5.455.6,10.985.347,16.442,1,2.066,2.822-1.205,3.31-2.823,4.133-3.333,1.7-6.749,3.3-10.213,4.807-5.812,1.69-11.891,2.516-17.815,3.86-6.224,1.417-9.9,4.454-9.362,10.288,0,2.251.045,4.5.039,6.746-.135,2.062.133,4.221-2.034,5.758C-568.957-7224.583-568.888-7226.289-568.852-7227.987Z" transform="translate(571.267 7320.638)" fill="#5c5faa" fill-rule="evenodd"/>
      <path id="Tracé_113" data-name="Tracé 113" d="M-433.393-7162.041c-31.473,13.283-62.438,12.293-92.9-2.4-.414-1.907,1.235-2.165,2.776-2.513,2.457-.189,4.626.664,6.845,1.349,22.724,8.86,46.108,9.872,70.047,4.237a20.124,20.124,0,0,0,8.272-1.62,8.078,8.078,0,0,1,2.155-.284,3.642,3.642,0,0,1,2.805,1.23Z" transform="translate(571.267 7306.588)" fill="#474987" fill-rule="evenodd"/>
      <path id="Tracé_114" data-name="Tracé 114" d="M-433.393-7166.344l-3.28-.187c.54-3.778,4.549-4.74,7.559-6.149a66.978,66.978,0,0,0,16.942-11.235c2.223-1.657,3.875-3.776,6.056-5.469,3.826-1.31,4.159-6.789,9.8-5.94C-404.883-7182.163-417.395-7172.649-433.393-7166.344Z" transform="translate(571.267 7310.892)" fill="#464887" fill-rule="evenodd"/>
      <path id="Tracé_115" data-name="Tracé 115" d="M-392.427-7204.722c-.488.438-.971.879-1.458,1.318-2.466-2.207-3.336-6.914-8.987-4.116-4.418.509-8.431,2.068-12.522,3.446a4.068,4.068,0,0,1-2.986-.656c1.647-5.817,8.417-6.157,13.142-8.486,3.544-1.746,7.649-2.824,11.448-4.328a3.477,3.477,0,0,1,4.028,2.461C-388.426-7211.214-391.459-7208.159-392.427-7204.722Z" transform="translate(571.267 7314.245)" fill="#3b4191" fill-rule="evenodd"/>
      <path id="Tracé_116" data-name="Tracé 116" d="M-523.282-7170.046a3.293,3.293,0,0,0-3.015,1.4,30.391,30.391,0,0,1-9.981-5.8c-5.668-5.4-12.76-9.681-17.373-15.918-.865-1.17-2.081-2.163-1.314-3.713a3.328,3.328,0,0,1,1.783-.733c5.061,1.218,5.771,6.006,9.5,8.323,4.756,4.729,10.769,8.226,16.383,12.117C-525.625-7173.212-522.842-7172.669-523.282-7170.046Z" transform="translate(571.267 7310.8)" fill="#494c93" fill-rule="evenodd"/>
      <path id="Tracé_117" data-name="Tracé 117" d="M-402.555-7207.162c1.1-1.973,2.551-2.447,5.094-1.5,3.664,1.363,3.416,3.956,3.576,6.535a.909.909,0,0,1-.307,1.005c-5.084,4.621-9.422.277-14.032-.841a1.809,1.809,0,0,1-.423-1.555C-407.484-7205.77-404.792-7206.194-402.555-7207.162Z" transform="translate(571.267 7312.967)" fill="#3b408c" fill-rule="evenodd"/>
      <path id="Tracé_118" data-name="Tracé 118" d="M-408.228-7201.15c4.838-.894,8.981,3.951,14.036,1.215.316,1.667-.909,2.7-2.129,3.729-4.263,1.226-4.84,5.85-9.076,7.1-1.29-3.2-.393-6.976-3.562-9.683a2.192,2.192,0,0,1,.731-2.361Z" transform="translate(571.267 7311.776)" fill="#3c408a" fill-rule="evenodd"/>
      <path id="Tracé_119" data-name="Tracé 119" d="M-554.543-7195.294c1.824,5.668,7.386,8.9,11.677,12.971,2.287,2.167,5.634,3.608,6.588,6.72a64.179,64.179,0,0,1-24.129-24.191,2.931,2.931,0,0,1-.189-2.643C-555.2-7202.117-555.385-7198.392-554.543-7195.294Z" transform="translate(571.267 7311.954)" fill="#565699" fill-rule="evenodd"/>
      <path id="Tracé_120" data-name="Tracé 120" d="M-560.215-7205.837q-.093,1.373-.192,2.745a33.225,33.225,0,0,1-7.014-14.743q.054-3.045.106-6.088a1.65,1.65,0,0,1,1.83-.021,10.528,10.528,0,0,1,2.133,3.919c.633,1.916.621,3.964,1.686,5.794C-560.872-7211.472-557.992-7208.968-560.215-7205.837Z" transform="translate(571.267 7315.25)" fill="#5a5aa0" fill-rule="evenodd"/>
      <path id="Tracé_121" data-name="Tracé 121" d="M-439.491-7321.878l3.242-.152a51.956,51.956,0,0,1,18.564,9.618c-5.876-.186-8.88-5.562-14.7-5.856C-434.426-7319.934-438.588-7318.593-439.491-7321.878Z" transform="translate(571.267 7330.053)" fill="#666cb2" fill-rule="evenodd"/>
      <path id="Tracé_122" data-name="Tracé 122" d="M-392.427-7205.719c-.911-3.366,3.376-6.249,1.261-9.728a6.038,6.038,0,0,0,1.07-1.115c.385-.933.463-1.932.884-2.857.618-1.453.719-3.055,1.786-4.379a1.7,1.7,0,0,1,1.7-.236l.479.3a37.242,37.242,0,0,1-7.18,18.014Z" transform="translate(571.267 7315.242)" fill="#4a51a3" fill-rule="evenodd"/>
      <path id="Tracé_123" data-name="Tracé 123" d="M-383.879-7251.354a2.227,2.227,0,0,1-1.633-2.347c-2.57-2.5-2.492-5.813-3.71-8.729-.509-1.875-1.382-3.685-1.468-5.641a2.852,2.852,0,0,1,.709-1.513,1.487,1.487,0,0,1,1.7.187A33.158,33.158,0,0,1-383.879-7251.354Z" transform="translate(571.267 7322.144)" fill="#565fab" fill-rule="evenodd"/>
      <path id="Tracé_124" data-name="Tracé 124" d="M-388.284-7271.3l-1.484.021c-3.111-2.161-4.352-5.191-5.388-8.317a2.814,2.814,0,0,1,1-2.451l.416-.289C-391.062-7278.97-388.86-7275.422-388.284-7271.3Z" transform="translate(571.267 7324.045)" fill="#5d67af" fill-rule="evenodd"/>
      <path id="Tracé_125" data-name="Tracé 125" d="M-439.491-7322.585c1.877,1.9,5.51,1.312,7.108,3.608-2.983-.494-6.18-.561-8.91-1.556-12.479-4.545-23.469-1.471-33.616,4.743-8.531,5.229-16.976,10.505-24.716,16.741-8.777,7.068-20.67,9.823-32.184,12.619-3.565-.278-3.836-3.062-4.992-5-1.4-2.345-3.143-3.757-6.367-3.439.919-5.194,5.525-7.694,10.509-9.327a39.049,39.049,0,0,0,11.383-5.811c17.783-13.154,38.495-18.437,61.9-16.2h0c3.1,1.628,6.821-.369,9.933,1.215a24.711,24.711,0,0,0,9.952,2.409Z" transform="translate(571.267 7330.76)" fill="#6068b0" fill-rule="evenodd"/>
      <path id="Tracé_126" data-name="Tracé 126" d="M-394.153-7285.1q.059,1.167.117,2.338c-2.875.617-4.283-1.257-5.916-2.611-4.306-3.574-9.441-3.9-13.3-.478-10.779,9.573-24.78,9.845-38.686,10.733-2.353.151-4.8-.206-7.076.29-18.31,3.981-37.509,4.211-55.516,9.524-3.193.942-6.613,2.525-10.177.622-5.68,1.188-11.362.043-17.043,0-.32-1.988,1.561-2.247,3.05-2.6,10.639-2.5,20.639-6.46,31-9.6,16.285-4.171,32.429-9.046,49.229-11.254,12.713-1.672,24.416-3.877,33.856-12.056,4.513-3.91,10.083-2.242,14.956.546Z" transform="translate(571.267 7327.096)" fill="#5862ad" fill-rule="evenodd"/>
      <path id="Tracé_127" data-name="Tracé 127" d="M-409.657-7300.991c-7.666-2.225-13.55-.764-19.27,4.583-7.427,6.935-18.441,7-28.6,8.422-15.028,2.114-29.424,6.333-44,9.935-2.012.5-4.1.784-6.143,1.168a9.963,9.963,0,0,1,0-7.231c10.035-3.282,20.536-5.81,29.973-10.047,10.832-4.862,22.76-8,32.928-13.457C-432.207-7314.357-422.084-7312.16-409.657-7300.991Z" transform="translate(571.267 7328.448)" fill="#5a65ae" fill-rule="evenodd"/>
      <path id="Tracé_128" data-name="Tracé 128" d="M-507.663-7279.25a5.563,5.563,0,0,1,0,7.23c-11.024,4.384-22.544,7.644-34.089,10.851-9.35,1.623-18.555,3.535-25.559,9.642,3.387-12.253,15.066-17.08,26.982-21.7,8.83.2,17.016-2.107,25.2-4.545q3.68-.921,7.466-1.481Z" transform="translate(571.267 7323.579)" fill="#5d63ad" fill-rule="evenodd"/>
      <path id="Tracé_129" data-name="Tracé 129" d="M-388.352-7262.973a16.127,16.127,0,0,1,2.84,9.646h-1.418c-4.56-5.135-10.429-3.172-15.436-1.335-11.34,4.158-23.3,6.323-35.034,9.292-22.874,5.787-45.924,8.455-69.72,6.256-6.427-.594-13.078,2.368-19.405-.76a4.855,4.855,0,0,1-.757-5.015c.9-1.885,2.865-2.656,4.959-3.041,10.588-1.937,21.02-4.573,32.162-2.742,9.471,1.556,18.8-.3,28.06-2.031,11.04-2.063,21.817-5.109,33.392-4.973,5.974.07,11.334-2.618,16.464-5.145a40.094,40.094,0,0,1,12.435-4.216C-395.094-7267.657-390.791-7267.114-388.352-7262.973Z" transform="translate(571.267 7321.763)" fill="#5159a7" fill-rule="evenodd"/>
      <path id="Tracé_130" data-name="Tracé 130" d="M-385.731-7226.729a6.665,6.665,0,0,1-1.2.141,3.463,3.463,0,0,1-1.631-2.575c-.225-4.492-3.174-4.346-7.271-3.611-8.4,1.5-16.165,4.371-23.924,7.281-22.754,8.525-46.454,13.554-71.41,12.5-18.766-.788-37.663-1.126-56.028-5.36-3.574-.823-7.384-1.4-11.17-.447a5.546,5.546,0,0,1-5.188-1.956c-.431-6.026,1.431-7.978,8.171-7.1,7.664,1,15.375,1.923,22.929,3.49,7.352,1.594,14.869,1.927,22.4,2.313,34.277,1.759,67.354-2.153,98.709-14.629,6.457-2.571,13.652-3.165,20.411-4.967a4.519,4.519,0,0,1,5.417,1.8Q-385.62-7233.289-385.731-7226.729Z" transform="translate(571.267 7317.929)" fill="#484ea1" fill-rule="evenodd"/>
      <path id="Tracé_131" data-name="Tracé 131" d="M-526.128-7238.521c15.383-.581,30.763-.667,46.147,0,14.723.637,27.938-5.269,42.071-6.984,15.333-1.859,28.874-8.317,43.773-11.211,5.623-1.091,7.291.679,7.207,4.937-7.483-.443-14.451,1.237-21.285,3.6-19.918,6.885-41.123,9.808-61.836,14.208-3.844.817-8.326-.7-12.53-.906-12.186-.594-24.2,2.783-36.445,1.179q-4.265-.025-8.521,0h-4.262c-2.351-.232-5.236.615-6.293-2.24C-535.344-7240.914-530.086-7237.537-526.128-7238.521Z" transform="translate(571.267 7320.216)" fill="#4e57a6" fill-rule="evenodd"/>
      <path id="Tracé_132" data-name="Tracé 132" d="M-385.512-7240.452c-9.334-.563-17.754,2.518-26.16,5.142-24.051,7.509-47.717,15.785-74.3,14.29-14.441-.814-29.025.556-43.461-1.331-1.414-.184-2.836-.12-3.794-1.225,6.259-3.127,13.216-2.08,19.946-2.411,2.822-.139,5.641.339,8.463,0h2.841c24.318,1.1,48.11-.973,71.017-8.438,9.048-3.649,19.113-5.1,27.9-9.325,4.216-2.026,9.1-1.5,13.655-2.082C-384.571-7246.443-385.821-7242.794-385.512-7240.452Z" transform="translate(571.267 7318.532)" fill="#4a51a3" fill-rule="evenodd"/>
      <path id="Tracé_133" data-name="Tracé 133" d="M-504.821-7223.624c-9.332,1.978-18.941,1.591-28.409,2.412-7.936-1.2-15.851-2.541-23.822-3.555-5.318-.674-6.351,2.26-6,5.959a2.367,2.367,0,0,1,.878,1.81,2.373,2.373,0,0,1-.895,1.8c-2.351-1.685-1.065-3.993-1.423-6.02-1.266-2.8-1.4-5.583,2.072-7.163,4.861-2.216,9.976-2.9,14.986-.067,9.67,3.776,20.126,2.817,30.292,3.6C-513.022-7224.523-508.717-7225.584-504.821-7223.624Z" transform="translate(571.267 7316.173)" fill="#4c51a3" fill-rule="evenodd"/>
      <path id="Tracé_134" data-name="Tracé 134" d="M-547.432-7229.313c-2.84,0-5.676-.059-8.513.015-5.462.141-9.225,1.8-8.545,7.214-1.663-.868-1.358-2.292-1.415-3.614-1.351-7.468.424-9.706,9.05-9.735,6.524-.024,13.68-2.484,19.365,2.5,1.212,1.959,4.468.455,5.681,2.411-2.133,1.925-4.638,1.341-7.018.6A11.34,11.34,0,0,0-547.432-7229.313Z" transform="translate(571.267 7317.043)" fill="#5155a5" fill-rule="evenodd"/>
      <path id="Tracé_135" data-name="Tracé 135" d="M-430.963-7232.38a141.593,141.593,0,0,1-36.288,8.571c-9.388,1.074-18.728,1.036-28.109,1.045-2.256,0-4.783.667-6.62-1.177,2.765-1.475,5.864-1.311,8.9-1.187,19.135.764,37.9-.5,55.849-6.818C-435.387-7232.592-433.063-7232.253-430.963-7232.38Z" transform="translate(571.267 7316.485)" fill="#4c51a3" fill-rule="evenodd"/>
      <path id="Tracé_136" data-name="Tracé 136" d="M-527.547-7229.785a7.306,7.306,0,0,1,8.521,0,7.3,7.3,0,0,1-8.521,0Z" transform="translate(571.267 7316.3)" fill="#5155a5" fill-rule="evenodd"/>
      <path id="Tracé_137" data-name="Tracé 137" d="M-459.374-7326.4c-24.576-.911-46.058,5.3-63.988,19.868a11.212,11.212,0,0,1-5.373,2.7c-6.844.689-10.7,4.583-14.433,8.772-6.161,3.612-10.421,8.838-15.625,13.259,1.337-6.937,8.727-10.2,13.245-15.122,14.029-15.276,32.819-24.851,55.122-28.77C-480.3-7327.471-469.817-7329.431-459.374-7326.4Z" transform="translate(571.267 7330.953)" fill="#666cb2" fill-rule="evenodd"/>
      <path id="Tracé_138" data-name="Tracé 138" d="M-449.437-7324.924c-3.3-.487-6.946,1.1-9.933-1.216C-456.071-7325.662-452.42-7327.258-449.437-7324.924Z" transform="translate(571.267 7330.689)" fill="#666cb2" fill-rule="evenodd"/>
      <path id="Tracé_139" data-name="Tracé 139" d="M-524.709-7262.5c20.832-6.378,43-7.532,64.386-11.765,6.98-1.383,14.441-1.458,21.67-1.385a32.693,32.693,0,0,0,20.467-6.79c10.427-7.7,12.832-7.654,22.389.884a9.183,9.183,0,0,0,1.761.973c1.362,2.833,3.807,5.273,4.268,8.434l-.01.006c-.693.142-1.552.335-2.02-.109-6.456-6.11-13.211-3.848-19.59-.205-11.634,6.645-24.627,8.393-38.246,8.736-12.532.318-24.488,4.136-37.072,4.635-11.029.437-22.169.794-32.793,3.938a66.788,66.788,0,0,1-13.952,2.011c-2,.065-5.038,1.1-5.46-2.133Q-531.806-7258.888-524.709-7262.5Z" transform="translate(571.267 7324.917)" fill="#565fab" fill-rule="evenodd"/>
      <path id="Tracé_140" data-name="Tracé 140" d="M-538.911-7249.635c6.36,1.858,12.348-.393,18.465-1.2,1.625,1.952-.1,2.995-1.679,3.764-3.077,1.5-5.32,3.854-8.27,5.453-5.354,2.012-11.121.813-16.684,1.4-7.177.764-14.1,1.562-20.236,5.048-.172-5.736,3.128-9.233,9.608-10.608C-551.454-7247.106-545.176-7248.354-538.911-7249.635Z" transform="translate(571.267 7319.279)" fill="#575ca9" fill-rule="evenodd"/>
      <path id="Tracé_141" data-name="Tracé 141" d="M-567.315-7233.8c2.885-4.437,7.7-5.771,13.258-6.025,7.892-.358,15.78-.8,23.668-1.208a3.5,3.5,0,0,1,4.261,0v4.821c-1.053,1.918-2.546,2.421-5.014,1.628-2.114-.679-4.508-1.036-6.348.782-7.239-2.416-14.78-.893-22.142-.934-5.724-.034-6.853,3.94-6.273,8.168-.471,0-.943,0-1.41-.015Z" transform="translate(571.267 7317.905)" fill="#5459a7" fill-rule="evenodd"/>
      <path id="Tracé_142" data-name="Tracé 142" d="M-411.082-7181.36c-4.818,6.125-12.217,9.47-19.4,13.083-2.179,1.1-4.138,2.51-6.2,3.777-.465,0-.927.008-1.392.016-2.271,1.009-4.875,1.311-7.105,2.408-10.849,1.369-21.395,4.317-32.631,3.688-13.928-.779-27.381-2.8-39.807-8.487a1.758,1.758,0,0,1-.241-2.511c3.735-1.133,6.922.979,10.421,1.26,3.411.837,6.76,1.845,10.2,2.617,23.643,4.265,45.751,1.268,66.111-10.022,4.786-.019,6.752-4.279,10.911-5.247C-417.149-7180.74-414.3-7183.167-411.082-7181.36Z" transform="translate(571.267 7308.866)" fill="#393d83" fill-rule="evenodd"/>
      <path id="Tracé_143" data-name="Tracé 143" d="M-517.61-7170.515v2.434l-5.674-1.239c-7.17-5.159-15.758-8.923-21.309-15.666-.945-1.457-2.7-2.683-1.84-4.653,3.27-1.336,4.667,1.405,6.927,2.276a103.739,103.739,0,0,0,12.838,9.64A48.091,48.091,0,0,1-517.61-7170.515Z" transform="translate(571.267 7310.072)" fill="#3d418d" fill-rule="evenodd"/>
      <path id="Tracé_144" data-name="Tracé 144" d="M-445.17-7158.95c1.85-1.908,4.328-2.478,7.105-2.408C-439.909-7159.443-442.389-7158.865-445.17-7158.95Z" transform="translate(571.267 7305.738)" fill="#464887" fill-rule="evenodd"/>
      <path id="Tracé_145" data-name="Tracé 145" d="M-411.082-7183.82c-2.932-.077-5.344,2.5-8.517,1.206-.474-6.294,4.649-10.13,8.765-14.415a4.455,4.455,0,0,1,2.6-1.255c5.688,2.207,4.149,5.94,2.836,9.632C-407.471-7187.2-408.269-7184.66-411.082-7183.82Z" transform="translate(571.267 7311.326)" fill="#393d85" fill-rule="evenodd"/>
      <path id="Tracé_146" data-name="Tracé 146" d="M-394.036-7217.013c-4.591,5.021-12.824,4.265-18.14,8.24-1.85,1.384-4.865,1.533-6.005,3.8-.694,1.711-2.425,2.234-4.216,2.84-25.828,8.7-52.624,11.331-80.174,9.308-6.479-1.94-13.319-2.441-20.047-3.129a67.919,67.919,0,0,1-23.714-7.123c-.932-1.092-2.321-2.134-.581-3.539,6.465-.576,12.565,1.2,18.707,2.344,29.29,5.474,58.538,4.862,87.674-.484,11.323-2.079,21.03-7.867,31.771-11.325C-404.137-7217.564-399.229-7220.127-394.036-7217.013Z" transform="translate(571.267 7314.383)" fill="#3a3f96" fill-rule="evenodd"/>
      <path id="Tracé_147" data-name="Tracé 147" d="M-394.036-7217.634c-8.088-.3-15.458,2.162-22.211,5.321-28.478,13.319-59.044,13.894-90.306,11.828-13.944-.921-27.3-3.989-40.869-6.3-2.278-.188-4.379-.466-2.114-2.977,10.479-.594,20.582,1.612,30.685,3.326a78.841,78.841,0,0,0,15.339,1.552c13.882-.362,27.744.181,41.661-.709,18.134-1.161,34.23-7.044,50.4-13.154,4.713-1.782,9.223-3.934,14.717-3.836,7.736.137,8.319.584,6.959,7.333-.463.017-.925.028-1.39.042a2.04,2.04,0,0,0-.761-1.788,2.909,2.909,0,0,0-2.11-.637Z" transform="translate(571.267 7315.003)" fill="#3d439b" fill-rule="evenodd"/>
      <path id="Tracé_148" data-name="Tracé 148" d="M-503.409-7191.706c17.933.232,35.954.679,53.557-2.583,10.754-1.993,21.128-5.463,31.671-8.27.947,0,1.9,0,2.845,0-.512,3.84-5.271,4.069-7.546,6.422-16.284,6.755-33.659,9.968-51.6,10.841-10.322.5-20.709.182-31.066.1-2.819-.02-5.69.04-8.119-1.52a31.25,31.25,0,0,0-5.231-3.632c-1.1-.708-2.967-1.6-.884-3.107C-514.3-7193-508.786-7192.834-503.409-7191.706Z" transform="translate(571.267 7311.973)" fill="#353a8d" fill-rule="evenodd"/>
      <path id="Tracé_149" data-name="Tracé 149" d="M-422.442-7198.387c1.231-2.813,5.332-2.584,7.106-4.824,3.575-2.95,7.909-3.963,12.781-3.615-1.81,1.3-2.941,3.374-5.683,3.616C-411.85-7199.21-415.877-7196.1-422.442-7198.387Z" transform="translate(571.267 7312.628)" fill="#373c8c" fill-rule="evenodd"/>
      <path id="Tracé_150" data-name="Tracé 150" d="M-550.266-7207.2a4.529,4.529,0,0,0,2.841,2.41l1.416,2.411c-.965,3.213.3,6.428,0,9.64q.7,2.409,1.418,4.814c-4.3-1.745-4.745-6.3-8.52-8.435-2.457-4.094-7.584-7.931-1.712-12.832C-552.739-7209.456-550.592-7209.83-550.266-7207.2Z" transform="translate(571.267 7313.004)" fill="#414494" fill-rule="evenodd"/>
      <path id="Tracé_151" data-name="Tracé 151" d="M-554.53-7209.52c-3.785,4.378,1.219,8.01,1.419,12.051l-1.432.011-5.672-7.246q-1.425-4.219-2.852-8.437.009-1.805.017-3.613,2.129.6,4.251,1.208c3.207-.326,3.719,2.01,4.984,3.611a2.2,2.2,0,0,1-.715,2.415Z" transform="translate(571.267 7314.121)" fill="#484a98" fill-rule="evenodd"/>
      <path id="Tracé_152" data-name="Tracé 152" d="M-422.442-7197.73c5.566.156,9.577-2.987,14.2-4.823,0,.4.005.8.01,1.206q0,1.2-.005,2.411-.714.6-1.43,1.208c-8.65,3.958-17.486,7.548-27.031,9.72-9.754,1.154-18.995,4.275-29.035,4.694-6.274.263-12.6,1.348-18.956,1.443-10.423.157-17.585,4.745-22.976,11.863-3.589.022-6.739-1.292-9.949-2.411-4.726-.334-6.1-4.651-9.944-6.031-2.485-3.621.169-5.913,3.036-8.016,3.285-2.412,6.829-4.17,11.174-1.623.566.339,1.131.979,1.693.976,21.725-.121,43.524,1.867,64.955-3.685C-438.512-7192.918-430.332-7194.912-422.442-7197.73Z" transform="translate(571.267 7311.972)" fill="#353988" fill-rule="evenodd"/>
      <path id="Tracé_153" data-name="Tracé 153" d="M-554.532-7214.686q-2.136-1.81-4.267-3.619c1.1-2.021,2.717-1.867,5.173-1.646,9.795.876,19.194,4.094,28.883,4.442,17.522.631,34.909,2.618,52.664,1.313,22.476-1.655,42.646-8.647,62.884-15.9,5.939-2.128,12.338-2.461,18.218-4.522,2.758-.966,3.991.123,4.019,2.473.022,2.207.02,4.405.032,6.608-.2,1.665.623,3.549-1.416,4.823-1.014-4.035-3.633-5.3-8.649-4.8a63.867,63.867,0,0,0-21.2,6.365c-15.377,7.271-32.3,10.658-49.334,11.857-23.41,1.648-46.955,1.024-70.049-4.114C-543.143-7212.641-549.39-7211.589-554.532-7214.686Z" transform="translate(571.267 7316.877)" fill="#444a9f" fill-rule="evenodd"/>
      <path id="Tracé_154" data-name="Tracé 154" d="M-554.532-7213.417c13.505,1.262,26.764,4.263,40.206,5.333,24.779,1.97,49.5,1.973,73.966-4.107,10.5-2.608,19.925-6.739,29.526-10.643,5.8-2.357,11.789-2.707,17.684-3.6,7.2-1.091,3.993,4.221,4.808,7-.074,1.311.224,2.731-1.436,3.583-.242-5.977-5.6-7.778-13.492-4.825-15.264,5.711-30,12.875-46.83,14.767-23.375,2.631-46.795,4.086-70.258.01-9.867-1.716-19.933-2.623-29.908-3.9-1.024-1.416-2.7-1.165-4.264-1.208Q-554.533-7212.212-554.532-7213.417Z" transform="translate(571.267 7315.608)" fill="#3f469c" fill-rule="evenodd"/>
      <path id="Tracé_155" data-name="Tracé 155" d="M-526.128-7246.308h-4.261c1.82-4.078,7.692-4.719,9.943-8.436,11.447-4.328,23.889-3.8,35.877-4.506,11.33-.662,21.979-3.941,33.237-4.466q8.165-.24,16.268-1.2c8.96-1.21,16.283-4.279,23.9-7.79,12.289-5.663,12.415-5.461,21.386,2.292q.716,3.01,1.426,6.025c-7.186-5.021-14.4-2.674-20.914.656a60.655,60.655,0,0,1-27.244,6.838c-7.807.158-15.553,2.646-23.321,4.109-11.486,2.16-22.8,3.7-34.824,1.952C-505.371-7252.4-515.9-7249.235-526.128-7246.308Z" transform="translate(571.267 7323.182)" fill="#535da9" fill-rule="evenodd"/>
      <path id="Tracé_156" data-name="Tracé 156" d="M-507.661-7167.647c-.421-1.095-1.951-2.421-.646-3.31,5.9-4,10.775-9.917,19.243-9.855,11.978.085,23.636-2.26,35.534-2.833,5.526-.27,10.78-3.745,16.887-3.289.965,1.506.057,2.908-.326,4.344-1.014,3.614-3.961,5.022-8.076,5.711-12.953,2.169-25.78,4.683-37.944,9.316-4.527,1.725-9.8,1.581-14.723,2.327C-501.3-7165.219-504.454-7166.518-507.661-7167.647Z" transform="translate(571.267 7309.614)" fill="#313884" fill-rule="evenodd"/>
      <path id="Tracé_157" data-name="Tracé 157" d="M-497.712-7164.674c9.194-4.017,19.389-5.559,29.1-8.275,8.411-2.354,16.921-4.875,26.006-5.177,3.023-.1,3.6-2.667,4.542-4.627,6.336-1.425,7.891-.106,8.523,7.229C-450.123-7162.205-473.042-7159.481-497.712-7164.674Z" transform="translate(571.267 7309.052)" fill="#323882" fill-rule="evenodd"/>
      <path id="Tracé_158" data-name="Tracé 158" d="M-429.542-7177.588c-3.268-2.046-1.381-8.47-8.523-7.228q.713-1.808,1.422-3.615c9.373-1.939,17.047-7.788,26.98-8.436-2.959,4.994-7.747,9.081-9.936,14.462C-423.432-7181.568-424.1-7176.026-429.542-7177.588Z" transform="translate(571.267 7311.111)" fill="#343985" fill-rule="evenodd"/>
      <path id="Tracé_159" data-name="Tracé 159" d="M-513.344-7186.772c-8.755.137-12.822,2.9-14.21,9.639l-12.777-9.639c.076-4.652,3.059-7.5,8.378-7.031,3.859.339,7.972.385,11.505,2.216C-519.043-7188.962-513.821-7190.388-513.344-7186.772Z" transform="translate(571.267 7310.655)" fill="#383c8d" fill-rule="evenodd"/>
      <path id="Tracé_160" data-name="Tracé 160" d="M-520.448-7192.686a50.2,50.2,0,0,1-8.169-.829c-5.485-.929-10.054.413-11.714,5.645l-5.678-3.617c-1.722-3.214-5.177-6.429,0-9.641,12.509,5.111,26.077,6.634,39.571,8.441a13.109,13.109,0,0,1,3.029,1.2,71.745,71.745,0,0,1-17.039-1.2Z" transform="translate(571.267 7311.756)" fill="#3b3f90" fill-rule="evenodd"/>
    </g>
  </g>
</svg>
