<?xml version="1.0" encoding="utf-8"?>
<!-- Generator: Adobe Illustrator 16.0.0, SVG Export Plug-In . SVG Version: 6.00 Build 0)  -->
<!DOCTYPE svg PUBLIC "-//W3C//DTD SVG 1.1//EN" "http://www.w3.org/Graphics/SVG/1.1/DTD/svg11.dtd">
<svg version="1.1" id="Calque_1" xmlns="http://www.w3.org/2000/svg" xmlns:xlink="http://www.w3.org/1999/xlink" x="0px" y="0px"
	 width="2440px" height="820.201px" viewBox="40.5 0 2440 820.201" enable-background="new 40.5 0 2440 820.201"
	 xml:space="preserve">
<g>
	<linearGradient id="SVGID_1_" gradientUnits="userSpaceOnUse" x1="209.6296" y1="410.6404" x2="1959.4343" y2="410.6404">
		<stop  offset="0" style="stop-color:#FBB56D"/>
		<stop  offset="0.1024" style="stop-color:#F19D6B"/>
		<stop  offset="0.273" style="stop-color:#E47B69"/>
		<stop  offset="0.4472" style="stop-color:#D96067"/>
		<stop  offset="0.6244" style="stop-color:#D24D66"/>
		<stop  offset="0.8063" style="stop-color:#CD4265"/>
		<stop  offset="1" style="stop-color:#CC3E65"/>
	</linearGradient>
	<path opacity="0.3" fill="url(#SVGID_1_)" d="M1958.677,789.572c-24.78-6.474-70.209-6.93-127.724-7.509
		c-121.107-1.218-304.125-3.059-475.435-64.363c-94.088-33.67-175.237-82.135-241.194-144.048
		c-77.376-72.633-136.32-166.012-175.193-277.54C886.699,145.69,808.769,59.266,707.505,39.241
		C590.174,16.039,461.728,87.183,374.634,150.95c-94.523,69.206-162.089,144.907-162.76,145.663l-2.244-1.991
		c0.673-0.759,68.416-76.665,163.186-146.059c55.692-40.78,109.695-71.377,160.509-90.94
		c63.631-24.498,122.428-31.673,174.759-21.326c102.385,20.244,181.073,107.326,233.88,258.827
		c166.145,476.668,636.389,481.398,889.021,483.938c57.722,0.581,103.313,1.039,128.451,7.606L1958.677,789.572z"/>
	
		<linearGradient id="SVGID_2_" gradientUnits="userSpaceOnUse" x1="149.4524" y1="294.7097" x2="1899.3435" y2="294.7097" gradientTransform="matrix(1.3296 -0.163 0.1217 0.9926 -154.9507 290.1641)">
		<stop  offset="0" style="stop-color:#FBB56D"/>
		<stop  offset="0.1024" style="stop-color:#F19D6B"/>
		<stop  offset="0.273" style="stop-color:#E47B69"/>
		<stop  offset="0.4472" style="stop-color:#D96067"/>
		<stop  offset="0.6244" style="stop-color:#D24D66"/>
		<stop  offset="0.8063" style="stop-color:#CD4265"/>
		<stop  offset="1" style="stop-color:#CC3E65"/>
	</linearGradient>
	<path fill="url(#SVGID_2_)" d="M1886.198,692.884c-80.063,0.002-162.928-4.417-244.837-16.203
		c-129.245-18.599-243.168-53.907-338.604-104.945c-54.052-28.906-103.41-63.506-146.704-102.836
		c-46.406-42.157-87.18-90.962-121.188-145.058c-83.059-132.115-189.019-205.131-314.937-217.02
		c-163.234-15.415-332.058,75.675-444.942,154.802C152.583,347.423,67.776,438.018,66.933,438.923l-2.196-2.044
		c0.845-0.907,85.868-91.732,208.528-177.711c72.063-50.513,142.838-89.505,210.354-115.893
		c84.478-33.016,164.078-46.289,236.592-39.439c126.894,11.98,233.613,85.463,317.193,218.41
		c281.086,447.112,907.198,377.765,1243.571,340.51c76.757-8.502,137.382-15.219,171.529-12.662l-0.225,2.991
		c-33.867-2.532-94.372,4.167-170.975,12.652C2176.264,677.37,2036.184,692.883,1886.198,692.884z"/>
</g>
</svg>
