<?xml version="1.0" encoding="utf-8"?>
<!-- Generator: Adobe Illustrator 16.0.0, SVG Export Plug-In . SVG Version: 6.00 Build 0)  -->
<!DOCTYPE svg PUBLIC "-//W3C//DTD SVG 1.1//EN" "http://www.w3.org/Graphics/SVG/1.1/DTD/svg11.dtd">
<svg version="1.1" id="Calque_1" xmlns="http://www.w3.org/2000/svg" xmlns:xlink="http://www.w3.org/1999/xlink" x="0px" y="0px"
	 width="217px" height="207px" viewBox="0 0 217 207" enable-background="new 0 0 217 207" xml:space="preserve">
<g>
	<g>
		<linearGradient id="SVGID_1_" gradientUnits="userSpaceOnUse" x1="16.1885" y1="81.1523" x2="125.2388" y2="81.1523">
			<stop  offset="0" style="stop-color:#FBB66E"/>
			<stop  offset="0.0321" style="stop-color:#F6AD6E"/>
			<stop  offset="0.1848" style="stop-color:#E78D6D"/>
			<stop  offset="0.3409" style="stop-color:#DD736C"/>
			<stop  offset="0.4989" style="stop-color:#D55E69"/>
			<stop  offset="0.6596" style="stop-color:#D04D67"/>
			<stop  offset="0.8244" style="stop-color:#CD4266"/>
			<stop  offset="1" style="stop-color:#CC3E66"/>
		</linearGradient>
		<path fill="url(#SVGID_1_)" d="M39.802,153.071c-7.932,0-15.895-1.028-23.613-3.098l3.602-13.446
			c32.303,8.659,65.092-3.856,81.588-31.141c16.494-27.283,12.342-62.131-10.334-86.713l10.23-9.44
			c12.723,13.793,20.99,31.441,23.283,49.699c2.383,18.969-1.514,37.522-11.268,53.656c-9.754,16.133-24.373,28.206-42.277,34.91
			C61.121,151.203,50.49,153.071,39.802,153.071z"/>
		<path fill="#49C2C6" d="M39.045,130.841l-13.405-3.756c5.061-18.067,15.744-34.367,30.081-45.902
			c14.897-11.983,32.734-18.405,51.585-18.57c18.866-0.148,36.803,5.942,51.904,17.663c14.54,11.281,25.506,27.393,30.885,45.368
			l-13.336,3.991c-9.586-32.041-37.438-53.349-69.33-53.102C75.548,76.813,48.065,98.637,39.045,130.841z"/>
		<linearGradient id="SVGID_2_" gradientUnits="userSpaceOnUse" x1="86.5908" y1="81.1523" x2="195.6436" y2="81.1523">
			<stop  offset="0" style="stop-color:#7883C0"/>
			<stop  offset="0.2705" style="stop-color:#5E639B"/>
			<stop  offset="0.7672" style="stop-color:#37366F"/>
			<stop  offset="1" style="stop-color:#282561"/>
		</linearGradient>
		<path fill="url(#SVGID_2_)" d="M172.028,153.071c-10.688,0-21.317-1.869-31.211-5.573c-17.902-6.705-32.521-18.777-42.277-34.91
			c-9.754-16.134-13.65-34.687-11.269-53.656c2.293-18.257,10.563-35.906,23.286-49.699l10.23,9.44
			c-22.676,24.582-26.83,59.43-10.335,86.713s49.282,39.799,81.586,31.141l3.604,13.446
			C187.924,152.043,179.96,153.071,172.028,153.071z"/>
	</g>
	<g>
		<g>
			<path fill="#7C7C7C" stroke="#7C7C7C" stroke-width="3" stroke-miterlimit="10" d="M24.539,164.342
				c-1.501-0.777-3.185-1.166-5.046-1.166c-1.863,0-3.449,0.495-4.762,1.482c-1.311,0.987-1.966,2.34-1.966,4.056v0.243
				c0,2.04,1.329,3.904,3.99,5.588c1.142,0.711,2.423,1.416,3.85,2.112c1.426,0.698,2.851,1.442,4.275,2.235
				c1.426,0.795,2.719,1.637,3.878,2.527c1.159,0.891,2.109,1.985,2.851,3.279s1.112,2.721,1.112,4.275v0.486
				c0,3.077-1.227,5.524-3.678,7.336c-2.451,1.814-5.484,2.721-9.094,2.721c-4.753,0-8.439-1.667-11.063-5.004v-2.623
				c0.988,1.846,2.442,3.345,4.362,4.493c1.919,1.151,4.305,1.724,7.155,1.724c2.852,0,5.322-0.777,7.412-2.33
				c2.09-1.556,3.137-3.628,3.137-6.22v-0.291c0-1.62-0.494-3.101-1.482-4.445c-0.99-1.344-2.225-2.446-3.707-3.305
				c-1.482-0.858-3.098-1.755-4.847-2.695c-1.747-0.939-3.363-1.813-4.847-2.623c-1.482-0.811-2.717-1.832-3.705-3.063
				c-0.988-1.23-1.482-2.573-1.482-4.032v-0.339c0-2.267,0.855-4,2.566-5.199c1.709-1.197,3.818-1.798,6.328-1.798
				c3.496,0,6.272,1.103,8.325,3.304v2.478C27.228,166.188,26.041,165.119,24.539,164.342z"/>
			<path fill="#7C7C7C" stroke="#7C7C7C" stroke-width="3" stroke-miterlimit="10" d="M57.923,162.399v1.409h-9.75v35.028H46.29
				v-35.028h-9.863v-1.409H57.923z"/>
			<path fill="#7C7C7C" stroke="#7C7C7C" stroke-width="3" stroke-miterlimit="10" d="M67.614,162.399h15.34v1.409H69.497v19.821
				h11.232v1.409H69.497v12.39h13.457v1.408h-15.34V162.399z"/>
			<path fill="#7C7C7C" stroke="#7C7C7C" stroke-width="3" stroke-miterlimit="10" d="M94.813,162.399v35.029h13.228v1.408H92.931
				v-36.437H94.813z"/>
			<path fill="#7C7C7C" stroke="#7C7C7C" stroke-width="3" stroke-miterlimit="10" d="M119.614,162.399v35.029h13.229v1.408h-15.109
				v-36.437H119.614z"/>
			<path fill="#7C7C7C" stroke="#7C7C7C" stroke-width="3" stroke-miterlimit="10" d="M161.294,161.524l21.38,37.312h-1.995
				l-8.097-13.896h-22.863l-7.983,13.896h-1.768L161.294,161.524z M161.122,164.876l-10.662,18.656h21.438L161.122,164.876z"/>
			<path fill="#7C7C7C" stroke="#7C7C7C" stroke-width="3" stroke-miterlimit="10" d="M192.937,162.399h2.453
				c3.686,0,6.928,1.159,9.721,3.474c2.793,2.315,4.19,5.036,4.19,8.162c0,3.126-1.425,5.838-4.275,8.138
				c-2.851,2.3-5.912,3.449-9.18,3.449h-0.399l14.709,13.215h-2.451l-12.943-11.563v11.563h-1.824V162.399z M194.761,184.213h1.027
				c3.08,0,5.797-1.004,8.152-3.013c2.357-2.008,3.536-4.389,3.536-7.142c0-2.752-1.216-5.149-3.648-7.189
				c-2.434-2.042-5.208-3.061-8.325-3.061h-0.742V184.213z"/>
		</g>
	</g>
</g>
</svg>
