<?xml version="1.0" encoding="utf-8"?>
<!-- Generator: Adobe Illustrator 16.0.0, SVG Export Plug-In . SVG Version: 6.00 Build 0)  -->
<!DOCTYPE svg PUBLIC "-//W3C//DTD SVG 1.1//EN" "http://www.w3.org/Graphics/SVG/1.1/DTD/svg11.dtd">
<svg version="1.1" id="Calque_1" xmlns="http://www.w3.org/2000/svg" xmlns:xlink="http://www.w3.org/1999/xlink" x="0px" y="0px"
	 width="512px" height="488px" viewBox="0 0 512 488" enable-background="new 0 0 512 488" xml:space="preserve">
<g>
	<path fill-rule="evenodd" clip-rule="evenodd" fill="#5D68B0" d="M401.817,75.016c25.992,17.943,45.175,41.633,58.993,69.857
		c-0.669,0.497-1.334,0.994-2.005,1.493c-16.654-11.173-28.481-27.172-41.767-41.73c-27.254-29.616-45.263-31.459-81.366-15.43
		c-41.919,18.605-82.271,40.548-124.997,57.387c-10.358,4.083-21.114,6.405-31.683,9.591c-18.654,5.678-36.694,13.376-56.108,16.425
		c-7.381,1.156-14.699,3.029-21.884-0.707c-5.233-5.925,0.136-8.988,3.677-11.936c4.672-3.893,10.2-6.661,15.257-10.065
		c12.794-5.408,25.731-10.48,38.717-15.427c14.747-5.619,29.161-12.288,40.272-23.527c16.016-16.202,34.732-28.717,52.609-42.51
		c30.829-23.79,63.306-32.714,100.564-17.63c4.253,1.726,8.672,3.306,13.303,3.971C379.48,58.016,389.048,69.397,401.817,75.016z"/>
	<path fill-rule="evenodd" clip-rule="evenodd" fill="#4D55A5" d="M485.094,229.299c5.079,20.399,1.674,40.32-3.385,60.147
		c-0.767-0.628-1.531-1.261-2.311-1.887c-5.416-11.141-2.065-23.1-3.263-34.623c1.444-9.853-2.528-13.462-12.601-12.478
		c-11.691,1.14-22.662,3.994-33.271,8.971c-20.449,9.589-42.107,15.888-63.554,22.853c-17.452,2.005-33.443,9.28-50.187,13.801
		c-27.784,7.504-56.011,8.37-84.497,7.78c-12.123-0.249-24.392-1.321-36.329,2.228c-3.012,0.486-6.022,0.479-9.039,0.104
		c-22.132-4.296-44.697-2.244-66.986-4.496c-13.641-1.378-27.531-1.021-38.324-11.506c3.222-10.495,11.744-9.445,19.64-8.396
		c6.261,0.835,12.36,2.401,18.606,0.309c3.682-0.787,7.377-0.806,11.07-0.163c7.979,2.611,15.892,1.977,23.773-0.559
		c38.212,1.434,75.948-7.902,114.563-3.203c17.976,2.186,36.418-5.995,54.35-10.762c38.083-10.128,76.805-17.994,113.337-33.592
		c11.67-4.981,24.478-7.387,37.53-5.545c1.891,0.302,3.674,0.941,5.359,1.858C483.438,221.964,481.583,227.241,485.094,229.299z"/>
	<path fill-rule="evenodd" clip-rule="evenodd" fill="#686EB3" d="M25.714,272.105c-9.469-64.913,11.093-120.982,52.893-169.363
		C144.055,26.993,258.723,2.623,350.32,43.395c2.06,0.917,3.845,2.454,5.759,3.701c-1.733,2.479-4.229,3.45-7.12,3.639
		c-9.107,0.139-16.721-5.99-25.745-6.178c-6.753-4.137-14.575-2.818-21.888-4.165c-1.703-0.248-3.366-0.64-5.029-1.074
		c-69.707-5.523-131.305,13.17-182.54,61.8c-21.511,20.422-42.348,41.589-57.155,67.756c-14.702,28.559-25.653,58.163-25.994,90.838
		C30.557,264.34,30.028,269.037,25.714,272.105z"/>
	<path fill-rule="evenodd" clip-rule="evenodd" fill="#6367AF" d="M25.714,272.105c-0.114-37.792,7.23-73.574,28.45-105.619
		c10.241-16.537,22.7-30.979,39.229-41.611c18.733-0.322,19.775,16.823,27.256,27.62c-3.867,9.586-17.125,7.907-20.992,17.495
		c-5.689,8.526-14.515,13.081-23.339,17.04c-22.428,10.057-34.117,27.996-39.359,51.107c-3.588,11.112-2.019,22.573-2.54,33.882
		c-0.332,7.205,1.45,15.007-5.034,20.748C25.112,286.423,25.827,279.189,25.714,272.105z"/>
	<path fill-rule="evenodd" clip-rule="evenodd" fill="#5C61AB" d="M29.385,292.767c1.74-19.896-2.765-40.196,3.801-59.791
		c13.621-25.309,39.68-26.476,63.205-32.62c13.437,1.757,27.063,1.01,40.502,2.917c5.098,8.193-2.963,9.603-6.953,11.999
		c-8.205,4.927-16.623,9.574-25.155,13.953c-14.321,4.904-29.294,7.3-43.891,11.209c-15.335,4.109-24.4,12.93-23.069,29.861
		c0,6.537,0.115,13.051,0.099,19.583c-0.332,5.982,0.327,12.254-5.012,16.717C29.13,302.649,29.299,297.699,29.385,292.767z"/>
	<path fill-rule="evenodd" clip-rule="evenodd" fill="#484A88" d="M363.112,443.433c-77.54,38.563-153.82,35.691-228.886-6.968
		c-1.02-5.532,3.039-6.282,6.839-7.294c6.056-0.552,11.397,1.927,16.864,3.916c55.987,25.721,113.599,28.655,172.573,12.299
		c7.239,0.443,13.882-1.798,20.378-4.703c1.728-0.562,3.492-0.813,5.311-0.822C358.998,440.08,361.469,440.966,363.112,443.433z"/>
	<path fill-rule="evenodd" clip-rule="evenodd" fill="#464988" d="M363.112,443.433c-2.698-0.18-5.39-0.362-8.082-0.541
		c1.331-10.968,11.204-13.764,18.623-17.853c15.771-8.683,29.56-19.528,41.735-32.616c5.481-4.809,9.548-10.961,14.93-15.875
		c9.422-3.803,10.242-19.699,24.128-17.242C433.352,397.5,402.525,425.123,363.112,443.433z"/>
	<path fill-rule="evenodd" clip-rule="evenodd" fill="#3B4291" d="M464.037,341.737c-1.201,1.274-2.393,2.552-3.59,3.828
		c-6.075-6.411-8.221-20.069-22.141-11.951c-10.885,1.484-20.779,6.009-30.852,10.007c-2.717,0.382-5.222-0.069-7.363-1.905
		c4.069-16.888,20.742-17.877,32.387-24.629c8.727-5.064,18.842-8.195,28.201-12.556c5.476-0.618,8.417,2.273,9.923,7.154
		C473.898,322.892,466.424,331.757,464.037,341.737z"/>
	<path fill-rule="evenodd" clip-rule="evenodd" fill="#494D95" d="M141.653,432.397c-3.149,0.121-5.892,1-7.427,4.07
		c-9.299-4.01-17.602-9.465-24.592-16.844c-13.959-15.678-31.426-28.102-42.797-46.211c-2.133-3.395-5.125-6.273-3.241-10.772
		c1.224-1.207,2.705-1.89,4.399-2.131c12.467,3.532,14.217,17.434,23.399,24.161c11.711,13.727,26.526,23.878,40.358,35.175
		C135.884,423.217,142.738,424.789,141.653,432.397z"/>
	<path fill-rule="evenodd" clip-rule="evenodd" fill="#3A418C" d="M439.085,330.958c2.708-5.728,6.282-7.104,12.554-4.35
		c9.021,3.957,8.412,11.484,8.809,18.957c0.285,1.11,0.035,2.081-0.75,2.92c-12.531,13.416-23.219,0.802-34.577-2.445
		c-0.976-1.352-1.288-2.865-1.047-4.509C426.939,334.986,433.576,333.772,439.085,330.958z"/>
	<path fill-rule="evenodd" clip-rule="evenodd" fill="#3C418B" d="M425.106,344.956c11.919-2.593,22.132,11.471,34.591,3.53
		c0.771,4.835-2.247,7.821-5.256,10.821c-10.502,3.561-11.919,16.981-22.359,20.615c-3.174-9.289-0.965-20.254-8.775-28.109
		C422.788,349.229,423.172,346.885,425.106,344.956z"/>
	<path fill-rule="evenodd" clip-rule="evenodd" fill="#575799" d="M64.639,362.468c4.496,16.453,18.195,25.829,28.771,37.65
		c5.634,6.292,13.879,10.478,16.225,19.506c-26.234-17.971-45.72-41.656-59.443-70.227c-1.143-2.496-1.396-5.045-0.467-7.669
		C63.025,342.65,62.564,353.47,64.639,362.468z"/>
	<path fill-rule="evenodd" clip-rule="evenodd" fill="#5A5BA1" d="M50.671,341.433c-0.155,2.655-0.315,5.313-0.474,7.965
		c-8.845-13.02-14.808-27.205-17.286-42.799c0.089-5.892,0.175-11.784,0.261-17.673c1.488-1.094,2.989-1.112,4.51-0.06
		c2.792,3.31,3.932,7.382,5.258,11.373c1.552,5.564,1.529,11.51,4.156,16.82C49.051,325.073,56.146,332.346,50.671,341.433z"/>
	<path fill-rule="evenodd" clip-rule="evenodd" fill="#676DB2" d="M348.089,47.542c2.658-0.149,5.32-0.297,7.985-0.446
		c17.172,6.159,32.686,15.019,45.738,27.921c-14.477-0.535-21.881-16.145-36.214-17.003
		C360.564,53.179,350.314,57.069,348.089,47.542z"/>
	<path fill-rule="evenodd" clip-rule="evenodd" fill="#4B52A3" d="M464.037,341.737c-2.244-9.772,8.322-18.139,3.105-28.236
		c1.018-0.969,1.891-2.05,2.639-3.236c0.948-2.708,1.14-5.611,2.177-8.297c1.522-4.216,1.776-8.874,4.402-12.709
		c1.242-1.126,2.642-1.309,4.173-0.688l1.176,0.875C479.699,308.189,474.203,325.755,464.037,341.737z"/>
	<path fill-rule="evenodd" clip-rule="evenodd" fill="#5660AB" d="M485.094,229.299c-3.217-1.164-3.879-3.836-4.021-6.813
		c-6.333-7.271-6.144-16.875-9.138-25.34c-1.254-5.442-3.407-10.695-3.62-16.375c0.185-1.619,0.778-3.083,1.749-4.391
		c1.525-0.854,2.919-0.674,4.181,0.542C482.196,193.482,485.748,210.955,485.094,229.299z"/>
	<path fill-rule="evenodd" clip-rule="evenodd" fill="#5D68B0" d="M474.245,176.922c-1.221,0.021-2.438,0.04-3.657,0.061
		c-7.662-6.271-10.721-15.068-13.276-24.156c-0.117-2.698,0.507-5.142,2.475-7.117l1.024-0.837
		C467.402,154.669,472.823,164.958,474.245,176.922z"/>
	<path fill-rule="evenodd" clip-rule="evenodd" fill="#6169B0" d="M348.089,47.542c4.624,5.521,13.571,3.807,17.51,10.471
		c-7.347-1.434-15.223-1.628-21.948-4.514c-30.752-13.195-57.824-4.271-82.815,13.768c-21.022,15.183-41.833,30.499-60.899,48.596
		c-21.619,20.52-50.916,28.518-79.286,36.632c-8.786-0.806-9.45-8.886-12.299-14.514c-3.439-6.805-7.739-10.903-15.686-9.981
		c2.268-15.076,13.612-22.336,25.894-27.074c10.566-4.076,19.582-9.497,28.038-16.871c43.815-38.199,94.839-53.522,152.511-47.036
		l0.007,0.002c7.644,4.73,16.806-1.068,24.47,3.53C331.079,45.227,339.463,46.803,348.089,47.542z"/>
	<path fill-rule="evenodd" clip-rule="evenodd" fill="#5863AD" d="M459.786,145.71c0.095,2.262,0.192,4.525,0.291,6.788
		c-7.089,1.792-10.552-3.647-14.574-7.576c-10.619-10.375-23.266-11.342-32.778-1.387c-26.551,27.787-61.043,28.574-95.308,31.157
		c-5.798,0.438-11.815-0.595-17.431,0.842c-45.109,11.556-92.408,12.226-136.771,27.649c-7.871,2.735-16.299,7.326-25.07,1.802
		c-13.996,3.439-27.992,0.129-41.986-0.003c-0.793-5.77,3.837-6.519,7.505-7.535c26.214-7.241,50.855-18.75,76.386-27.858
		c40.123-12.106,79.893-26.259,121.288-32.671c31.314-4.851,60.153-11.255,83.405-34.995c11.121-11.351,24.838-6.506,36.849,1.585
		C434.322,117.577,447.054,131.645,459.786,145.71z"/>
	<path fill-rule="evenodd" clip-rule="evenodd" fill="#5B66AF" d="M421.591,103.508c-18.889-6.458-33.38-2.213-47.478,13.298
		c-18.295,20.136-45.429,20.312-70.445,24.453c-37.027,6.133-72.49,18.386-108.398,28.839c-4.957,1.441-10.086,2.277-15.135,3.393
		c-2.227-6.996-2.239-13.997,0-20.995c24.719-9.526,50.598-16.864,73.844-29.166c26.688-14.115,56.07-23.221,81.123-39.067
		C366.031,64.699,390.967,71.105,421.591,103.508z"/>
	<path fill-rule="evenodd" clip-rule="evenodd" fill="#5E64AD" d="M180.135,152.495c4.392,6.999,4.392,13.999,0,20.995
		c-27.155,12.724-55.539,22.186-83.977,31.492c-23.042,4.716-45.717,10.264-62.973,27.994c8.344-35.571,37.12-49.584,66.472-62.986
		c21.755,0.565,41.927-6.12,62.082-13.197C167.647,154.718,173.993,153.895,180.135,152.495z"/>
	<path fill-rule="evenodd" clip-rule="evenodd" fill="#525AA8" d="M474.076,194.486c4.99,8.672,7.188,18.036,6.997,28
		c-1.164,0-2.325-0.005-3.493-0.006c-11.234-14.907-25.694-9.21-38.031-3.876c-27.93,12.081-57.406,18.357-86.312,26.975
		c-56.348,16.802-113.136,24.55-171.766,18.164c-15.827-1.722-32.216,6.872-47.806-2.208c-3.121-4.535-3.421-9.426-1.862-14.553
		c2.223-5.475,7.053-7.717,12.218-8.832c26.086-5.625,51.785-13.276,79.238-7.961c23.324,4.516,46.321-0.871,69.127-5.896
		c27.195-5.992,53.75-14.832,82.265-14.436c14.722,0.205,27.919-7.602,40.56-14.934c9.648-5.597,19.577-10.508,30.639-12.242
		C457.467,180.861,468.063,182.445,474.076,194.486z"/>
	<path fill-rule="evenodd" clip-rule="evenodd" fill="#494FA2" d="M480.533,288.571c-0.968,0.242-1.947,0.376-2.944,0.406
		c-2.354-1.947-3.898-4.578-4.022-7.475c-0.553-13.039-7.813-12.617-17.908-10.485c-20.693,4.366-39.823,12.692-58.941,21.138
		c-56.056,24.751-114.443,39.348-175.927,36.298c-46.235-2.291-92.791-3.271-138.034-15.562c-8.805-2.394-18.189-4.07-27.516-1.3
		c-5.326,0.496-9.746-1.053-12.783-5.679c-1.063-17.503,3.525-23.153,20.131-20.609c18.879,2.896,37.873,5.577,56.489,10.134
		c18.109,4.625,36.63,5.593,55.177,6.712c84.449,5.109,165.943-6.251,243.189-42.468c15.908-7.461,33.635-9.189,50.287-14.417
		c5.485-1.722,10.394-0.346,13.343,5.214C480.893,263.176,480.71,275.872,480.533,288.571z"/>
	<path fill-rule="evenodd" clip-rule="evenodd" fill="#4F58A7" d="M134.646,260.975c37.896-1.688,75.789-1.938,113.688-0.003
		c36.269,1.85,68.833-15.296,103.652-20.273c37.771-5.399,71.138-24.155,107.84-32.545c13.853-3.17,17.964,1.955,17.754,14.327
		c-18.434-1.285-35.609,3.596-52.44,10.452c-49.072,19.989-101.315,28.475-152.339,41.249c-9.473,2.368-20.517-2.041-30.871-2.633
		c-30.023-1.718-59.629,8.076-89.785,3.422c-7.004-0.046-14-0.046-20.998,0c-3.499,0-6.998,0-10.497,0
		c-5.794-0.673-12.899,1.785-15.504-6.5C111.942,254.025,124.896,263.814,134.646,260.975z"/>
	<path fill-rule="evenodd" clip-rule="evenodd" fill="#4B52A3" d="M481.073,250.479c-22.999-1.636-43.737,7.31-64.45,14.927
		c-59.249,21.8-117.559,45.837-183.059,41.483c-35.575-2.367-71.503,1.614-107.073-3.864c-3.476-0.535-6.983-0.35-9.343-3.557
		c15.42-9.079,32.56-6.035,49.139-6.998c6.95-0.406,13.898,0.989,20.852-0.002c2.33,0,4.662,0,6.997,0
		c59.912,3.204,118.53-2.827,174.962-24.495c22.294-10.605,47.091-14.798,68.748-27.073c10.386-5.884,22.426-4.369,33.644-6.046
		C483.395,233.074,480.313,243.664,481.073,250.479z"/>
	<path fill-rule="evenodd" clip-rule="evenodd" fill="#4D52A3" d="M187.139,292.468c-22.99,5.739-46.666,4.619-69.99,7
		c-19.554-3.485-39.047-7.377-58.688-10.318c-13.103-1.96-15.65,6.559-14.778,17.298c2.741,3.507,3.052,7.006-0.038,10.49
		c-5.799-4.895-2.633-11.592-3.512-17.476c-3.121-8.136-3.443-16.205,5.106-20.795c11.972-6.432,24.576-8.429,36.921-0.195
		c23.821,10.963,49.584,8.176,74.629,10.461C166.938,289.856,177.537,286.793,187.139,292.468z"/>
	<path fill-rule="evenodd" clip-rule="evenodd" fill="#5256A5" d="M82.16,278.472c-6.995,0.004-13.986-0.167-20.971,0.047
		c-13.455,0.41-22.729,5.229-21.057,20.943c-4.101-2.521-3.348-6.658-3.484-10.494c-3.329-21.679,1.042-28.173,22.298-28.263
		c16.075-0.067,33.699-7.21,47.705,7.268c2.989,5.685,11.007,1.316,13.998,6.997c-5.251,5.588-11.425,3.892-17.289,1.74
		C95.887,273.959,88.955,274.662,82.16,278.472z"/>
	<path fill-rule="evenodd" clip-rule="evenodd" fill="#4D52A3" d="M369.098,267.973c-28.428,13.24-58.284,20.686-89.402,24.877
		c-23.128,3.114-46.136,3.004-69.247,3.03c-5.562,0.004-11.777,1.941-16.313-3.412c6.814-4.282,14.45-3.808,21.937-3.454
		c47.142,2.225,93.363-1.444,137.592-19.79C358.201,267.34,363.925,268.322,369.098,267.973z"/>
	<path fill-rule="evenodd" clip-rule="evenodd" fill="#5256A5" d="M131.146,274.97c6.998-5.306,13.994-5.306,20.998,0
		C145.141,280.28,138.145,280.28,131.146,274.97z"/>
	<path fill-rule="evenodd" clip-rule="evenodd" fill="#676DB2" d="M299.107,37.019c-60.549-2.644-113.478,15.386-157.646,57.679
		c-3.653,3.497-8.547,7.279-13.235,7.833c-16.862,2-26.374,13.296-35.562,25.469c-15.18,10.485-25.673,25.655-38.501,38.486
		c3.3-20.138,21.503-29.615,32.635-43.898c34.563-44.35,80.857-72.141,135.801-83.514C247.555,33.91,273.377,28.22,299.107,37.019z"
		/>
	<path fill-rule="evenodd" clip-rule="evenodd" fill="#676DB2" d="M323.584,40.551c-8.124-1.416-17.11,3.195-24.47-3.53
		C307.24,38.397,316.234,33.756,323.584,40.551z"/>
	<path fill-rule="evenodd" clip-rule="evenodd" fill="#5660AB" d="M138.145,204.985c51.316-18.516,105.925-21.862,158.618-34.154
		c17.196-4.013,35.575-4.232,53.394-4.018c19.932,0.238,36.09-7.24,50.423-19.706c25.688-22.341,31.61-22.221,55.157,2.566
		c1.15,1.218,2.878,1.895,4.341,2.824c3.347,8.227,9.371,15.309,10.511,24.485L470.563,177c-1.707,0.411-3.824,0.972-4.979-0.315
		c-15.903-17.737-32.546-11.169-48.263-0.594c-28.661,19.289-60.669,24.36-94.224,25.359c-30.873,0.92-60.331,12.005-91.326,13.453
		c-27.181,1.27-54.626,2.309-80.788,11.432c-11.232,3.303-22.743,5.385-34.381,5.836c-4.921,0.191-12.413,3.187-13.45-6.19
		C114.82,218.982,126.483,211.985,138.145,204.985z"/>
	<path fill-rule="evenodd" clip-rule="evenodd" fill="#585DAA" d="M103.152,225.98c15.668,5.393,30.42-1.14,45.494-3.495
		c4,5.658-0.242,8.693-4.143,10.927c-7.574,4.342-13.102,11.187-20.377,15.83c-13.184,5.838-27.397,2.356-41.094,4.072
		c-17.685,2.216-34.75,4.535-49.861,14.657c-0.419-16.65,7.713-26.808,23.671-30.789C72.251,233.338,87.713,229.707,103.152,225.98z
		"/>
	<path fill-rule="evenodd" clip-rule="evenodd" fill="#545AA8" d="M33.172,267.972c7.11-12.883,18.967-16.765,32.664-17.496
		c19.443-1.038,38.875-2.322,58.313-3.503c3.499-2.455,6.998-3.133,10.497,0.006c0,4.664,0,9.329,0,13.996
		c-2.596,5.567-6.271,7.028-12.354,4.725c-5.207-1.975-11.104-3.006-15.64,2.273c-17.832-7.015-36.415-2.594-54.546-2.717
		c-14.104-0.099-16.886,11.439-15.457,23.712c-1.159,0-2.32-0.014-3.477-0.042C33.172,281.941,33.172,274.956,33.172,267.972z"/>
	<path fill-rule="evenodd" clip-rule="evenodd" fill="#393E84" d="M418.081,393.945c-11.866,17.78-30.103,27.489-47.788,37.979
		c-5.368,3.183-10.191,7.286-15.263,10.968c-1.146,0.006-2.287,0.023-3.426,0.043c-5.598,2.932-12.015,3.808-17.509,6.99
		c-26.729,3.975-52.703,12.534-80.39,10.708c-34.313-2.262-67.457-8.139-98.068-24.638c-2.063-2.274-2.029-4.723-0.596-7.288
		c9.204-3.29,17.054,2.841,25.672,3.655c8.406,2.433,16.654,5.361,25.122,7.599c58.248,12.38,112.717,3.683,162.879-29.091
		c11.783-0.058,16.638-12.423,26.879-15.23C403.129,395.746,410.154,388.716,418.081,393.945z"/>
	<path fill-rule="evenodd" clip-rule="evenodd" fill="#3D428D" d="M155.635,428.933c0,2.355,0,4.708,0.003,7.063
		c-4.661-1.2-9.323-2.397-13.984-3.598c-17.657-14.975-38.819-25.902-52.495-45.478c-2.323-4.227-6.651-7.787-4.533-13.51
		c8.054-3.879,11.495,4.08,17.062,6.607c9.938,10,20.188,19.665,31.633,27.986C141.323,414.371,149.355,420.722,155.635,428.933z"/>
	<path fill-rule="evenodd" clip-rule="evenodd" fill="#464988" d="M334.096,449.925c4.558-5.537,10.66-7.194,17.509-6.99
		C347.057,448.503,340.952,450.161,334.096,449.925z"/>
	<path fill-rule="evenodd" clip-rule="evenodd" fill="#393E86" d="M418.081,393.945c-7.228-0.222-13.169,7.26-20.987,3.5
		c-1.17-18.27,11.453-29.405,21.595-41.847c1.74-1.917,3.79-3.288,6.41-3.641c14.011,6.403,10.218,17.253,6.983,27.965
		C426.975,384.157,425.006,391.527,418.081,393.945z"/>
	<path fill-rule="evenodd" clip-rule="evenodd" fill="#3B4196" d="M460.077,306.473c-11.316,14.579-31.599,12.381-44.696,23.921
		c-4.556,4.016-11.982,4.452-14.794,11.047c-1.707,4.965-5.966,6.485-10.386,8.24c-63.63,25.254-129.644,32.897-197.516,27.022
		c-15.966-5.629-32.814-7.085-49.388-9.084c-21.226-2.557-40.284-10.014-58.432-20.677c-2.293-3.169-5.715-6.196-1.431-10.275
		c15.931-1.669,30.957,3.474,46.086,6.806c72.163,15.889,144.225,14.111,216.003-1.411c27.888-6.033,51.812-22.834,78.276-32.872
		C435.192,304.867,447.283,297.44,460.077,306.473z"/>
	<path fill-rule="evenodd" clip-rule="evenodd" fill="#3E459B" d="M460.077,306.473c-19.931-0.868-38.087,6.275-54.725,15.444
		c-70.161,38.666-145.464,40.335-222.483,34.338c-34.352-2.675-67.248-11.574-100.688-18.297c-5.607-0.545-10.784-1.349-5.203-8.64
		c25.814-1.72,50.707,4.677,75.596,9.657c12.614,2.522,24.963,4.896,37.788,4.503c34.194-1.049,68.351,0.528,102.641-2.058
		c44.675-3.369,84.331-20.442,124.158-38.192c11.613-5.177,22.725-11.423,36.26-11.138c19.058,0.398,20.488,1.696,17.142,21.293
		c-1.136,0.043-2.281,0.08-3.423,0.117C466.963,308.969,464.669,306.562,460.077,306.473z"/>
	<path fill-rule="evenodd" clip-rule="evenodd" fill="#353B8E" d="M190.618,372.945c44.178,0.674,88.578,1.97,131.944-7.497
		c26.49-5.786,52.049-15.861,78.024-24.008c2.337,0.004,4.675,0.01,7.009,0.015c-1.259,11.146-12.986,11.811-18.592,18.64
		c-40.114,19.612-82.926,28.94-127.116,31.475c-25.434,1.456-51.023,0.526-76.54,0.302c-6.942-0.062-14.015,0.114-20.002-4.416
		c-3.669-4.27-8.449-7.172-12.888-10.54c-2.707-2.058-7.311-4.638-2.177-9.023C163.775,369.183,177.373,369.65,190.618,372.945z"/>
	<path fill-rule="evenodd" clip-rule="evenodd" fill="#373D8D" d="M390.092,355.458c3.035-8.168,13.138-7.503,17.504-14.003
		c8.811-8.563,19.487-11.505,31.489-10.497c-4.462,3.773-7.236,9.795-14.001,10.5C416.19,353.054,406.268,362.071,390.092,355.458z"
		/>
	<path fill-rule="evenodd" clip-rule="evenodd" fill="#414695" d="M75.177,330.964c1.316,3.351,3.656,5.677,7,6.994
		c1.161,2.336,2.323,4.671,3.49,7.002c-2.379,9.328,0.735,18.659-0.008,27.985c1.164,4.66,2.331,9.317,3.499,13.975
		c-10.607-5.067-11.694-18.291-20.99-24.485c-6.051-11.883-18.687-23.024-4.217-37.249
		C69.086,324.398,74.378,323.328,75.177,330.964z"/>
	<path fill-rule="evenodd" clip-rule="evenodd" fill="#484B99" d="M64.675,327.459c-9.329,12.706,2.997,23.251,3.493,34.976
		c-1.178,0.011-2.354,0.019-3.529,0.033c-4.658-7.013-9.313-14.022-13.968-21.035c-2.343-8.164-4.685-16.328-7.026-24.495
		c0.01-3.496,0.023-6.992,0.038-10.49c3.492,1.171,6.988,2.342,10.476,3.511c7.896-0.95,9.158,5.835,12.273,10.482
		C67.033,323.073,66.629,325.462,64.675,327.459z"/>
	<path fill-rule="evenodd" clip-rule="evenodd" fill="#343A88" d="M390.092,355.458c13.711,0.449,23.595-8.671,34.992-14
		c0.008,1.163,0.015,2.332,0.022,3.498c0,2.334-0.003,4.667-0.008,7.002c-1.176,1.169-2.347,2.336-3.521,3.504
		c-21.313,11.491-43.081,21.915-66.597,28.219c-24.032,3.35-46.802,12.407-71.532,13.627c-15.462,0.764-31.031,3.912-46.703,4.188
		c-25.676,0.454-43.326,13.771-56.604,34.434c-8.849,0.064-16.601-3.747-24.508-6.997c-11.645-0.969-15.026-13.506-24.502-17.51
		c-6.121-10.513,0.415-17.164,7.478-23.271c8.095-7.001,16.828-12.103,27.529-4.71c1.396,0.985,2.789,2.842,4.178,2.833
		c53.516-0.349,107.218,5.424,160.017-10.7C350.498,369.416,370.656,363.632,390.092,355.458z"/>
	<path fill-rule="evenodd" clip-rule="evenodd" fill="#454CA0" d="M64.667,320.462c-3.505-3.504-7.005-7.002-10.509-10.504
		c2.706-5.869,6.69-5.423,12.742-4.782c24.135,2.544,47.281,11.884,71.163,12.898c43.164,1.832,85.998,7.601,129.744,3.81
		c55.365-4.801,105.063-25.098,154.917-46.146c14.633-6.176,30.4-7.146,44.883-13.124c6.793-2.801,9.836,0.357,9.9,7.181
		c0.058,6.394,0.053,12.785,0.081,19.183c-0.499,4.834,1.535,10.3-3.487,14.004c-2.499-11.717-8.953-15.395-21.305-13.95
		c-19.051,2.234-36.041,9.451-52.237,18.477c-37.889,21.11-79.566,30.942-121.546,34.425c-57.674,4.784-115.68,2.971-172.572-11.945
		C92.729,326.392,77.33,329.451,64.667,320.462z"/>
	<path fill-rule="evenodd" clip-rule="evenodd" fill="#40489C" d="M64.667,320.462c33.274,3.66,65.938,12.373,99.05,15.479
		c61.051,5.722,121.961,5.727,182.233-11.923c25.859-7.572,49.089-19.564,72.738-30.896c14.28-6.844,29.044-7.859,43.571-10.452
		c17.74-3.165,9.837,12.251,11.842,20.313c-0.184,3.805,0.553,7.925-3.539,10.402c-0.601-17.354-13.793-22.584-33.241-14.011
		c-37.604,16.58-73.898,37.375-115.372,42.88c-57.582,7.636-115.285,11.861-173.085,0.024c-24.319-4.981-49.11-7.613-73.688-11.313
		c-2.52-4.11-6.654-3.386-10.502-3.505C64.67,325.126,64.667,322.792,64.667,320.462z"/>
	<path fill-rule="evenodd" clip-rule="evenodd" fill="#535EAA" d="M134.646,246.979c-3.499-0.003-6.998-0.006-10.497-0.006
		c4.488-11.837,18.953-13.701,24.498-24.488c28.195-12.573,58.855-11.046,88.389-13.082c27.906-1.921,54.142-11.441,81.881-12.965
		c13.309-0.729,26.618-1.331,40.079-3.474c22.071-3.515,40.111-12.423,58.878-22.613c30.277-16.441,30.591-15.854,52.689,6.648
		c1.176,5.83,2.344,11.658,3.514,17.486c-17.701-14.579-35.471-7.766-51.525,1.902c-20.938,12.607-42.282,19.247-67.115,19.85
		c-19.237,0.463-38.317,7.684-57.456,11.93c-28.296,6.276-56.172,10.756-85.798,5.655
		C185.785,229.279,159.835,238.476,134.646,246.979z"/>
	<path fill-rule="evenodd" clip-rule="evenodd" fill="#2F3A84" d="M180.143,435.93c-1.037-3.175-4.809-7.027-1.594-9.591
		c14.541-11.612,26.551-28.791,47.411-28.611c29.51,0.252,58.224-6.561,87.54-8.23c13.611-0.777,26.559-10.87,41.604-9.544
		c2.378,4.375,0.139,8.442-0.803,12.612c-2.495,10.491-9.761,14.579-19.899,16.579c-31.907,6.297-63.506,13.597-93.478,27.042
		c-11.156,5.007-24.144,4.593-36.275,6.752C195.802,442.979,188.045,439.203,180.143,435.93z"/>
	<path fill-rule="evenodd" clip-rule="evenodd" fill="#323982" d="M204.648,442.938c22.654-11.656,47.777-16.134,71.695-24.02
		c20.715-6.835,41.686-14.152,64.068-15.041c7.447-0.295,8.86-7.74,11.192-13.431c15.603-4.137,19.434-0.308,20.992,20.985
		C321.896,450.092,265.429,458,204.648,442.938z"/>
	<path fill-rule="evenodd" clip-rule="evenodd" fill="#343A85" d="M372.597,411.433c-8.054-5.942-3.401-24.589-20.992-20.985
		c1.167-3.499,2.333-6.994,3.499-10.494c23.094-5.631,41.998-22.607,66.475-24.491c-7.295,14.499-19.094,26.37-24.484,41.983
		C387.654,399.876,386.002,415.941,372.597,411.433z"/>
	<path fill-rule="evenodd" clip-rule="evenodd" fill="#383D8D" d="M166.14,383.441c-21.566,0.395-31.589,8.404-35.007,27.981
		c-10.497-9.326-20.987-18.653-31.479-27.979c0.186-13.507,7.535-21.763,20.637-20.413c9.513,0.977,19.641,1.118,28.346,6.433
		C152.103,377.087,164.964,372.95,166.14,383.441z"/>
	<path fill-rule="evenodd" clip-rule="evenodd" fill="#3B4090" d="M148.637,369.464c-6.807-0.041-13.377-1.065-20.121-2.407
		c-13.519-2.693-24.775,1.202-28.861,16.388c-4.666-3.501-9.332-6.999-13.995-10.499c-4.239-9.33-12.748-18.662,0.008-27.985
		c30.819,14.837,64.246,19.257,97.484,24.504c2.605,0.409,4.985,2.284,7.467,3.481C176.467,373.653,162.458,372.683,148.637,369.464
		z"/>
</g>
</svg>
