<?xml version="1.0" encoding="utf-8"?>
<!-- Generator: Adobe Illustrator 16.0.0, SVG Export Plug-In . SVG Version: 6.00 Build 0)  -->
<!DOCTYPE svg PUBLIC "-//W3C//DTD SVG 1.1//EN" "http://www.w3.org/Graphics/SVG/1.1/DTD/svg11.dtd">
<svg version="1.1" id="Calque_1" xmlns="http://www.w3.org/2000/svg" xmlns:xlink="http://www.w3.org/1999/xlink" x="0px" y="0px"
	 width="2776px" height="984.201px" viewBox="0 0 2776 984.201" enable-background="new 0 0 2776 984.201" xml:space="preserve">
<linearGradient id="SVGID_1_" gradientUnits="userSpaceOnUse" x1="4921.5791" y1="129.8225" x2="7524.9824" y2="129.8225" gradientTransform="matrix(-0.7872 -0.6167 0.6167 -0.7872 6333.3564 4237.6909)">
	<stop  offset="0" style="stop-color:#FBB66E"/>
	<stop  offset="0.0321" style="stop-color:#F6AD6E"/>
	<stop  offset="0.1848" style="stop-color:#E78D6D"/>
	<stop  offset="0.3409" style="stop-color:#DD736C"/>
	<stop  offset="0.4989" style="stop-color:#D55E69"/>
	<stop  offset="0.6596" style="stop-color:#D04D67"/>
	<stop  offset="0.8244" style="stop-color:#CD4266"/>
	<stop  offset="1" style="stop-color:#CC3E66"/>
</linearGradient>
<path opacity="0.6" fill="url(#SVGID_1_)" enable-background="new    " d="M2727.739,859.631l-2.996-0.144
	c0.066-1.396,6.359-141.313-21.813-299.363c-25.968-145.683-87.362-337.005-232.377-421.152
	c-149.521-86.762-358.919-45.671-622.378,122.131c-91.356,58.187-184.152,106.08-275.813,142.351
	c-85.53,33.847-172.373,58.479-258.11,73.216c-79.239,13.618-159.693,19.153-239.126,16.449
	c-72.449-2.467-146.082-11.86-218.852-27.921c-122.702-27.082-244.319-72.65-371.801-139.311
	C376.033,269.183,283.346,207.54,208.872,158.01C138.908,111.478,83.646,74.724,46.185,62.729l0.915-2.857
	c37.857,12.122,93.274,48.979,163.436,95.641c307.364,204.42,879.483,584.924,1636.029,103.061
	c264.481-168.453,474.931-209.565,625.499-122.192c64.518,37.438,118.104,98.806,159.271,182.395
	c32.892,66.782,57.978,147.827,74.56,240.884C2734.116,718.029,2727.807,858.234,2727.739,859.631z"/>
<linearGradient id="SVGID_2_" gradientUnits="userSpaceOnUse" x1="4470.9824" y1="177.7732" x2="7056.8291" y2="177.7732" gradientTransform="matrix(-0.7518 -0.6594 0.6594 -0.7518 5770.5 4279.291)">
	<stop  offset="0" style="stop-color:#FBB66E"/>
	<stop  offset="0.0321" style="stop-color:#F6AD6E"/>
	<stop  offset="0.1848" style="stop-color:#E78D6D"/>
	<stop  offset="0.3409" style="stop-color:#DD736C"/>
	<stop  offset="0.4989" style="stop-color:#D55E69"/>
	<stop  offset="0.6596" style="stop-color:#D04D67"/>
	<stop  offset="0.8244" style="stop-color:#CD4266"/>
	<stop  offset="1" style="stop-color:#CC3E66"/>
</linearGradient>
<path fill="url(#SVGID_2_)" d="M2730.552,964.761l-2.981-0.335c0.154-1.384,15.289-140.296-2.632-299.104
	c-16.521-146.38-65.3-340.086-203.881-431.625c-143.793-94.983-355.964-64.38-630.614,90.964
	c-94.917,53.687-190.617,97.024-284.442,128.813c-87.553,29.663-175.827,50.064-262.37,60.639
	c-79.985,9.772-160.666,11.414-239.806,4.879c-72.182-5.962-145.104-18.896-216.737-38.445
	c-120.793-32.967-239.325-84.337-362.37-157.052C420.049,261.64,331.428,195.616,260.22,142.564
	C193.324,92.726,140.486,53.361,103.851,39.578l1.057-2.809c37.032,13.934,90.021,53.41,157.104,103.39
	c293.879,218.945,840.898,626.485,1626.954,181.893c275.714-155.944,488.938-186.51,633.748-90.854
	c61.664,40.734,110.957,104.693,146.51,190.102c28.402,68.232,48.152,150.241,58.701,243.747
	C2745.875,824.177,2730.705,963.372,2730.552,964.761z"/>
</svg>
