<?xml version="1.0" encoding="utf-8"?>
<!-- Generator: Adobe Illustrator 16.0.0, SVG Export Plug-In . SVG Version: 6.00 Build 0)  -->
<!DOCTYPE svg PUBLIC "-//W3C//DTD SVG 1.1//EN" "http://www.w3.org/Graphics/SVG/1.1/DTD/svg11.dtd">
<svg version="1.1" id="Calque_1" xmlns="http://www.w3.org/2000/svg" xmlns:xlink="http://www.w3.org/1999/xlink" x="0px" y="0px"
	 width="2704px" height="1324.201px" viewBox="40.5 0 2704 1324.201" enable-background="new 40.5 0 2704 1324.201"
	 xml:space="preserve">
<linearGradient id="SVGID_1_" gradientUnits="userSpaceOnUse" x1="5579.5078" y1="663.262" x2="8209.8672" y2="663.262" gradientTransform="matrix(-1 0 0 1 8283.3359 0)">
	<stop  offset="0" style="stop-color:#FBB56D"/>
	<stop  offset="0.1024" style="stop-color:#F19D6B"/>
	<stop  offset="0.273" style="stop-color:#E47B69"/>
	<stop  offset="0.4472" style="stop-color:#D96067"/>
	<stop  offset="0.6244" style="stop-color:#D24D66"/>
	<stop  offset="0.8063" style="stop-color:#CD4265"/>
	<stop  offset="1" style="stop-color:#CC3E65"/>
</linearGradient>
<path fill="url(#SVGID_1_)" d="M74.295,1286.301l-0.826-2.885c37.724-10.792,106.242-11.547,192.989-12.503
	c380.037-4.186,1087.431-11.977,1337.443-797.524c42.515-133.582,96.682-237.704,160.998-309.474
	c57.541-64.209,124.375-103.869,198.645-117.877c78.135-14.738,165.707-1.428,260.279,39.559
	c75.559,32.746,155.743,83.138,238.326,149.776c140.554,113.417,240.684,236.297,241.679,237.525l-2.33,1.889
	c-0.993-1.226-100.957-123.894-241.274-237.113c-129.354-104.372-320.431-221.829-496.128-188.688
	c-156.697,29.558-276.923,172.653-357.335,425.312c-30.205,94.902-68.688,182.475-114.383,260.286
	c-42.642,72.612-92.709,138.673-148.812,196.35c-51.849,53.301-110.264,100.889-173.62,141.438
	c-57.783,36.982-121.301,69.146-188.789,95.596c-113.788,44.595-239.598,74.053-384.618,90.057
	c-123.356,13.613-237.961,14.875-330.048,15.89C179.969,1274.867,111.629,1275.619,74.295,1286.301z"/>
</svg>
