<?xml version="1.0" encoding="utf-8"?>
<!-- Generator: Adobe Illustrator 16.0.0, SVG Export Plug-In . SVG Version: 6.00 Build 0)  -->
<!DOCTYPE svg PUBLIC "-//W3C//DTD SVG 1.1//EN" "http://www.w3.org/Graphics/SVG/1.1/DTD/svg11.dtd">
<svg version="1.1" id="Calque_1" xmlns="http://www.w3.org/2000/svg" xmlns:xlink="http://www.w3.org/1999/xlink" x="0px" y="0px"
	 width="576px" height="248.201px" viewBox="40.5 0 576 248.201" enable-background="new 40.5 0 576 248.201" xml:space="preserve">
<linearGradient id="SVGID_1_" gradientUnits="userSpaceOnUse" x1="807.1741" y1="261.3645" x2="1310.136" y2="261.3645" gradientTransform="matrix(1.0723 -0.185 0.2811 1.6297 -878.1487 -96.8311)">
	<stop  offset="0" style="stop-color:#FBB56D"/>
	<stop  offset="0.1024" style="stop-color:#F19D6B"/>
	<stop  offset="0.273" style="stop-color:#E47B69"/>
	<stop  offset="0.4472" style="stop-color:#D96067"/>
	<stop  offset="0.6244" style="stop-color:#D24D66"/>
	<stop  offset="0.8063" style="stop-color:#CD4265"/>
	<stop  offset="1" style="stop-color:#CC3E65"/>
</linearGradient>
<path fill="url(#SVGID_1_)" d="M505.897,23.815c-8.217-1.207-16.8-2.169-25.697-2.888c-3.657,3.951-7.713,7.845-12.133,11.662
	c13.423,0.711,26.211,1.94,38.202,3.702c25.403,3.734,45.79,9.616,60.595,17.482c13.82,7.345,21.954,16.029,23.521,25.119
	c1.567,9.089-3.185,19.998-13.745,31.547c-11.314,12.375-28.552,24.746-51.234,36.775c-47.063,24.954-111.892,45.411-182.545,57.6
	s-138.59,14.638-191.292,6.892c-25.403-3.733-45.79-9.614-60.595-17.483c-13.82-7.343-21.954-16.029-23.521-25.118
	c-1.566-9.089,3.186-19.997,13.746-31.547c11.314-12.372,28.551-24.745,51.234-36.774c4.991-2.646,10.194-5.238,15.572-7.781
	c-5.565-1.805-10.853-3.795-15.832-5.961c-1.197,0.62-2.393,1.237-3.57,1.862c-34.87,18.49-75.205,47.659-69.348,81.615
	c5.858,33.958,53.637,47.926,92.687,53.665c53.284,7.829,121.853,5.375,193.067-6.91c71.218-12.286,136.643-32.947,184.226-58.178
	c34.869-18.491,75.207-47.661,69.348-81.618C592.724,43.522,544.946,29.554,505.897,23.815z"/>
</svg>
